<svg width="48" height="48" viewBox="0 0 48 48" fill="none" xmlns="http://www.w3.org/2000/svg">
<path fill-rule="evenodd" clip-rule="evenodd" d="M10.8 6H37.2C38.473 6 39.6939 6.50571 40.5941 7.40589C41.4943 8.30606 42 9.52696 42 10.8V37.2C42 38.473 41.4943 39.6939 40.5941 40.5941C39.6939 41.4943 38.473 42 37.2 42H10.8C9.52696 42 8.30606 41.4943 7.40589 40.5941C6.50571 39.6939 6 38.473 6 37.2V10.8C6 10.1697 6.12416 9.54548 6.36538 8.96312C6.6066 8.38076 6.96017 7.85161 7.40589 7.40589C8.30606 6.50571 9.52696 6 10.8 6ZM26 8V22H40V26H26V40H22V26H8V22H22V8H26Z" fill="white"/>
</svg>
