<svg width="48" height="48" viewBox="0 0 48 48" fill="none" xmlns="http://www.w3.org/2000/svg">
<path d="M11.2 6C9.82087 6 8.49823 6.54786 7.52304 7.52304C6.54786 8.49823 6 9.82087 6 11.2V16.8C6 18.1791 6.54786 19.5018 7.52304 20.477C8.49823 21.4521 9.82087 22 11.2 22H16.8C18.1791 22 19.5018 21.4521 20.477 20.477C21.4521 19.5018 22 18.1791 22 16.8V11.2C22 9.82087 21.4521 8.49823 20.477 7.52304C19.5018 6.54786 18.1791 6 16.8 6H11.2ZM11.2 26C9.82087 26 8.49823 26.5479 7.52304 27.523C6.54786 28.4982 6 29.8209 6 31.2V36.8C6 38.1791 6.54786 39.5018 7.52304 40.477C8.49823 41.4521 9.82087 42 11.2 42H16.8C17.4829 42 18.1591 41.8655 18.79 41.6042C19.4208 41.3428 19.9941 40.9598 20.477 40.477C20.9598 39.9941 21.3428 39.4208 21.6042 38.79C21.8655 38.1591 22 37.4829 22 36.8V31.2C22 29.8209 21.4521 28.4982 20.477 27.523C19.5018 26.5479 18.1791 26 16.8 26H11.2ZM31.2 6C29.8209 6 28.4982 6.54786 27.523 7.52304C26.5479 8.49823 26 9.82087 26 11.2V16.8C26 18.1791 26.5479 19.5018 27.523 20.477C28.4982 21.4521 29.8209 22 31.2 22H36.8C37.4829 22 38.1591 21.8655 38.79 21.6042C39.4208 21.3428 39.9941 20.9598 40.477 20.477C40.9598 19.9941 41.3428 19.4208 41.6042 18.79C41.8655 18.1591 42 17.4829 42 16.8V11.2C42 10.5171 41.8655 9.84094 41.6042 9.21005C41.3428 8.57915 40.9598 8.00591 40.477 7.52304C39.9941 7.04018 39.4208 6.65715 38.79 6.39583C38.1591 6.1345 37.4829 6 36.8 6H31.2ZM31.2 26C29.8209 26 28.4982 26.5479 27.523 27.523C26.5479 28.4982 26 29.8209 26 31.2V36.8C26 38.1791 26.5479 39.5018 27.523 40.477C28.4982 41.4521 29.8209 42 31.2 42H36.8C37.4829 42 38.1591 41.8655 38.79 41.6042C39.4208 41.3428 39.9941 40.9598 40.477 40.477C40.9598 39.9941 41.3428 39.4208 41.6042 38.79C41.8655 38.1591 42 37.4829 42 36.8V31.2C42 30.5171 41.8655 29.8409 41.6042 29.21C41.3428 28.5792 40.9598 28.0059 40.477 27.523C39.9941 27.0402 39.4208 26.6572 38.79 26.3958C38.1591 26.1345 37.4829 26 36.8 26H31.2Z" fill="white"/>
</svg>
