<svg width="48" height="48" viewBox="0 0 48 48" fill="none" xmlns="http://www.w3.org/2000/svg">
<path d="M26 12C26 11.4696 25.7893 10.9609 25.4142 10.5858C25.0391 10.2107 24.5304 10 24 10C23.4696 10 22.9609 10.2107 22.5858 10.5858C22.2107 10.9609 22 11.4696 22 12V22H12C11.4696 22 10.9609 22.2107 10.5858 22.5858C10.2107 22.9609 10 23.4696 10 24C10 24.5304 10.2107 25.0391 10.5858 25.4142C10.9609 25.7893 11.4696 26 12 26H22V36C22 36.5304 22.2107 37.0391 22.5858 37.4142C22.9609 37.7893 23.4696 38 24 38C24.5304 38 25.0391 37.7893 25.4142 37.4142C25.7893 37.0391 26 36.5304 26 36V26H36C36.5304 26 37.0391 25.7893 37.4142 25.4142C37.7893 25.0391 38 24.5304 38 24C38 23.4696 37.7893 22.9609 37.4142 22.5858C37.0391 22.2107 36.5304 22 36 22H26V12Z" fill="white"/>
</svg>
