<svg width="48" height="48" viewBox="0 0 48 48" fill="none" xmlns="http://www.w3.org/2000/svg">
<path d="M8 22C8.53043 22 9.03899 22.2109 9.41406 22.5859C9.78914 22.961 10 23.4696 10 24C10 25.8384 10.3619 27.6589 11.0654 29.3574C11.769 31.056 12.8006 32.5994 14.1006 33.8994C15.4006 35.1994 16.944 36.231 18.6426 36.9346C20.3411 37.6381 22.1616 38 24 38C25.8384 38 27.6589 37.6381 29.3574 36.9346C30.3924 36.5059 31.3688 35.9536 32.2686 35.2949L35.5156 37.834C32.8233 40.0754 29.5195 41.4962 26 41.8896V46C26 46.5304 25.7891 47.039 25.4141 47.4141C25.039 47.7891 24.5304 48 24 48C23.4696 48 22.961 47.7891 22.5859 47.4141C22.2109 47.039 22 46.5304 22 46V41.8896C17.5996 41.3977 13.5348 39.3014 10.583 36.001C7.63125 32.7005 5.99964 28.4278 6 24C6 23.4696 6.21086 22.961 6.58594 22.5859C6.96101 22.2109 7.46957 22 8 22ZM27.2188 31.3467C26.2366 31.7639 25.1495 32 24 32C19.538 32 16 28.4837 16 24.3438V22.5742L27.2188 31.3467ZM40 22C40.5304 22 41.039 22.2109 41.4141 22.5859C41.7891 22.961 42 23.4696 42 24C42.0002 26.3221 41.5498 28.6008 40.6973 30.7197L37.3779 28.124C37.7891 26.7903 38 25.4005 38 24C38 23.4696 38.2109 22.961 38.5859 22.5859C38.961 22.2109 39.4696 22 40 22ZM24 4C28.462 4 32 7.51625 32 11.6562V23.918L16.0059 11.4121C16.1415 7.37702 19.6259 4 24 4Z" fill="#A5A5A5"/>
<rect x="0.296143" y="6.19702" width="2.68327" height="58.2925" rx="1.34164" transform="rotate(-51.9772 0.296143 6.19702)" fill="white"/>
</svg>
