<svg width="48" height="48" viewBox="0 0 48 48" fill="none" xmlns="http://www.w3.org/2000/svg">
<path fill-rule="evenodd" clip-rule="evenodd" d="M24 4C19.538 4 16 7.514 16 11.656V24.344C16 28.484 19.538 32 24 32C28.462 32 32 28.484 32 24.344V11.656C32 7.516 28.462 4 24 4Z" fill="white"/>
<path d="M26 41.89V46C26 46.5304 25.7893 47.0391 25.4142 47.4142C25.0391 47.7893 24.5304 48 24 48C23.4696 48 22.9609 47.7893 22.5858 47.4142C22.2107 47.0391 22 46.5304 22 46V41.89C17.5996 41.398 13.5349 39.3014 10.5831 36.0009C7.63134 32.7005 5.99964 28.4278 6 24C6 23.4696 6.21071 22.9609 6.58579 22.5858C6.96086 22.2107 7.46957 22 8 22C8.53043 22 9.03914 22.2107 9.41421 22.5858C9.78929 22.9609 10 23.4696 10 24C10 25.8385 10.3621 27.659 11.0657 29.3576C11.7693 31.0561 12.8005 32.5995 14.1005 33.8995C15.4005 35.1995 16.9439 36.2307 18.6424 36.9343C20.341 37.6379 22.1615 38 24 38C25.8385 38 27.659 37.6379 29.3576 36.9343C31.0561 36.2307 32.5995 35.1995 33.8995 33.8995C35.1995 32.5995 36.2307 31.0561 36.9343 29.3576C37.6379 27.659 38 25.8385 38 24C38 23.4696 38.2107 22.9609 38.5858 22.5858C38.9609 22.2107 39.4696 22 40 22C40.5304 22 41.0391 22.2107 41.4142 22.5858C41.7893 22.9609 42 23.4696 42 24C42.0004 28.4278 40.3687 32.7005 37.4169 36.0009C34.4651 39.3014 30.4004 41.398 26 41.89Z" fill="white"/>
</svg>
