<svg width="48" height="48" viewBox="0 0 48 48" fill="none" xmlns="http://www.w3.org/2000/svg">
<path fill-rule="evenodd" clip-rule="evenodd" d="M20 23.066C20 21.374 21.374 20 23.066 20H24.934C26.626 20 28 21.374 28 23.066V24.934C28 26.626 26.626 28 24.934 28H23.066C22.2528 28 21.473 27.677 20.898 27.102C20.323 26.527 20 25.7472 20 24.934V23.066ZM20 37.066C20 35.372 21.374 34 23.066 34H24.934C26.626 34 28 35.372 28 37.066V38.934C28 40.628 26.626 42 24.934 42H23.066C22.2528 42 21.473 41.677 20.898 41.102C20.323 40.527 20 39.7472 20 38.934V37.066ZM20 9.066C20 7.372 21.374 6 23.066 6H24.934C26.626 6 28 7.374 28 9.066V10.934C28 12.628 26.626 14 24.934 14H23.066C22.6634 14 22.2647 13.9207 21.8927 13.7666C21.5207 13.6125 21.1827 13.3867 20.898 13.102C20.6133 12.8173 20.3875 12.4793 20.2334 12.1073C20.0793 11.7353 20 11.3366 20 10.934V9.066Z" fill="white"/>
</svg>
