<svg width="48" height="48" viewBox="0 0 48 48" fill="none" xmlns="http://www.w3.org/2000/svg">
<path d="M9.6 6H18.4C18.8243 6 19.2313 6.16857 19.5314 6.46863C19.8314 6.76869 20 7.17565 20 7.6V40.4C20 40.8243 19.8314 41.2313 19.5314 41.5314C19.2313 41.8314 18.8243 42 18.4 42H9.6C9.17565 42 8.76869 41.8314 8.46863 41.5314C8.16857 41.2313 8 40.8243 8 40.4V7.6C8 7.17565 8.16857 6.76869 8.46863 6.46863C8.76869 6.16857 9.17565 6 9.6 6ZM29.6 6H38.4C38.8243 6 39.2313 6.16857 39.5314 6.46863C39.8314 6.76869 40 7.17565 40 7.6V40.4C40 40.8243 39.8314 41.2313 39.5314 41.5314C39.2313 41.8314 38.8243 42 38.4 42H29.6C29.1757 42 28.7687 41.8314 28.4686 41.5314C28.1686 41.2313 28 40.8243 28 40.4V7.6C28 7.17565 28.1686 6.76869 28.4686 6.46863C28.7687 6.16857 29.1757 6 29.6 6Z" fill="white"/>
</svg>
