<svg width="48" height="48" viewBox="0 0 48 48" fill="none" xmlns="http://www.w3.org/2000/svg">
<path fill-rule="evenodd" clip-rule="evenodd" d="M18 4C15.7825 4 13.5967 4.52675 11.6227 5.53686C9.64863 6.54698 7.94275 8.01156 6.64553 9.81001C5.3483 11.6085 4.49684 13.6893 4.16125 15.8813C3.82566 18.0732 4.01555 20.3135 4.71528 22.4177C5.415 24.5219 6.60455 26.4298 8.18597 27.9842C9.76738 29.5387 11.6954 30.6953 13.8113 31.3587C15.9272 32.0222 18.1705 32.1735 20.3563 31.8003C22.5422 31.4271 24.6081 30.5399 26.384 29.212L40.584 43.414C40.959 43.7893 41.4677 44.0002 41.9983 44.0004C42.5288 44.0006 43.0377 43.79 43.413 43.415C43.7883 43.04 43.9992 42.5312 43.9994 42.0007C43.9996 41.4702 43.789 40.9613 43.414 40.586L29.214 26.386C30.7706 24.305 31.7174 21.8318 31.9482 19.2433C32.179 16.6548 31.6847 14.0532 30.5208 11.7296C29.3568 9.40607 27.5691 7.45236 25.3578 6.08721C23.1464 4.72205 20.5988 3.99935 18 4ZM7.99998 18C7.99998 15.3478 9.05355 12.8043 10.9289 10.9289C12.8043 9.05357 15.3478 8 18 8C20.6521 8 23.1957 9.05357 25.071 10.9289C26.9464 12.8043 28 15.3478 28 18C28 20.6522 26.9464 23.1957 25.071 25.0711C23.1957 26.9464 20.6521 28 18 28C15.3478 28 12.8043 26.9464 10.9289 25.0711C9.05355 23.1957 7.99998 20.6522 7.99998 18Z" fill="white"/>
</svg>
