<svg width="233" height="162" viewBox="0 0 233 162" fill="none" xmlns="http://www.w3.org/2000/svg">
<path d="M203.715 35.6172H227.164C228.798 35.6173 230.042 36.108 230.879 36.9717C231.718 37.8371 232.197 39.1277 232.197 40.8242V41.415C232.197 43.1115 231.718 44.4022 230.879 45.2676C230.042 46.1312 228.798 46.622 227.164 46.6221H226.591C224.617 46.6221 223.126 47.035 222.14 48.0527C221.157 49.0674 220.758 50.5976 220.758 52.6279V65.0215C220.758 66.7182 220.28 68.0096 219.442 68.875C218.605 69.7387 217.36 70.2285 215.725 70.2285H215.439C211.918 70.2287 209.321 72.9282 209.321 76.5303V98.5176C209.321 100.214 208.842 101.506 208.003 102.371C207.166 103.235 205.922 103.726 204.288 103.726H204.001C200.481 103.726 197.883 106.424 197.883 110.026V120.474C197.883 122.17 197.404 123.462 196.566 124.327C195.729 125.191 194.484 125.682 192.849 125.682H192.563C189.042 125.682 186.445 128.38 186.445 131.982V144.081C186.445 145.778 185.966 147.069 185.127 147.935C184.29 148.798 183.046 149.288 181.412 149.288H181.125C177.605 149.288 175.007 151.987 175.007 155.589V155.885C175.007 157.581 174.528 158.872 173.69 159.737C172.853 160.601 171.608 161.092 169.973 161.092H157.963C156.329 161.092 155.084 160.601 154.247 159.737C153.409 158.872 152.93 157.581 152.93 155.885V155.294L152.936 154.98C152.992 153.438 153.461 152.253 154.247 151.441C155.084 150.578 156.329 150.087 157.963 150.087H169.688C173.208 150.087 175.806 147.388 175.806 143.786V131.688C175.806 129.991 176.285 128.699 177.123 127.834C177.96 126.97 179.205 126.481 180.839 126.48H181.125C184.646 126.48 187.244 123.781 187.244 120.179V110.026C187.244 106.424 184.646 103.726 181.125 103.726H180.839C177.612 103.725 174.647 100.994 174.647 97.6904V75.6631C174.647 73.982 174.544 72.6071 173.952 71.6611C173.322 70.6564 172.217 70.2285 170.513 70.2285H169.402C167.795 70.2285 166.583 69.6318 165.765 68.6465C164.94 67.652 164.486 66.2242 164.486 64.5205V52.6279C164.486 50.5911 164.055 49.0607 163.04 48.0479C162.026 47.0352 160.51 46.6221 158.536 46.6221H157.963C156.328 46.622 155.113 46.1361 154.304 45.2812C153.492 44.4229 153.037 43.1369 153.037 41.4346V40.8447C153.037 39.1428 153.491 37.9215 154.295 37.124C155.1 36.3262 156.315 35.8917 157.963 35.8916H181.412C183.061 35.8916 184.306 36.3221 185.138 37.1191C185.967 37.9134 186.445 39.1284 186.445 40.8242V41.415C186.445 43.1682 186.194 44.3942 185.6 45.1816C185.027 45.9403 184.068 46.374 182.42 46.374H181.848C180.859 46.374 180.085 46.4927 179.49 46.7646C178.877 47.0448 178.476 47.4776 178.228 48.0469C177.988 48.5976 177.897 49.2647 177.859 50.0127C177.821 50.7616 177.836 51.6437 177.836 52.6279V64.0664C177.836 65.7648 177.955 67.4798 178.523 68.7793C178.811 69.4376 179.221 70.007 179.804 70.4092C180.389 70.8127 181.119 71.0273 182.007 71.0273H182.412C184.085 71.0274 184.902 71.3934 185.35 72.0439C185.585 72.3854 185.744 72.8406 185.842 73.4463C185.94 74.0522 185.973 74.7842 185.973 75.6631V97.9336C185.973 101.552 189.058 104.524 192.563 104.524C196.084 104.524 198.682 101.825 198.682 98.2227V76.2344C198.682 74.5379 199.161 73.2472 199.999 72.3818C200.836 71.5182 202.08 71.0274 203.715 71.0273H204.001C207.522 71.0273 210.119 68.3286 210.12 64.7266V52.6279C210.12 50.5977 209.722 49.0674 208.739 48.0527C207.753 47.035 206.261 46.6221 204.288 46.6221H203.715C202.081 46.6221 200.836 46.1312 199.999 45.2676C199.161 44.4022 198.682 43.1115 198.682 41.415V40.8242C198.682 39.1276 199.161 37.8371 199.999 36.9717C200.836 36.108 202.08 35.6172 203.715 35.6172Z" fill="black" stroke="white" stroke-width="0.799029"/>
<path d="M17.248 11.6803H17.832C19.5088 11.6803 20.7855 12.168 21.6426 13.025C22.4996 13.8821 22.9873 15.1588 22.9873 16.8356V29.7496C22.9873 31.7641 23.3953 33.2836 24.4014 34.2897C25.3446 35.2328 26.739 35.6503 28.5693 35.6989L28.9414 35.7037H28.9443L39.6201 35.6178C41.2884 35.6178 42.3209 36.1195 42.9551 36.9625C43.6077 37.8301 43.8974 39.1338 43.8975 40.858V41.443C43.8975 43.1649 43.5952 44.4445 42.9336 45.2897C42.2886 46.1135 41.2423 46.5983 39.5684 46.5983H28.9414C26.927 46.5983 25.4075 47.0062 24.4014 48.0123C23.3955 49.0184 22.9873 50.5372 22.9873 52.5514V98.9811C22.9873 102.513 25.6033 105.812 29.2334 105.812H40.9268C42.8076 105.812 44.2791 105 45.2715 103.755C46.2567 102.519 46.7607 100.871 46.7607 99.1881V98.6031C46.7607 95.3081 49.0483 92.9498 52.3281 92.9498H52.9121C54.565 92.9498 55.9148 93.5468 56.8525 94.5358C57.7923 95.527 58.3428 96.9378 58.3428 98.6031V99.1881C58.3427 100.848 57.7965 102.052 56.8809 102.845C55.9565 103.647 54.6033 104.076 52.9121 104.076H52.3281C50.5806 104.076 48.9853 104.965 47.8369 106.29C46.6881 107.615 45.9609 109.403 45.9609 111.259V111.551C45.9609 113.256 45.5758 114.25 44.874 114.839C44.1539 115.444 43.0059 115.71 41.2705 115.71H28.9932C27.2943 115.71 25.9262 115.313 24.9902 114.545C24.067 113.787 23.5108 112.624 23.5107 110.967V110.674C23.5107 108.906 22.9291 107.343 21.8789 106.218C20.8259 105.091 19.3244 104.428 17.54 104.428H17.248C15.5713 104.428 14.2945 103.941 13.4375 103.084C12.5806 102.227 12.0929 100.951 12.0928 99.274V51.9156C12.0928 49.9012 11.6848 48.3817 10.6787 47.3756C9.67262 46.3696 8.15308 45.9615 6.13867 45.9615H5.55469C3.87792 45.9615 2.60119 45.4739 1.74414 44.6168C0.887127 43.7598 0.399414 42.483 0.399414 40.8063V40.2223C0.399414 38.5455 0.887096 37.2688 1.74414 36.4117C2.60119 35.5547 3.87794 35.067 5.55469 35.067H6.13867C8.15312 35.067 9.67262 34.659 10.6787 33.653C11.6848 32.6469 12.0928 31.1274 12.0928 29.1129V16.8356C12.0928 15.1588 12.5805 13.8821 13.4375 13.025C14.2945 12.168 15.5713 11.6803 17.248 11.6803Z" fill="black" stroke="white" stroke-width="0.799029"/>
<path d="M63.471 0.351562H75.7484C77.4344 0.351562 78.7249 0.841811 79.5931 1.70996C80.4613 2.57815 80.9515 3.86867 80.9515 5.55469V5.84668C80.9515 9.4027 83.5938 12.0449 87.1497 12.0449H87.4417C89.1371 12.0449 90.503 12.4942 91.4398 13.3242C92.3701 14.1487 92.9202 15.3868 92.9203 17.0586V29.4404C92.9203 31.1995 93.4999 32.7028 94.5462 33.7676C95.5932 34.8329 97.0806 35.4316 98.8431 35.4316H99.1361C100.845 35.4317 101.945 35.8183 102.627 36.5498C103.315 37.287 103.651 38.4501 103.651 40.1709V75.6113C103.651 77.3249 103.297 78.914 102.547 80.0625C101.809 81.1934 100.679 81.915 99.0501 81.915H98.2249C96.4702 81.915 95.0615 82.4579 94.0941 83.4814C93.1296 84.502 92.6449 85.9564 92.6449 87.7002V98.8604C92.6449 100.546 92.1547 101.837 91.2865 102.705C90.4183 103.573 89.1277 104.063 87.4417 104.063H87.1497C83.5938 104.064 80.9515 106.706 80.9515 110.262V110.554C80.9515 112.24 80.4613 113.53 79.5931 114.398C78.7249 115.267 77.4344 115.757 75.7484 115.757H63.471C61.785 115.757 60.4945 115.267 59.6263 114.398C58.7582 113.53 58.2679 112.24 58.2679 110.554V110.262C58.2679 108.501 57.6741 106.981 56.6165 105.9C55.5582 104.819 54.0586 104.201 52.2933 104.201H52.0013C50.3208 104.201 48.9705 103.68 48.0423 102.771C47.1151 101.864 46.5746 100.537 46.5746 98.8604V87.7002C46.5744 84.1442 43.9323 81.502 40.3763 81.502H40.0843C38.3983 81.502 37.1078 81.0117 36.2396 80.1436C35.3715 79.2754 34.8813 77.9855 34.8812 76.2998V40.6348C34.8812 38.9906 35.5652 37.7376 36.6546 36.8877C37.7531 36.0307 39.2844 35.5693 40.9789 35.5693H41.2708C43.6087 35.5693 44.9887 34.8897 45.7474 33.6729C46.4782 32.5003 46.5746 30.9044 46.5746 29.2334V17.248C46.5746 15.562 47.0648 14.2715 47.933 13.4033C48.8011 12.5351 50.0917 12.0449 51.7777 12.0449H52.0697C55.6257 12.0449 58.2679 9.40274 58.2679 5.84668V5.55469C58.2679 3.86869 58.7581 2.57815 59.6263 1.70996C60.4945 0.841771 61.785 0.351562 63.471 0.351562ZM63.763 11.3418C60.207 11.3418 57.5648 13.984 57.5648 17.54V29.5254C57.5648 31.2114 57.0746 32.5019 56.2064 33.3701C55.3382 34.2383 54.0477 34.7285 52.3617 34.7285H52.0697C48.5137 34.7285 45.8715 37.3708 45.8714 40.9268V76.0068C45.8714 79.5629 48.5136 82.2051 52.0697 82.2051C55.6257 82.2051 58.2679 79.5629 58.2679 76.0068V64.0215C58.2679 62.3357 58.7584 61.0459 59.6263 60.1777C60.4945 59.3095 61.785 58.8184 63.471 58.8184H63.763C67.3191 58.8184 69.9613 56.1762 69.9613 52.6201V40.6348C69.9613 38.9487 70.4515 37.6582 71.3197 36.79C72.1879 35.9218 73.4784 35.4316 75.1644 35.4316H75.4564C79.0125 35.4316 81.6546 32.7895 81.6546 29.2334V17.54C81.6546 13.984 79.0124 11.3418 75.4564 11.3418H63.763ZM93.6234 75.6602L93.348 40.9238C93.3465 37.3693 90.7048 34.7285 87.1497 34.7285C83.5938 34.7286 80.9516 37.3708 80.9515 40.9268V52.9121C80.9515 54.5981 80.4613 55.8886 79.5931 56.7568C78.7249 57.625 77.4344 58.1152 75.7484 58.1152H75.4564C71.9394 58.1153 68.9838 60.5147 68.9837 64.1074V76.4893C68.9837 78.2058 68.6276 79.3298 67.9251 80.0322C67.2226 80.7345 66.0987 81.0898 64.3822 81.0898H63.557C61.7581 81.0899 60.4469 81.8729 59.599 83.1113C58.7622 84.3335 58.39 85.976 58.39 87.7002V98.5684C58.39 102.124 61.0323 104.766 64.5882 104.767H75.4564C79.0125 104.767 81.6546 102.124 81.6546 98.5684V87.4082C81.6546 85.7222 82.1458 84.4326 83.014 83.5645C83.8822 82.6963 85.1718 82.2051 86.8578 82.2051H87.1497C90.7109 82.2051 93.6234 79.2141 93.6234 75.6631V75.6602Z" fill="black" stroke="white" stroke-width="0.70332"/>
<path d="M104.25 106.83H103.755C102.395 106.83 101.311 107.212 100.571 107.883C99.8354 108.55 99.4012 109.536 99.4012 110.825V112.036C99.4012 113.333 99.8082 114.318 100.526 114.981C101.248 115.648 102.33 116.032 103.755 116.032H104.25C105.675 116.032 106.756 115.648 107.478 114.981C108.196 114.318 108.603 113.333 108.603 112.036V110.825C108.603 109.589 107.949 108.596 107.057 107.899C106.215 107.242 105.194 106.878 104.405 106.835L104.25 106.83Z" fill="#FF80DF" stroke="#161515" stroke-width="0.70332"/>
<mask id="path-5-inside-1_558_334" fill="white">
<path d="M113.33 3.85205C116.301 3.85208 118.035 5.61709 118.035 8.64209V52.1216C118.042 48.6915 120.063 46.6911 123.523 46.6909H123.812C127.134 46.6909 129.59 44.2531 129.59 40.9546V40.6675C129.59 37.2256 131.613 35.2173 135.08 35.2173H147.212C150.679 35.2173 152.702 37.2256 152.702 40.6675V40.9546C152.702 44.2531 155.158 46.6909 158.48 46.6909H159.594C163.061 46.691 165.084 48.9053 165.084 52.3472V52.5513C165.084 55.8498 166.321 58.3296 170.036 58.3296H170.325C173.791 58.3297 174.988 59.84 174.988 63.2817V88.0444C174.988 91.4863 173.791 93.8226 170.325 93.8228H170.036C166.714 93.8228 164.258 96.5078 164.257 99.8062V100.011C164.257 103.453 162.235 105.378 158.769 105.378H158.48C155.158 105.378 152.702 107.073 152.702 110.372V110.659C152.702 114.101 150.679 116.109 147.212 116.109H135.08C131.613 116.109 129.59 114.101 129.59 110.659V110.372C129.59 107.073 127.134 105.378 123.812 105.378H123.523C120.057 105.378 118.035 103.453 118.035 100.011V99.8062C118.035 99.3819 117.993 98.972 117.915 98.5796C117.477 100.808 115.848 102.077 113.33 102.077H112.835C109.863 102.077 108.129 100.312 108.129 97.2866V8.64209C108.129 5.61706 109.863 3.85205 112.835 3.85205H113.33ZM135.368 46.7739C132.046 46.7741 129.591 49.129 129.59 52.4272V52.6323C129.59 56.0741 127.568 58.0815 124.101 58.0815H123.812C120.49 58.0817 118.035 60.5204 118.035 63.8188V88.3335C118.035 91.6319 120.49 94.0697 123.812 94.0698H124.101C127.568 94.0698 129.59 96.078 129.59 99.52V99.7241C129.59 103.022 132.046 105.46 135.368 105.46H146.924C150.246 105.46 152.702 103.023 152.702 99.7241V99.52C152.702 96.078 154.724 93.8228 158.191 93.8228H158.48C161.802 93.8227 164.257 91.6319 164.257 88.3335V63.2817C164.257 59.9834 161.802 58.0816 158.48 58.0815C155.013 58.0815 152.702 55.9933 152.702 52.5513C152.702 49.2528 150.246 46.7739 146.923 46.7739H135.368Z"/>
</mask>
<path d="M113.33 3.85205C116.301 3.85208 118.035 5.61709 118.035 8.64209V52.1216C118.042 48.6915 120.063 46.6911 123.523 46.6909H123.812C127.134 46.6909 129.59 44.2531 129.59 40.9546V40.6675C129.59 37.2256 131.613 35.2173 135.08 35.2173H147.212C150.679 35.2173 152.702 37.2256 152.702 40.6675V40.9546C152.702 44.2531 155.158 46.6909 158.48 46.6909H159.594C163.061 46.691 165.084 48.9053 165.084 52.3472V52.5513C165.084 55.8498 166.321 58.3296 170.036 58.3296H170.325C173.791 58.3297 174.988 59.84 174.988 63.2817V88.0444C174.988 91.4863 173.791 93.8226 170.325 93.8228H170.036C166.714 93.8228 164.258 96.5078 164.257 99.8062V100.011C164.257 103.453 162.235 105.378 158.769 105.378H158.48C155.158 105.378 152.702 107.073 152.702 110.372V110.659C152.702 114.101 150.679 116.109 147.212 116.109H135.08C131.613 116.109 129.59 114.101 129.59 110.659V110.372C129.59 107.073 127.134 105.378 123.812 105.378H123.523C120.057 105.378 118.035 103.453 118.035 100.011V99.8062C118.035 99.3819 117.993 98.972 117.915 98.5796C117.477 100.808 115.848 102.077 113.33 102.077H112.835C109.863 102.077 108.129 100.312 108.129 97.2866V8.64209C108.129 5.61706 109.863 3.85205 112.835 3.85205H113.33ZM135.368 46.7739C132.046 46.7741 129.591 49.129 129.59 52.4272V52.6323C129.59 56.0741 127.568 58.0815 124.101 58.0815H123.812C120.49 58.0817 118.035 60.5204 118.035 63.8188V88.3335C118.035 91.6319 120.49 94.0697 123.812 94.0698H124.101C127.568 94.0698 129.59 96.078 129.59 99.52V99.7241C129.59 103.022 132.046 105.46 135.368 105.46H146.924C150.246 105.46 152.702 103.023 152.702 99.7241V99.52C152.702 96.078 154.724 93.8228 158.191 93.8228H158.48C161.802 93.8227 164.257 91.6319 164.257 88.3335V63.2817C164.257 59.9834 161.802 58.0816 158.48 58.0815C155.013 58.0815 152.702 55.9933 152.702 52.5513C152.702 49.2528 150.246 46.7739 146.923 46.7739H135.368Z" fill="black"/>
<path d="M113.33 3.85205L113.33 3.14873H113.33V3.85205ZM118.035 52.1216H117.331L118.738 52.1231L118.035 52.1216ZM123.523 46.6909L123.523 45.9876L123.523 45.9876L123.523 46.6909ZM129.59 40.9546L130.294 40.9546V40.9546H129.59ZM129.59 40.6675L128.887 40.6675V40.6675H129.59ZM152.702 40.6675L153.405 40.6675L153.405 40.6675L152.702 40.6675ZM152.702 40.9546L151.998 40.9546L151.998 40.9546L152.702 40.9546ZM159.594 46.6909L159.594 45.9876H159.594V46.6909ZM165.084 52.3472L165.787 52.3472L165.787 52.3472L165.084 52.3472ZM170.325 58.3296L170.325 57.6263H170.325V58.3296ZM174.988 63.2817L175.691 63.2817L175.691 63.2817L174.988 63.2817ZM174.988 88.0444L175.691 88.0444V88.0444H174.988ZM170.325 93.8228L170.325 94.5261L170.325 94.5261L170.325 93.8228ZM164.257 99.8062L163.554 99.8061V99.8062H164.257ZM164.257 100.011L164.961 100.011V100.011H164.257ZM158.769 105.378L158.769 106.082L158.769 106.082L158.769 105.378ZM152.702 110.372L151.998 110.372V110.372H152.702ZM129.59 110.372L130.294 110.372L130.294 110.372L129.59 110.372ZM123.523 105.378L123.523 106.082H123.523V105.378ZM118.035 100.011L117.331 100.011L117.331 100.011L118.035 100.011ZM118.035 99.8062L118.738 99.8062L118.738 99.8061L118.035 99.8062ZM117.915 98.5796L118.604 98.4427L117.224 98.444L117.915 98.5796ZM113.33 102.077L113.33 102.78L113.33 102.78L113.33 102.077ZM135.368 46.7739L135.368 46.0706L135.368 46.0706L135.368 46.7739ZM129.59 52.4272L128.887 52.4272V52.4272H129.59ZM129.59 52.6323L130.294 52.6324V52.6323H129.59ZM123.812 58.0815L123.812 57.3782L123.812 57.3782L123.812 58.0815ZM118.035 88.3335L117.331 88.3335L117.331 88.3335L118.035 88.3335ZM123.812 94.0698L123.812 94.7731H123.812V94.0698ZM129.59 99.7241L128.887 99.7241L128.887 99.7241L129.59 99.7241ZM135.368 105.46L135.368 106.164H135.368V105.46ZM146.924 105.46L146.924 106.164L146.924 106.164L146.924 105.46ZM152.702 99.7241L153.405 99.7241V99.7241H152.702ZM158.48 93.8228L158.48 94.5261L158.48 94.5261L158.48 93.8228ZM164.257 88.3335L164.961 88.3335V88.3335H164.257ZM164.257 63.2817L164.961 63.2817L164.961 63.2817L164.257 63.2817ZM158.48 58.0815L158.48 57.3782L158.48 57.3782L158.48 58.0815ZM152.702 52.5513L153.405 52.5513L153.405 52.5512L152.702 52.5513ZM113.33 3.85205L113.33 4.55537C114.676 4.55538 115.653 4.95223 116.295 5.60556C116.938 6.26058 117.331 7.26213 117.331 8.64209H118.035H118.738C118.738 6.99705 118.265 5.60359 117.298 4.61986C116.33 3.63442 114.955 3.14875 113.33 3.14873L113.33 3.85205ZM118.035 8.64209H117.331V52.1216H118.035H118.738V8.64209H118.035ZM118.035 52.1216L118.738 52.1231C118.742 50.5457 119.205 49.3858 119.979 48.62C120.754 47.8533 121.927 47.3943 123.523 47.3942L123.523 46.6909L123.523 45.9876C121.659 45.9877 120.092 46.529 118.989 47.6201C117.886 48.712 117.335 50.2674 117.331 52.12L118.035 52.1216ZM123.523 46.6909V47.3942H123.812V46.6909V45.9876H123.523V46.6909ZM123.812 46.6909V47.3942C127.518 47.3942 130.294 44.6463 130.294 40.9546L129.59 40.9546L128.887 40.9546C128.887 43.8598 126.751 45.9876 123.812 45.9876V46.6909ZM129.59 40.9546H130.294V40.6675H129.59H128.887V40.9546H129.59ZM129.59 40.6675L130.294 40.6675C130.294 39.0839 130.756 37.9195 131.531 37.1508C132.306 36.3813 133.481 35.9206 135.08 35.9206V35.2173V34.514C133.212 34.514 131.642 35.0574 130.539 36.1526C129.436 37.2484 128.887 38.8091 128.887 40.6675L129.59 40.6675ZM135.08 35.2173V35.9206H147.212V35.2173V34.514H135.08V35.2173ZM147.212 35.2173V35.9206C148.811 35.9206 149.987 36.3813 150.762 37.1508C151.536 37.9195 151.998 39.0839 151.998 40.6675L152.702 40.6675L153.405 40.6675C153.405 38.8091 152.856 37.2484 151.753 36.1526C150.65 35.0574 149.08 34.514 147.212 34.514V35.2173ZM152.702 40.6675H151.998V40.9546H152.702H153.405V40.6675H152.702ZM152.702 40.9546L151.998 40.9546C151.998 44.6463 154.774 47.3942 158.48 47.3942V46.6909V45.9876C155.541 45.9876 153.405 43.8598 153.405 40.9546L152.702 40.9546ZM158.48 46.6909V47.3942H159.594V46.6909V45.9876H158.48V46.6909ZM159.594 46.6909L159.594 47.3942C161.174 47.3943 162.348 47.8946 163.13 48.714C163.916 49.5378 164.38 50.7623 164.38 52.3472L165.084 52.3472L165.787 52.3472C165.787 50.4902 165.239 48.8866 164.148 47.7428C163.052 46.5945 161.482 45.9876 159.594 45.9876L159.594 46.6909ZM165.084 52.3472H164.38V52.5513H165.084H165.787V52.3472H165.084ZM165.084 52.5513H164.38C164.38 54.2683 164.699 55.8917 165.604 57.0992C166.538 58.3449 168.007 59.0329 170.036 59.0329V58.3296V57.6263C168.35 57.6263 167.343 57.0744 166.73 56.2556C166.087 55.3986 165.787 54.1328 165.787 52.5513H165.084ZM170.036 58.3296V59.0329H170.325V58.3296V57.6263H170.036V58.3296ZM170.325 58.3296L170.325 59.0329C171.976 59.0329 172.898 59.3952 173.435 59.9874C173.988 60.5967 174.285 61.6115 174.285 63.2817L174.988 63.2817L175.691 63.2817C175.691 61.5102 175.39 60.049 174.477 59.0426C173.549 58.0192 172.14 57.6263 170.325 57.6263L170.325 58.3296ZM174.988 63.2817H174.285V88.0444H174.988H175.691V63.2817H174.988ZM174.988 88.0444L174.285 88.0444C174.285 89.7065 173.991 90.9742 173.386 91.8125C172.813 92.6065 171.882 93.1194 170.325 93.1194L170.325 93.8228L170.325 94.5261C172.234 94.526 173.635 93.8707 174.526 92.636C175.386 91.4456 175.691 89.8242 175.691 88.0444L174.988 88.0444ZM170.325 93.8228V93.1194H170.036V93.8228V94.5261H170.325V93.8228ZM170.036 93.8228V93.1194C166.291 93.1194 163.554 96.1538 163.554 99.8061L164.257 99.8062L164.961 99.8062C164.961 96.8617 167.136 94.5261 170.036 94.5261V93.8228ZM164.257 99.8062H163.554V100.011H164.257H164.961V99.8062H164.257ZM164.257 100.011L163.554 100.011C163.554 101.594 163.092 102.734 162.323 103.481C161.551 104.231 160.375 104.675 158.769 104.675L158.769 105.378L158.769 106.082C160.629 106.082 162.198 105.563 163.303 104.49C164.412 103.414 164.961 101.87 164.961 100.011L164.257 100.011ZM158.769 105.378V104.675H158.48V105.378V106.082H158.769V105.378ZM158.48 105.378V104.675C156.708 104.675 155.091 105.126 153.902 106.092C152.693 107.074 151.998 108.531 151.998 110.372L152.702 110.372L153.405 110.372C153.405 108.914 153.939 107.874 154.789 107.184C155.658 106.478 156.929 106.082 158.48 106.082V105.378ZM152.702 110.372H151.998V110.659H152.702H153.405V110.372H152.702ZM152.702 110.659H151.998C151.998 112.242 151.536 113.407 150.762 114.175C149.987 114.945 148.811 115.406 147.212 115.406V116.109V116.812C149.08 116.812 150.65 116.269 151.753 115.174C152.856 114.078 153.405 112.517 153.405 110.659H152.702ZM147.212 116.109V115.406H135.08V116.109V116.812H147.212V116.109ZM135.08 116.109V115.406C133.481 115.406 132.305 114.945 131.531 114.175C130.756 113.407 130.294 112.242 130.294 110.659H129.59H128.887C128.887 112.517 129.436 114.078 130.539 115.174C131.642 116.269 133.212 116.812 135.08 116.812V116.109ZM129.59 110.659H130.294V110.372H129.59H128.887V110.659H129.59ZM129.59 110.372L130.294 110.372C130.294 108.531 129.599 107.074 128.39 106.092C127.201 105.126 125.584 104.675 123.812 104.675V105.378V106.082C125.363 106.082 126.634 106.478 127.504 107.184C128.354 107.874 128.887 108.914 128.887 110.372L129.59 110.372ZM123.812 105.378V104.675H123.523V105.378V106.082H123.812V105.378ZM123.523 105.378L123.523 104.675C121.917 104.675 120.741 104.231 119.969 103.481C119.2 102.734 118.738 101.594 118.738 100.011L118.035 100.011L117.331 100.011C117.331 101.87 117.881 103.413 118.989 104.49C120.095 105.563 121.663 106.082 123.523 106.082L123.523 105.378ZM118.035 100.011H118.738V99.8062H118.035H117.331V100.011H118.035ZM118.035 99.8062L118.738 99.8061C118.738 99.3351 118.691 98.8794 118.604 98.4427L117.915 98.5796L117.225 98.7165C117.294 99.0647 117.331 99.4287 117.331 99.8062L118.035 99.8062ZM117.915 98.5796L117.224 98.444C117.034 99.4155 116.596 100.129 115.974 100.606C115.348 101.087 114.472 101.373 113.33 101.373L113.33 102.077L113.33 102.78C114.706 102.78 115.904 102.433 116.83 101.722C117.762 101.007 118.358 99.9724 118.605 98.7152L117.915 98.5796ZM113.33 102.077V101.373H112.835V102.077V102.78H113.33V102.077ZM112.835 102.077V101.373C111.488 101.373 110.511 100.976 109.869 100.323C109.226 99.6682 108.833 98.6666 108.833 97.2866H108.129H107.426C107.426 98.9317 107.9 100.325 108.866 101.309C109.834 102.294 111.209 102.78 112.835 102.78V102.077ZM108.129 97.2866H108.833V8.64209H108.129H107.426V97.2866H108.129ZM108.129 8.64209H108.833C108.833 7.26211 109.226 6.26056 109.869 5.60553C110.511 4.95221 111.488 4.55537 112.835 4.55537V3.85205V3.14873C111.209 3.14873 109.834 3.63439 108.866 4.61984C107.9 5.60358 107.426 6.99704 107.426 8.64209H108.129ZM112.835 3.85205V4.55537H113.33V3.85205V3.14873H112.835V3.85205ZM135.368 46.7739L135.368 46.0706C131.676 46.0708 128.887 48.7224 128.887 52.4272L129.59 52.4272L130.294 52.4273C130.294 49.5356 132.416 47.4774 135.368 47.4772L135.368 46.7739ZM129.59 52.4272H128.887V52.6323H129.59H130.294V52.4272H129.59ZM129.59 52.6323L128.887 52.6323C128.887 54.2158 128.424 55.3799 127.65 56.1484C126.875 56.9177 125.7 57.3782 124.101 57.3782V58.0815V58.7849C125.969 58.7849 127.538 58.2417 128.641 57.1467C129.745 56.0511 130.294 54.4907 130.294 52.6324L129.59 52.6323ZM124.101 58.0815V57.3782H123.812V58.0815V58.7849H124.101V58.0815ZM123.812 58.0815L123.812 57.3782C120.106 57.3784 117.331 60.1274 117.331 63.8188H118.035H118.738C118.738 60.9134 120.874 58.785 123.812 58.7849L123.812 58.0815ZM118.035 63.8188H117.331V88.3335H118.035H118.738V63.8188H118.035ZM118.035 88.3335L117.331 88.3335C117.332 92.025 120.106 94.773 123.812 94.7731L123.812 94.0698L123.812 93.3665C120.874 93.3664 118.738 91.2387 118.738 88.3335L118.035 88.3335ZM123.812 94.0698V94.7731H124.101V94.0698V93.3665H123.812V94.0698ZM124.101 94.0698V94.7731C125.7 94.7731 126.875 95.2338 127.65 96.0033C128.425 96.772 128.887 97.9364 128.887 99.52H129.59H130.294C130.294 97.6616 129.745 96.1009 128.641 95.0051C127.538 93.9099 125.969 93.3665 124.101 93.3665V94.0698ZM129.59 99.52H128.887V99.7241H129.59H130.294V99.52H129.59ZM129.59 99.7241L128.887 99.7241C128.887 103.416 131.662 106.164 135.368 106.164L135.368 105.46L135.368 104.757C132.429 104.757 130.294 102.629 130.294 99.7241L129.59 99.7241ZM135.368 105.46V106.164H146.924V105.46V104.757H135.368V105.46ZM146.924 105.46L146.924 106.164C150.63 106.164 153.405 103.416 153.405 99.7241L152.702 99.7241L151.998 99.7241C151.998 102.629 149.863 104.757 146.924 104.757L146.924 105.46ZM152.702 99.7241H153.405V99.52H152.702H151.998V99.7241H152.702ZM152.702 99.52H153.405C153.405 97.9348 153.869 96.6984 154.658 95.8636C155.441 95.0342 156.615 94.5261 158.191 94.5261V93.8228V93.1194C156.3 93.1194 154.73 93.739 153.635 94.8977C152.546 96.051 151.998 97.6633 151.998 99.52H152.702ZM158.191 93.8228V94.5261H158.48V93.8228V93.1194H158.191V93.8228ZM158.48 93.8228L158.48 94.5261C160.296 94.526 161.919 93.9257 163.094 92.8293C164.274 91.7286 164.961 90.1662 164.961 88.3335L164.257 88.3335L163.554 88.3335C163.554 89.7992 163.013 90.9814 162.135 91.8007C161.252 92.6243 159.986 93.1194 158.48 93.1194L158.48 93.8228ZM164.257 88.3335H164.961V63.2817H164.257H163.554V88.3335H164.257ZM164.257 63.2817L164.961 63.2817C164.961 61.4443 164.27 59.9439 163.074 58.9122C161.89 57.891 160.27 57.3783 158.48 57.3782L158.48 58.0815L158.48 58.7849C160.012 58.7849 161.281 59.223 162.155 59.9773C163.017 60.7211 163.554 61.8207 163.554 63.2818L164.257 63.2817ZM158.48 58.0815L158.48 57.3782C156.887 57.3782 155.628 56.9001 154.773 56.0951C153.923 55.295 153.405 54.1085 153.405 52.5513L152.702 52.5513L151.998 52.5513C151.998 54.436 152.636 56.0146 153.809 57.1192C154.976 58.2188 156.607 58.7849 158.48 58.7849L158.48 58.0815ZM152.702 52.5513L153.405 52.5512C153.405 48.8662 150.636 46.0706 146.923 46.0706V46.7739V47.4772C149.855 47.4772 151.998 49.6395 151.998 52.5513L152.702 52.5513ZM146.923 46.7739V46.0706H135.368V46.7739V47.4772H146.923V46.7739Z" fill="white" mask="url(#path-5-inside-1_558_334)"/>
</svg>
