<svg width="384" height="243" viewBox="0 0 384 243" fill="none" xmlns="http://www.w3.org/2000/svg">
<path d="M135.896 36.833H147.771C149.746 36.833 151.287 37.6354 152.343 38.9209C153.407 40.2162 154 42.0303 154 44.0625V44.416C154 46.5676 155.041 49.9236 156.575 52.7256C157.346 54.1335 158.258 55.4342 159.256 56.3896C160.246 57.3379 161.379 58 162.583 58H162.938C164.979 58.0001 166.613 58.5401 167.73 59.5303C168.839 60.5128 169.5 61.9913 169.5 64V64.0312L169.504 64.0625L170.5 72.0342C170.505 74.0976 170.931 75.5025 172.047 76.3428C173.124 77.1538 174.724 77.333 176.75 77.333H177.104C178.087 77.333 178.824 77.5584 179.387 77.9287C179.95 78.2998 180.375 78.8409 180.691 79.5312C181.335 80.9343 181.5 82.8786 181.5 85V127.938C181.5 130.01 181.071 132.963 180.128 135.381C179.657 136.59 179.068 137.634 178.368 138.368C177.675 139.095 176.892 139.5 176 139.5H175C173.127 139.5 171.802 139.942 170.881 140.769C169.966 141.59 169.526 142.726 169.279 143.951C169.034 145.169 168.966 146.561 168.856 147.92C168.746 149.301 168.592 150.676 168.189 151.953L168.166 152.027V152.104C168.166 154.132 167.577 155.674 166.542 156.709C165.507 157.743 163.966 158.333 161.938 158.333H161.583C160.392 158.333 159.323 158.919 158.413 159.786C157.503 160.654 156.714 161.836 156.067 163.123C154.778 165.69 154 168.787 154 170.916V171.271C154 173.355 153.633 174.901 152.835 175.921C152.057 176.914 150.795 177.5 148.771 177.5H133.896C131.867 177.5 130.326 176.91 129.291 175.875C128.256 174.84 127.666 173.299 127.666 171.271V170.916C127.666 168.862 127.481 166.073 126.765 163.781C126.061 161.529 124.75 159.5 122.354 159.5H122C119.798 159.5 118.161 158.953 116.918 158.068C115.671 157.181 114.782 155.925 114.125 154.442C112.802 151.455 112.473 147.692 111.998 144.454C111.974 141.666 109.723 139.5 106.5 139.5C105.131 139.5 103.867 139.003 102.933 137.833C101.987 136.649 101.333 134.718 101.333 131.771V82.5625C101.333 81.505 101.368 80.6596 101.48 79.9814C101.592 79.3048 101.774 78.8335 102.039 78.4951C102.552 77.8387 103.527 77.5 105.646 77.5H106C108.811 77.5 110.474 76.8629 111.423 75.8779C112.363 74.9013 112.496 73.6877 112.499 72.7793L113.497 63.2812L113.5 63.2549V63.2285C113.5 61.3023 114.508 59.7602 116.057 58.6807C117.613 57.5955 119.692 57.0001 121.729 57H122.083C123.314 57 124.274 56.3097 124.998 55.3242C125.717 54.3452 126.246 53.0248 126.634 51.6182C127.411 48.7993 127.666 45.4804 127.666 43.416V43.0625C127.666 41.1362 128.674 39.5933 130.223 38.5137C131.779 37.4284 133.859 36.833 135.896 36.833ZM134.5 56C132.373 56 131.182 56.506 130.298 57.4365C129.877 57.8801 129.542 58.4036 129.211 58.9473C128.874 59.5007 128.538 60.0839 128.093 60.7109L128.029 60.7998L128.009 60.9082L126.675 68.0117L126.664 68.0703L126.667 68.1299C126.828 71.223 125.987 73.2486 124.675 74.5059C123.353 75.7724 121.478 76.3329 119.438 76.333H119.083C116.763 76.333 115.111 78.0484 114.067 80.123C113.016 82.213 112.5 84.812 112.5 86.916V132.416C112.5 134.653 113.865 136.801 115.688 138.365C117.515 139.933 119.897 141 122.083 141C123.274 141 124.343 140.414 125.253 139.547C126.163 138.679 126.952 137.497 127.599 136.21C128.888 133.643 129.666 130.545 129.666 128.416V113.896C129.666 111.867 130.256 110.326 131.291 109.291C132.326 108.256 133.867 107.666 135.896 107.666H136.25C140.599 107.666 143.833 104.432 143.833 100.083V85.5625C143.833 83.5342 144.422 81.9916 145.457 80.957C146.492 79.9224 148.034 79.333 150.062 79.333H150.416C151.493 79.333 152.356 79.1348 153.031 78.7275C153.714 78.3158 154.16 77.7177 154.448 77.0068C154.732 76.3061 154.866 75.4883 154.933 74.6123C154.999 73.735 155 72.7635 155 71.75V64.583C155 62.4439 154.304 60.3128 153.058 58.707C151.807 57.0951 149.987 56 147.771 56H134.5ZM169.5 127.996L169.166 85.9121C169.166 83.852 168.913 81.7381 168.099 80.1221C167.688 79.3063 167.126 78.6032 166.37 78.1055C165.612 77.6061 164.687 77.333 163.583 77.333C161.355 77.333 159.689 78.4405 158.599 80.0693C157.519 81.6824 157 83.8066 157 85.916V100.438C157 102.466 156.41 104.007 155.375 105.042C154.34 106.076 152.799 106.666 150.771 106.666H150.416C146.123 106.666 142.5 109.599 142.5 114V129C142.5 131.072 142.071 132.41 141.24 133.24C140.41 134.071 139.072 134.5 137 134.5H136C133.74 134.5 131.652 136.016 130.159 137.96C128.66 139.912 127.666 142.412 127.666 144.583V151.75C127.666 153.847 128.118 155.665 129.166 156.966C130.229 158.286 131.846 159 134 159H150.037C150.648 159.088 151.291 158.921 151.889 158.599C152.51 158.263 153.116 157.744 153.646 157.093C154.697 155.8 155.485 153.94 155.498 151.805L156.99 144.326L157 144.278V144.229C157 143.185 157.092 142.494 157.28 142C157.459 141.531 157.731 141.216 158.163 140.942C158.619 140.653 159.242 140.415 160.124 140.114C160.971 139.826 162.034 139.486 163.317 139H163.583C165.941 139 167.418 137.13 168.283 134.963C169.159 132.771 169.5 130.078 169.5 128V127.996Z" fill="black" stroke="white"/>
<path d="M310.011 80.5H338.418C340.395 80.5 341.899 81.0932 342.909 82.1357C343.921 83.1805 344.5 84.7406 344.5 86.793V87.5078C344.5 89.5603 343.922 91.1203 342.909 92.165C341.899 93.2076 340.395 93.7998 338.418 93.7998H337.725C335.332 93.7999 333.52 94.3008 332.321 95.5381C331.126 96.7718 330.643 98.6314 330.643 101.093V116.107C330.643 118.16 330.064 119.72 329.052 120.765C328.041 121.807 326.538 122.4 324.561 122.4H324.214C319.939 122.401 316.786 125.678 316.786 130.05V144.707C316.786 146.76 316.207 148.32 315.194 149.364C314.184 150.407 312.681 151 310.703 151H310.357C306.083 151 302.929 154.278 302.929 158.65V171.308C302.929 173.36 302.349 174.92 301.337 175.965C300.327 177.007 298.824 177.6 296.847 177.6H296.5C292.225 177.6 289.071 180.878 289.071 185.25V199.907C289.071 201.96 288.493 203.52 287.48 204.564C286.47 205.607 284.967 206.2 282.989 206.2H282.643C278.368 206.2 275.214 209.477 275.214 213.85V214.207C275.214 216.26 274.635 217.82 273.623 218.864C272.613 219.907 271.109 220.5 269.132 220.5H254.582C252.605 220.5 251.101 219.907 250.091 218.864C249.079 217.82 248.5 216.259 248.5 214.207V213.492C248.5 211.44 249.079 209.881 250.091 208.836C251.101 207.793 252.605 207.2 254.582 207.2H268.786C273.061 207.2 276.214 203.922 276.214 199.55V184.893C276.214 182.84 276.793 181.28 277.806 180.235C278.816 179.193 280.32 178.6 282.297 178.6H282.643C286.917 178.6 290.071 175.323 290.071 170.95V158.65C290.071 154.278 286.917 151 282.643 151H282.297C278.428 151 275.5 148.026 275.5 144V130C275.5 127.859 274.92 125.96 273.771 124.587C272.613 123.204 270.914 122.4 268.786 122.4H268.439C264.549 122.4 261.5 119.505 261.5 115.5V101.093C261.5 98.6807 261.248 96.822 260.287 95.5801C259.296 94.2989 257.664 93.7999 255.275 93.7998H254.582C252.604 93.7998 251.137 93.2125 250.16 92.1807C249.18 91.1446 248.629 89.5918 248.629 87.5322V86.8174C248.629 84.7584 249.179 83.2835 250.148 82.3213C251.119 81.3583 252.587 80.8321 254.582 80.832H282.989C284.985 80.832 286.489 81.3527 287.493 82.3145C288.493 83.2728 289.071 84.7412 289.071 86.793V87.5078C289.071 89.5599 288.496 91.0364 287.497 92.0029C286.495 92.9722 284.994 93.5 283 93.5H282.308C279.896 93.5 278.083 94.0848 276.887 95.4004C275.7 96.7053 275.214 98.6295 275.214 101.093L275.215 101.103L275.5 115.011C275.504 119.266 278.131 123.4 282.5 123.4H282.989C285.008 123.4 286.351 123.841 287.199 124.693C288.048 125.547 288.5 126.914 288.5 129V144C288.5 148.393 292.245 152 296.5 152C300.775 152 303.929 148.722 303.929 144.35V129.692C303.929 127.64 304.507 126.08 305.52 125.035C306.53 123.993 308.033 123.4 310.011 123.4H310.357C314.632 123.4 317.786 120.122 317.786 115.75V101.093C317.786 98.6314 317.303 96.7718 316.107 95.5381C314.908 94.3007 313.096 93.7998 310.703 93.7998H310.011C308.033 93.7998 306.53 93.2076 305.52 92.165C304.507 91.1203 303.929 89.5603 303.929 87.5078V86.793C303.929 84.7405 304.507 83.1805 305.52 82.1357C306.53 81.0931 308.033 80.5 310.011 80.5Z" fill="black" stroke="white"/>
<path d="M59.8955 51.5H60.6045C62.6326 51.5001 64.1744 52.0896 65.209 53.124C66.2436 54.1586 66.833 55.7012 66.833 57.7295V73.375C66.833 75.8172 67.3284 77.6624 68.5518 78.8857C69.6986 80.0326 71.3919 80.5398 73.6113 80.5986L74.0625 80.6045H74.0664L87.001 80.5C89.0181 80.5002 90.263 81.1072 91.0273 82.123C91.8148 83.1699 92.167 84.7453 92.167 86.833V87.542C92.167 89.6265 91.8001 91.1717 91.002 92.1914C90.2245 93.1846 88.9625 93.7705 86.9375 93.7705H74.0625C71.6203 93.7705 69.7751 94.2659 68.5518 95.4893C67.3284 96.7126 66.833 98.5578 66.833 101V157.25C66.833 161.535 70.0083 165.542 74.417 165.542H88.583C90.867 165.542 92.6542 164.555 93.8594 163.043C95.0556 161.542 95.667 159.542 95.667 157.5V156.792C95.667 152.809 98.4313 149.958 102.396 149.958H103.104C105.103 149.958 106.733 150.68 107.866 151.875C109.002 153.073 109.667 154.778 109.667 156.792V157.5C109.667 161.518 107.036 164.542 103.104 164.542H102.396C98.2539 164.542 94.667 167.57 94.667 172.125V172.479C94.6669 174.543 94.2002 175.74 93.3555 176.45C92.4876 177.179 91.1017 177.5 89 177.5H74.125C72.069 177.5 70.4162 177.02 69.2861 176.093C68.1719 175.178 67.5 173.774 67.5 171.771V171.417C67.5 169.271 66.7933 167.373 65.5176 166.007C64.2386 164.637 62.416 163.833 60.25 163.833H59.8955C57.8673 163.833 56.3256 163.244 55.291 162.209C54.2565 161.174 53.6671 159.633 53.667 157.604V100.229C53.667 97.7873 53.1716 95.9411 51.9482 94.7178C50.7249 93.4947 48.8795 93 46.4375 93H45.7295C43.7012 93 42.1586 92.4106 41.124 91.376C40.0894 90.3414 39.5 88.7988 39.5 86.7705V86.0625C39.5 84.0344 40.0896 82.4926 41.124 81.458C42.1586 80.4234 43.7012 79.833 45.7295 79.833H46.4375C48.8796 79.833 50.7249 79.3384 51.9482 78.1152C53.1715 76.892 53.6669 75.0465 53.667 72.6045V57.7295C53.667 55.7012 54.2564 54.1586 55.291 53.124C56.261 52.1541 57.677 51.5754 59.5215 51.5068L59.8955 51.5Z" fill="black" stroke="white"/>
<mask id="path-4-inside-1_447_1488" fill="white">
<path d="M148.35 37C152.55 37 155 40.5003 155 46.5V46.999C155 52.7487 157.975 56.999 162 56.999H163.35C167.55 56.999 170 60.8587 170 66.8584V67.2139C170 72.9636 171.5 77.2861 176 77.2861H176.35C180.55 77.2861 182 79.9186 182 85.918V129.082C182 135.082 180.55 139.153 176.35 139.153H176C171.975 139.153 169 143.834 169 149.584V149.94C169 155.94 166.55 159.296 162.35 159.296H162C157.975 159.296 155 162.251 155 168.001V168.5C155 174.5 152.55 178 148.35 178H133.65C129.45 178 127 174.5 127 168.5V168.001C127 162.251 124.025 159.296 120 159.296H119.65C115.45 159.296 113 155.94 113 149.94V149.584C113 143.834 110.025 139.585 106 139.585H105.65C101.45 139.585 101 136.52 101 130.521V85.918C101 79.9185 101.8 76.8545 106 76.8545H107C111.025 76.8545 113 72.6042 113 66.8545V66.498C113 60.4986 115.45 56.999 119.65 56.999H120C124.025 56.999 127 52.7487 127 46.999V46.5C127 40.5003 129.45 37 133.65 37H148.35ZM134 57.1426C129.975 57.1426 127 61.2486 127 66.998V67.3545C127 73.3542 124.55 76.8545 120.35 76.8545H120C115.975 76.8545 113 81.1038 113 86.8535V129.585C113 135.335 115.975 139.585 120 139.585H120.35C124.55 139.585 127 141.5 127 147.5V149.44C127 155.19 129.975 159.439 134 159.439H148C152.025 159.439 155 155.19 155 149.44V149.084C155 143.084 157.45 139.153 161.65 139.153H162C166.025 139.153 169 135.335 169 129.585V85.918C169 80.1685 166.025 77 162 77C157.8 77 155 73.2136 155 67.2139C155 61.4645 152.025 57.1427 148 57.1426H134Z"/>
</mask>
<path d="M148.35 37C152.55 37 155 40.5003 155 46.5V46.999C155 52.7487 157.975 56.999 162 56.999H163.35C167.55 56.999 170 60.8587 170 66.8584V67.2139C170 72.9636 171.5 77.2861 176 77.2861H176.35C180.55 77.2861 182 79.9186 182 85.918V129.082C182 135.082 180.55 139.153 176.35 139.153H176C171.975 139.153 169 143.834 169 149.584V149.94C169 155.94 166.55 159.296 162.35 159.296H162C157.975 159.296 155 162.251 155 168.001V168.5C155 174.5 152.55 178 148.35 178H133.65C129.45 178 127 174.5 127 168.5V168.001C127 162.251 124.025 159.296 120 159.296H119.65C115.45 159.296 113 155.94 113 149.94V149.584C113 143.834 110.025 139.585 106 139.585H105.65C101.45 139.585 101 136.52 101 130.521V85.918C101 79.9185 101.8 76.8545 106 76.8545H107C111.025 76.8545 113 72.6042 113 66.8545V66.498C113 60.4986 115.45 56.999 119.65 56.999H120C124.025 56.999 127 52.7487 127 46.999V46.5C127 40.5003 129.45 37 133.65 37H148.35ZM134 57.1426C129.975 57.1426 127 61.2486 127 66.998V67.3545C127 73.3542 124.55 76.8545 120.35 76.8545H120C115.975 76.8545 113 81.1038 113 86.8535V129.585C113 135.335 115.975 139.585 120 139.585H120.35C124.55 139.585 127 141.5 127 147.5V149.44C127 155.19 129.975 159.439 134 159.439H148C152.025 159.439 155 155.19 155 149.44V149.084C155 143.084 157.45 139.153 161.65 139.153H162C166.025 139.153 169 135.335 169 129.585V85.918C169 80.1685 166.025 77 162 77C157.8 77 155 73.2136 155 67.2139C155 61.4645 152.025 57.1427 148 57.1426H134Z" fill="black"/>
<path d="M182 85.918L183 85.918L183 85.918L182 85.918ZM182 129.082L183 129.082V129.082H182ZM169 149.584L168 149.584V149.584H169ZM169 149.94L170 149.94V149.94H169ZM113 149.94L112 149.94L112 149.94L113 149.94ZM113 149.584L114 149.584L114 149.584L113 149.584ZM106 139.585L106 138.585H106V139.585ZM101 130.521L100 130.521L100 130.521L101 130.521ZM101 85.918L100 85.918V85.918H101ZM113 66.498L112 66.498V66.498H113ZM127 66.998L126 66.998V66.998H127ZM113 86.8535L112 86.8535V86.8535H113ZM127 149.44L126 149.44L126 149.44L127 149.44ZM155 149.44L156 149.44V149.44H155ZM155 149.084L154 149.084V149.084H155ZM169 85.918L170 85.918L170 85.9179L169 85.918ZM155 67.2139L156 67.2139L156 67.2138L155 67.2139ZM148 57.1426L148 56.1426H148V57.1426ZM148.35 37V38C150.131 38 151.484 38.722 152.431 40.0736C153.408 41.4698 154 43.616 154 46.5H155H156C156 43.3843 155.367 40.7805 154.069 38.9266C152.74 37.0281 150.768 36 148.35 36V37ZM155 46.5H154V46.999H155H156V46.5H155ZM155 46.999H154C154 50.036 154.784 52.7471 156.171 54.7286C157.566 56.7208 159.598 57.999 162 57.999V56.999V55.999C160.377 55.999 158.909 55.1521 157.81 53.5817C156.703 52.0006 156 49.7117 156 46.999H155ZM162 56.999V57.999H163.35V56.999V55.999H162V56.999ZM163.35 56.999V57.999C165.093 57.999 166.452 58.7776 167.416 60.2316C168.408 61.7269 169 63.9756 169 66.8584H170H171C171 63.7415 170.366 61.0605 169.083 59.126C167.772 57.1503 165.806 55.999 163.35 55.999V56.999ZM170 66.8584H169V67.2139H170H171V66.8584H170ZM170 67.2139H169C169 70.1432 169.377 72.8549 170.426 74.8682C170.958 75.8895 171.676 76.7555 172.625 77.3631C173.579 77.9735 174.708 78.2861 176 78.2861V77.2861V76.2861C175.042 76.2861 174.296 76.0584 173.703 75.6787C173.106 75.2961 172.605 74.7221 172.199 73.9441C171.373 72.3587 171 70.0342 171 67.2139H170ZM176 77.2861V78.2861H176.35V77.2861V76.2861H176V77.2861ZM176.35 77.2861V78.2861C178.212 78.2861 179.25 78.8478 179.904 79.8855C180.63 81.0382 181 82.9474 181 85.918L182 85.918L183 85.918C183 82.8891 182.644 80.4824 181.596 78.819C180.475 77.0407 178.687 76.2861 176.35 76.2861V77.2861ZM182 85.918H181V129.082H182H183V85.918H182ZM182 129.082L181 129.082C181 132.035 180.637 134.363 179.856 135.919C179.473 136.681 179.005 137.228 178.457 137.587C177.913 137.942 177.231 138.153 176.35 138.153V139.153V140.153C177.568 140.153 178.642 139.855 179.552 139.26C180.457 138.668 181.139 137.822 181.643 136.816C182.637 134.836 183 132.128 183 129.082L182 129.082ZM176.35 139.153V138.153H176V139.153V140.153H176.35V139.153ZM176 139.153V138.153C173.559 138.153 171.53 139.58 170.156 141.662C168.783 143.741 168 146.548 168 149.584L169 149.584L170 149.584C170 146.87 170.704 144.462 171.825 142.763C172.945 141.067 174.416 140.153 176 140.153V139.153ZM169 149.584H168V149.94H169H170V149.584H169ZM169 149.94L168 149.94C168 152.825 167.408 154.93 166.437 156.286C165.498 157.597 164.147 158.296 162.35 158.296V159.296V160.296C164.753 160.296 166.726 159.317 168.063 157.45C169.367 155.629 170 153.056 170 149.94L169 149.94ZM162.35 159.296V158.296H162V159.296V160.296H162.35V159.296ZM162 159.296V158.296C159.728 158.296 157.688 159.139 156.231 160.842C154.787 162.53 154 164.962 154 168.001H155H156C156 165.291 156.701 163.37 157.751 162.142C158.787 160.931 160.247 160.296 162 160.296V159.296ZM155 168.001H154V168.5H155H156V168.001H155ZM155 168.5H154C154 171.384 153.408 173.53 152.431 174.926C151.484 176.278 150.131 177 148.35 177V178V179C150.768 179 152.74 177.972 154.069 176.073C155.367 174.22 156 171.616 156 168.5H155ZM148.35 178V177H133.65V178V179H148.35V178ZM133.65 178V177C131.869 177 130.516 176.278 129.569 174.926C128.592 173.53 128 171.384 128 168.5H127H126C126 171.616 126.633 174.22 127.931 176.073C129.26 177.972 131.232 179 133.65 179V178ZM127 168.5H128V168.001H127H126V168.5H127ZM127 168.001H128C128 164.962 127.213 162.53 125.769 160.842C124.312 159.139 122.272 158.296 120 158.296V159.296V160.296C121.753 160.296 123.213 160.931 124.249 162.142C125.299 163.37 126 165.291 126 168.001H127ZM120 159.296V158.296H119.65V159.296V160.296H120V159.296ZM119.65 159.296V158.296C117.853 158.296 116.502 157.597 115.563 156.286C114.592 154.93 114 152.825 114 149.94L113 149.94L112 149.94C112 153.056 112.633 155.629 113.937 157.45C115.274 159.317 117.247 160.296 119.65 160.296V159.296ZM113 149.94H114V149.584H113H112V149.94H113ZM113 149.584L114 149.584C114 146.547 113.216 143.836 111.829 141.855C110.434 139.863 108.402 138.585 106 138.585L106 139.585L106 140.585C107.623 140.585 109.091 141.432 110.19 143.002C111.297 144.583 112 146.871 112 149.584L113 149.584ZM106 139.585V138.585H105.65V139.585V140.585H106V139.585ZM105.65 139.585V138.585C104.716 138.585 104.096 138.414 103.668 138.156C103.252 137.906 102.927 137.52 102.672 136.915C102.127 135.618 102 133.565 102 130.521L101 130.521L100 130.521C100 133.476 100.099 135.955 100.828 137.69C101.211 138.601 101.786 139.357 102.636 139.869C103.473 140.373 104.485 140.585 105.65 140.585V139.585ZM101 130.521H102V85.918H101H100V130.521H101ZM101 85.918L102 85.918C102 82.9023 102.212 80.8536 102.827 79.5679C103.117 78.961 103.483 78.5586 103.944 78.2949C104.416 78.0248 105.068 77.8545 106 77.8545V76.8545V75.8545C104.832 75.8545 103.81 76.0672 102.95 76.5591C102.08 77.0574 101.458 77.7959 101.023 78.705C100.188 80.4512 100 82.9342 100 85.918L101 85.918ZM106 76.8545V77.8545H107V76.8545V75.8545H106V76.8545ZM107 76.8545V77.8545C109.443 77.8545 111.244 76.5316 112.382 74.499C113.494 72.5118 114 69.8209 114 66.8545H113H112C112 69.6378 111.518 71.9469 110.637 73.5223C109.781 75.0522 108.582 75.8545 107 75.8545V76.8545ZM113 66.8545H114V66.498H113H112V66.8545H113ZM113 66.498L114 66.4981C114 63.6142 114.592 61.4683 115.569 60.0723C116.516 58.7209 117.869 57.999 119.65 57.999V56.999V55.999C117.232 55.999 115.26 57.0269 113.931 58.9252C112.633 60.7789 112 63.3824 112 66.498L113 66.498ZM119.65 56.999V57.999H120V56.999V55.999H119.65V56.999ZM120 56.999V57.999C122.402 57.999 124.434 56.7208 125.829 54.7286C127.216 52.7471 128 50.036 128 46.999H127H126C126 49.7117 125.297 52.0006 124.19 53.5817C123.091 55.1521 121.623 55.999 120 55.999V56.999ZM127 46.999H128V46.5H127H126V46.999H127ZM127 46.5H128C128 43.616 128.592 41.4698 129.569 40.0736C130.516 38.722 131.869 38 133.65 38V37V36C131.232 36 129.26 37.0281 127.931 38.9266C126.633 40.7805 126 43.3843 126 46.5H127ZM133.65 37V38H148.35V37V36H133.65V37ZM134 57.1426V56.1426C131.612 56.1426 129.578 57.3714 128.177 59.3329C126.785 61.2816 126 63.9607 126 66.998L127 66.998L128 66.9981C128 64.2859 128.703 62.0373 129.804 60.4956C130.897 58.9667 132.364 58.1426 134 58.1426V57.1426ZM127 66.998H126V67.3545H127H128V66.998H127ZM127 67.3545H126C126 70.2385 125.408 72.3847 124.431 73.7809C123.484 75.1325 122.131 75.8545 120.35 75.8545V76.8545V77.8545C122.768 77.8545 124.74 76.8263 126.069 74.9279C127.367 73.074 128 70.4702 128 67.3545H127ZM120.35 76.8545V75.8545H120V76.8545V77.8545H120.35V76.8545ZM120 76.8545V75.8545C117.598 75.8545 115.566 77.1324 114.171 79.1244C112.784 81.1056 112 83.8165 112 86.8535L113 86.8535L114 86.8535C114 84.1408 114.703 81.8522 115.81 80.2714C116.909 78.7013 118.377 77.8545 120 77.8545V76.8545ZM113 86.8535H112V129.585H113H114V86.8535H113ZM113 129.585H112C112 132.622 112.784 135.333 114.171 137.315C115.566 139.307 117.598 140.585 120 140.585V139.585V138.585C118.377 138.585 116.909 137.738 115.81 136.168C114.703 134.587 114 132.298 114 129.585H113ZM120 139.585V140.585H120.35V139.585V138.585H120V139.585ZM120.35 139.585V140.585C122.316 140.585 123.648 141.034 124.516 141.972C125.403 142.93 126 144.604 126 147.5H127H128C128 144.396 127.372 142.112 125.984 140.613C124.577 139.094 122.583 138.585 120.35 138.585V139.585ZM127 147.5H126V149.44H127H128V147.5H127ZM127 149.44L126 149.44C126 152.477 126.784 155.188 128.171 157.17C129.566 159.162 131.598 160.439 134 160.439V159.439V158.439C132.377 158.439 130.909 157.593 129.81 156.023C128.703 154.442 128 152.153 128 149.44L127 149.44ZM134 159.439V160.439H148V159.439V158.439H134V159.439ZM148 159.439V160.439C150.402 160.439 152.434 159.162 153.829 157.17C155.216 155.188 156 152.477 156 149.44L155 149.44L154 149.44C154 152.153 153.297 154.442 152.19 156.023C151.091 157.593 149.623 158.439 148 158.439V159.439ZM155 149.44H156V149.084H155H154V149.44H155ZM155 149.084L156 149.084C156 146.201 156.592 143.933 157.586 142.418C158.554 140.943 159.914 140.153 161.65 140.153V139.153V138.153C159.186 138.153 157.221 139.329 155.914 141.32C154.634 143.27 154 145.967 154 149.084L155 149.084ZM161.65 139.153V140.153H162V139.153V138.153H161.65V139.153ZM162 139.153V140.153C164.361 140.153 166.396 139.022 167.811 137.123C169.215 135.239 170 132.623 170 129.585H169H168C168 132.297 167.298 134.465 166.208 135.928C165.129 137.375 163.664 138.153 162 138.153V139.153ZM169 129.585H170V85.918H169H168V129.585H169ZM169 85.918L170 85.9179C170 82.8789 169.213 80.4026 167.781 78.6664C166.334 76.9131 164.294 76 162 76V77V78C163.73 78 165.191 78.6712 166.238 79.9395C167.299 81.2249 168 83.2076 168 85.918L169 85.918ZM162 77V76C160.238 76 158.783 75.2217 157.736 73.7714C156.668 72.2933 156 70.0718 156 67.2139H155H154C154 70.3557 154.732 73.0272 156.114 74.9422C157.517 76.885 159.562 78 162 78V77ZM155 67.2139L156 67.2138C156 64.1772 155.216 61.4503 153.831 59.4526C152.44 57.4455 150.409 56.1427 148 56.1426L148 57.1426L148 58.1426C149.616 58.1426 151.085 59.0008 152.187 60.5919C153.297 62.1924 154 64.5011 154 67.2139L155 67.2139ZM148 57.1426V56.1426H134V57.1426V58.1426H148V57.1426Z" fill="white" mask="url(#path-4-inside-1_447_1488)"/>
<path d="M178.55 161.5H179.45C181.94 161.5 183.943 162.238 185.32 163.556C186.694 164.871 187.5 166.815 187.5 169.338V171.662C187.5 174.195 186.745 176.137 185.401 177.447C184.056 178.759 182.057 179.5 179.45 179.5H178.55C175.943 179.5 173.944 178.759 172.599 177.447C171.255 176.137 170.5 174.195 170.5 171.662V169.338C170.5 166.888 171.728 164.935 173.372 163.58C174.924 162.301 176.803 161.592 178.264 161.509L178.55 161.5Z" fill="#FF80DF" stroke="white"/>
<mask id="path-7-inside-2_447_1488" fill="white">
<path d="M196.3 42C199.9 42 202 44.4434 202 48.6318V100.479C202.009 96.3232 204.458 93.9004 208.65 93.9004H209C213.025 93.9004 216 90.9463 216 86.9502V86.6025C216 82.4325 218.45 80 222.65 80H237.35C241.55 80 244 82.4325 244 86.6025V86.9502C244 90.9463 246.975 93.9004 251 93.9004H252.35C256.55 93.9004 259 96.5829 259 100.753V101C259 104.996 260.5 108 265 108H265.35C269.55 108 271 109.83 271 114V144C271 148.17 269.55 151 265.35 151H265C260.975 151 258 154.254 258 158.25V158.497C258 162.667 255.55 165 251.35 165H251C246.975 165 244 167.054 244 171.05V171.397C244 175.567 241.55 178 237.35 178H222.65C218.45 178 216 175.567 216 171.397V171.05C216 167.054 213.025 165 209 165H208.65C204.45 165 202 162.667 202 158.497V171.368C202 175.557 199.9 178 196.3 178H195.7C192.1 178 190 175.557 190 171.368V48.6318C190 44.4434 192.1 42 195.7 42H196.3ZM223 94C218.975 94 216 96.8536 216 100.85V101.098C216 105.268 213.55 107.7 209.35 107.7H209C204.975 107.7 202 110.654 202 114.65V144.35C202 148.346 204.975 151.3 209 151.3H209.35C213.55 151.3 216 153.732 216 157.902V158.15C216 162.146 218.975 165.1 223 165.1H237C241.025 165.1 244 162.146 244 158.15V157.902C244 153.732 246.45 151 250.65 151H251C255.025 151 258 148.346 258 144.35V114C258 110.004 255.025 107.7 251 107.7C246.8 107.7 244 105.17 244 101C244 97.0038 241.025 94.0001 237 94H223Z"/>
</mask>
<path d="M196.3 42C199.9 42 202 44.4434 202 48.6318V100.479C202.009 96.3232 204.458 93.9004 208.65 93.9004H209C213.025 93.9004 216 90.9463 216 86.9502V86.6025C216 82.4325 218.45 80 222.65 80H237.35C241.55 80 244 82.4325 244 86.6025V86.9502C244 90.9463 246.975 93.9004 251 93.9004H252.35C256.55 93.9004 259 96.5829 259 100.753V101C259 104.996 260.5 108 265 108H265.35C269.55 108 271 109.83 271 114V144C271 148.17 269.55 151 265.35 151H265C260.975 151 258 154.254 258 158.25V158.497C258 162.667 255.55 165 251.35 165H251C246.975 165 244 167.054 244 171.05V171.397C244 175.567 241.55 178 237.35 178H222.65C218.45 178 216 175.567 216 171.397V171.05C216 167.054 213.025 165 209 165H208.65C204.45 165 202 162.667 202 158.497V171.368C202 175.557 199.9 178 196.3 178H195.7C192.1 178 190 175.557 190 171.368V48.6318C190 44.4434 192.1 42 195.7 42H196.3ZM223 94C218.975 94 216 96.8536 216 100.85V101.098C216 105.268 213.55 107.7 209.35 107.7H209C204.975 107.7 202 110.654 202 114.65V144.35C202 148.346 204.975 151.3 209 151.3H209.35C213.55 151.3 216 153.732 216 157.902V158.15C216 162.146 218.975 165.1 223 165.1H237C241.025 165.1 244 162.146 244 158.15V157.902C244 153.732 246.45 151 250.65 151H251C255.025 151 258 148.346 258 144.35V114C258 110.004 255.025 107.7 251 107.7C246.8 107.7 244 105.17 244 101C244 97.0038 241.025 94.0001 237 94H223Z" fill="black"/>
<path d="M202 100.479H201L203 100.481L202 100.479ZM216 86.9502L217 86.9502V86.9502H216ZM244 86.9502H243V86.9502L244 86.9502ZM244 171.05L243 171.05V171.05H244ZM216 171.05H217V171.05L216 171.05ZM216 100.85L215 100.85V100.85H216ZM216 101.098L217 101.098V101.098H216ZM216 157.902H217V157.902L216 157.902ZM216 158.15H215V158.15L216 158.15ZM244 158.15L245 158.15V158.15H244ZM244 157.902L243 157.902V157.902H244ZM251 107.7V106.7V107.7ZM244 101H243H244ZM237 94L237 93H237V94ZM196.3 42V43C197.86 43 198.988 43.5199 199.742 44.3971C200.514 45.2953 201 46.693 201 48.6318H202H203C203 46.3823 202.436 44.464 201.258 43.0934C200.062 41.7018 198.34 41 196.3 41V42ZM202 48.6318H201V100.479H202H203V48.6318H202ZM202 100.479L203 100.481C203.004 98.5988 203.557 97.2356 204.46 96.3421C205.364 95.4476 206.745 94.9004 208.65 94.9004V93.9004V92.9004C206.364 92.9004 204.424 93.5646 203.053 94.9203C201.682 96.2771 201.005 98.2029 201 100.476L202 100.479ZM208.65 93.9004V94.9004H209V93.9004V92.9004H208.65V93.9004ZM209 93.9004V94.9004C213.571 94.9004 217 91.5053 217 86.9502L216 86.9502L215 86.9502C215 90.3874 212.479 92.9004 209 92.9004V93.9004ZM216 86.9502H217V86.6025H216H215V86.9502H216ZM216 86.6025H217C217 84.7129 217.551 83.3441 218.455 82.4472C219.359 81.5493 220.742 81 222.65 81V80V79C220.359 79 218.416 79.6669 217.046 81.0279C215.674 82.3898 215 84.3222 215 86.6025H216ZM222.65 80V81H237.35V80V79H222.65V80ZM237.35 80V81C239.258 81 240.641 81.5493 241.545 82.4472C242.449 83.3441 243 84.7129 243 86.6025H244H245C245 84.3222 244.326 82.3898 242.954 81.0279C241.584 79.6669 239.641 79 237.35 79V80ZM244 86.6025H243V86.9502H244H245V86.6025H244ZM244 86.9502L243 86.9502C243 91.5053 246.429 94.9004 251 94.9004V93.9004V92.9004C247.521 92.9004 245 90.3874 245 86.9502L244 86.9502ZM251 93.9004V94.9004H252.35V93.9004V92.9004H251V93.9004ZM252.35 93.9004V94.9004C254.231 94.9004 255.612 95.4953 256.526 96.4534C257.447 97.4177 258 98.8614 258 100.753H259H260C260 98.4745 259.328 96.4919 257.973 95.0725C256.612 93.6467 254.669 92.9004 252.35 92.9004V93.9004ZM259 100.753H258V101H259H260V100.753H259ZM259 101H258C258 103.094 258.388 105.099 259.512 106.598C260.677 108.152 262.506 109 265 109V108V107C262.994 107 261.823 106.346 261.113 105.399C260.362 104.398 260 102.902 260 101H259ZM265 108V109H265.35V108V107H265V108ZM265.35 108V109C267.333 109 268.399 109.436 269.009 110.108C269.641 110.804 270 111.987 270 114H271H272C272 111.843 271.634 110.026 270.491 108.764C269.325 107.479 267.566 107 265.35 107V108ZM271 114H270V144H271H272V114H271ZM271 144H270C270 146.001 269.646 147.5 268.939 148.478C268.278 149.394 267.2 150 265.35 150V151V152C267.699 152 269.447 151.191 270.56 149.649C271.629 148.17 272 146.169 272 144H271ZM265.35 151V150H265V151V152H265.35V151ZM265 151V150C260.375 150 257 153.751 257 158.25H258H259C259 154.757 261.575 152 265 152V151ZM258 158.25H257V158.497H258H259V158.25H258ZM258 158.497H257C257 160.386 256.449 161.725 255.553 162.595C254.653 163.469 253.269 164 251.35 164V165V166C253.63 166 255.572 165.364 256.946 164.03C258.325 162.691 259 160.778 259 158.497H258ZM251.35 165V164H251V165V166H251.35V165ZM251 165V164C248.83 164 246.834 164.553 245.36 165.75C243.858 166.97 243 168.779 243 171.05L244 171.05L245 171.05C245 169.324 245.629 168.108 246.621 167.303C247.641 166.474 249.145 166 251 166V165ZM244 171.05H243V171.397H244H245V171.05H244ZM244 171.397H243C243 173.287 242.449 174.656 241.545 175.553C240.641 176.451 239.258 177 237.35 177V178V179C239.641 179 241.584 178.333 242.954 176.972C244.326 175.61 245 173.678 245 171.397H244ZM237.35 178V177H222.65V178V179H237.35V178ZM222.65 178V177C220.742 177 219.359 176.451 218.455 175.553C217.551 174.656 217 173.287 217 171.397H216H215C215 173.678 215.674 175.61 217.046 176.972C218.416 178.333 220.359 179 222.65 179V178ZM216 171.397H217V171.05H216H215V171.397H216ZM216 171.05L217 171.05C217 168.779 216.142 166.97 214.64 165.75C213.166 164.553 211.17 164 209 164V165V166C210.855 166 212.359 166.474 213.379 167.303C214.371 168.108 215 169.324 215 171.05L216 171.05ZM209 165V164H208.65V165V166H209V165ZM208.65 165V164C206.731 164 205.347 163.469 204.447 162.595C203.551 161.725 203 160.386 203 158.497H202H201C201 160.778 201.675 162.691 203.054 164.03C204.428 165.364 206.37 166 208.65 166V165ZM202 158.497H201V171.368H202H203V158.497H202ZM202 171.368H201C201 173.307 200.514 174.705 199.742 175.603C198.988 176.48 197.86 177 196.3 177V178V179C198.34 179 200.062 178.298 201.258 176.907C202.436 175.536 203 173.618 203 171.368H202ZM196.3 178V177H195.7V178V179H196.3V178ZM195.7 178V177C194.14 177 193.012 176.48 192.258 175.603C191.486 174.705 191 173.307 191 171.368H190H189C189 173.618 189.564 175.536 190.742 176.907C191.938 178.298 193.66 179 195.7 179V178ZM190 171.368H191V48.6318H190H189V171.368H190ZM190 48.6318H191C191 46.693 191.486 45.2953 192.258 44.3971C193.012 43.5199 194.14 43 195.7 43V42V41C193.66 41 191.938 41.7018 190.742 43.0934C189.564 44.464 189 46.3823 189 48.6318H190ZM195.7 42V43H196.3V42V41H195.7V42ZM223 94V93C218.449 93 215 96.2754 215 100.85L216 100.85L217 100.85C217 97.4317 219.501 95 223 95V94ZM216 100.85H215V101.098H216H217V100.85H216ZM216 101.098L215 101.098C215 102.987 214.449 104.356 213.545 105.253C212.641 106.151 211.258 106.7 209.35 106.7V107.7V108.7C211.641 108.7 213.583 108.033 214.954 106.672C216.326 105.31 217 103.378 217 101.098L216 101.098ZM209.35 107.7V106.7H209V107.7V108.7H209.35V107.7ZM209 107.7V106.7C204.429 106.7 201 110.095 201 114.65H202H203C203 111.213 205.521 108.7 209 108.7V107.7ZM202 114.65H201V144.35H202H203V114.65H202ZM202 144.35H201C201 148.905 204.429 152.3 209 152.3V151.3V150.3C205.521 150.3 203 147.787 203 144.35H202ZM209 151.3V152.3H209.35V151.3V150.3H209V151.3ZM209.35 151.3V152.3C211.258 152.3 212.641 152.849 213.545 153.747C214.449 154.644 215 156.013 215 157.902L216 157.902L217 157.902C217 155.622 216.326 153.69 214.954 152.328C213.583 150.967 211.641 150.3 209.35 150.3V151.3ZM216 157.902H215V158.15H216H217V157.902H216ZM216 158.15L215 158.15C215 162.706 218.43 166.1 223 166.1V165.1V164.1C219.521 164.1 217 161.587 217 158.15L216 158.15ZM223 165.1V166.1H237V165.1V164.1H223V165.1ZM237 165.1V166.1C241.57 166.1 245 162.706 245 158.15L244 158.15L243 158.15C243 161.587 240.479 164.1 237 164.1V165.1ZM244 158.15H245V157.902H244H243V158.15H244ZM244 157.902L245 157.902C245 156.01 245.554 154.552 246.477 153.574C247.394 152.604 248.775 152 250.65 152V151V150C248.326 150 246.382 150.762 245.023 152.201C243.672 153.632 243 155.624 243 157.902L244 157.902ZM250.65 151V152H251V151V150H250.65V151ZM251 151V152C253.233 152 255.237 151.262 256.691 149.905C258.153 148.542 259 146.609 259 144.35H258H257C257 146.087 256.36 147.479 255.327 148.442C254.288 149.411 252.792 150 251 150V151ZM258 144.35H259V114H258H257V144.35H258ZM258 114H259C259 111.734 258.147 109.874 256.662 108.594C255.196 107.329 253.196 106.7 251 106.7V107.7V108.7C252.829 108.7 254.329 109.223 255.356 110.109C256.366 110.98 257 112.27 257 114H258ZM251 107.7V106.7C249.099 106.7 247.613 106.13 246.611 105.186C245.615 104.249 245 102.852 245 101H244H243C243 103.318 243.785 105.272 245.239 106.642C246.687 108.005 248.701 108.7 251 108.7V107.7ZM244 101H245C245 96.4542 241.58 93.0001 237 93L237 94L237 95C240.47 95.0001 243 97.5534 243 101H244ZM237 94V93H223V94V95H237V94Z" fill="white" mask="url(#path-7-inside-2_447_1488)"/>
</svg>
