<svg xmlns="http://www.w3.org/2000/svg" viewBox="0 0 100 100">
    <g fill="currentColor">
        <rect x="48" y="0" width="4" height="10" rx="1"/>
        <g transform="rotate(6 50 50)">
            <rect x="48.5" y="0" width="3" height="8" rx="1"/>
        </g>
        <g transform="rotate(12 50 50)">
            <rect x="49" y="0" width="2" height="6" rx="1"/>
        </g>
        <g transform="rotate(18 50 50)">
            <rect x="48.5" y="0" width="3" height="8" rx="1"/>
        </g>
        <g transform="rotate(24 50 50)">
            <rect x="48" y="0" width="4" height="10" rx="1"/>
        </g>
        <g transform="rotate(30 50 50)">
            <rect x="48" y="0" width="4" height="10" rx="1"/>
        </g>
        <g transform="rotate(36 50 50)">
            <rect x="48.5" y="0" width="3" height="8" rx="1"/>
        </g>
        <g transform="rotate(42 50 50)">
            <rect x="49" y="0" width="2" height="6" rx="1"/>
        </g>
        <g transform="rotate(48 50 50)">
            <rect x="48.5" y="0" width="3" height="8" rx="1"/>
        </g>
        <g transform="rotate(54 50 50)">
            <rect x="48" y="0" width="4" height="10" rx="1"/>
        </g>
        <g transform="rotate(60 50 50)">
            <rect x="48" y="0" width="4" height="10" rx="1"/>
        </g>
        <g transform="rotate(66 50 50)">
            <rect x="48.5" y="0" width="3" height="8" rx="1"/>
        </g>
        <g transform="rotate(72 50 50)">
            <rect x="49" y="0" width="2" height="6" rx="1"/>
        </g>
        <g transform="rotate(78 50 50)">
            <rect x="48.5" y="0" width="3" height="8" rx="1"/>
        </g>
        <g transform="rotate(84 50 50)">
            <rect x="48" y="0" width="4" height="10" rx="1"/>
        </g>
        <g transform="rotate(90 50 50)">
            <rect x="48" y="0" width="4" height="10" rx="1"/>
        </g>
        <g transform="rotate(96 50 50)">
            <rect x="48.5" y="0" width="3" height="8" rx="1"/>
        </g>
        <g transform="rotate(102 50 50)">
            <rect x="49" y="0" width="2" height="6" rx="1"/>
        </g>
        <g transform="rotate(108 50 50)">
            <rect x="48.5" y="0" width="3" height="8" rx="1"/>
        </g>
        <g transform="rotate(114 50 50)">
            <rect x="48" y="0" width="4" height="10" rx="1"/>
        </g>
        <g transform="rotate(120 50 50)">
            <rect x="48" y="0" width="4" height="10" rx="1"/>
        </g>
        <g transform="rotate(126 50 50)">
            <rect x="48.5" y="0" width="3" height="8" rx="1"/>
        </g>
        <g transform="rotate(132 50 50)">
            <rect x="49" y="0" width="2" height="6" rx="1"/>
        </g>
        <g transform="rotate(138 50 50)">
            <rect x="48.5" y="0" width="3" height="8" rx="1"/>
        </g>
        <g transform="rotate(144 50 50)">
            <rect x="48" y="0" width="4" height="10" rx="1"/>
        </g>
        <g transform="rotate(150 50 50)">
            <rect x="48" y="0" width="4" height="10" rx="1"/>
        </g>
        <g transform="rotate(156 50 50)">
            <rect x="48.5" y="0" width="3" height="8" rx="1"/>
        </g>
        <g transform="rotate(162 50 50)">
            <rect x="49" y="0" width="2" height="6" rx="1"/>
        </g>
        <g transform="rotate(168 50 50)">
            <rect x="48.5" y="0" width="3" height="8" rx="1"/>
        </g>
        <g transform="rotate(174 50 50)">
            <rect x="48" y="0" width="4" height="10" rx="1"/>
        </g>
        <g transform="rotate(180 50 50)">
            <rect x="48" y="0" width="4" height="10" rx="1"/>
        </g>
        <g transform="rotate(186 50 50)">
            <rect x="48.5" y="0" width="3" height="8" rx="1"/>
        </g>
        <g transform="rotate(192 50 50)">
            <rect x="49" y="0" width="2" height="6" rx="1"/>
        </g>
        <g transform="rotate(198 50 50)">
            <rect x="48.5" y="0" width="3" height="8" rx="1"/>
        </g>
        <g transform="rotate(204 50 50)">
            <rect x="48" y="0" width="4" height="10" rx="1"/>
        </g>
        <g transform="rotate(210 50 50)">
            <rect x="48" y="0" width="4" height="10" rx="1"/>
        </g>
        <g transform="rotate(216 50 50)">
            <rect x="48.5" y="0" width="3" height="8" rx="1"/>
        </g>
        <g transform="rotate(222 50 50)">
            <rect x="49" y="0" width="2" height="6" rx="1"/>
        </g>
        <g transform="rotate(228 50 50)">
            <rect x="48.5" y="0" width="3" height="8" rx="1"/>
        </g>
        <g transform="rotate(234 50 50)">
            <rect x="48" y="0" width="4" height="10" rx="1"/>
        </g>
        <g transform="rotate(240 50 50)">
            <rect x="48" y="0" width="4" height="10" rx="1"/>
        </g>
        <g transform="rotate(246 50 50)">
            <rect x="48.5" y="0" width="3" height="8" rx="1"/>
        </g>
        <g transform="rotate(252 50 50)">
            <rect x="49" y="0" width="2" height="6" rx="1"/>
        </g>
        <g transform="rotate(258 50 50)">
            <rect x="48.5" y="0" width="3" height="8" rx="1"/>
        </g>
        <g transform="rotate(264 50 50)">
            <rect x="48" y="0" width="4" height="10" rx="1"/>
        </g>
        <g transform="rotate(270 50 50)">
            <rect x="48" y="0" width="4" height="10" rx="1"/>
        </g>
        <g transform="rotate(276 50 50)">
            <rect x="48.5" y="0" width="3" height="8" rx="1"/>
        </g>
        <g transform="rotate(282 50 50)">
            <rect x="49" y="0" width="2" height="6" rx="1"/>
        </g>
        <g transform="rotate(288 50 50)">
            <rect x="48.5" y="0" width="3" height="8" rx="1"/>
        </g>
        <g transform="rotate(294 50 50)">
            <rect x="48" y="0" width="4" height="10" rx="1"/>
        </g>
        <g transform="rotate(300 50 50)">
            <rect x="48" y="0" width="4" height="10" rx="1"/>
        </g>
        <g transform="rotate(306 50 50)">
            <rect x="48.5" y="0" width="3" height="8" rx="1"/>
        </g>
        <g transform="rotate(312 50 50)">
            <rect x="49" y="0" width="2" height="6" rx="1"/>
        </g>
        <g transform="rotate(318 50 50)">
            <rect x="48.5" y="0" width="3" height="8" rx="1"/>
        </g>
        <g transform="rotate(324 50 50)">
            <rect x="48" y="0" width="4" height="10" rx="1"/>
        </g>
        <g transform="rotate(330 50 50)">
            <rect x="48" y="0" width="4" height="10" rx="1"/>
        </g>
        <g transform="rotate(336 50 50)">
            <rect x="48.5" y="0" width="3" height="8" rx="1"/>
        </g>
        <g transform="rotate(342 50 50)">
            <rect x="49" y="0" width="2" height="6" rx="1"/>
        </g>
        <g transform="rotate(348 50 50)">
            <rect x="48.5" y="0" width="3" height="8" rx="1"/>
        </g>
        <g transform="rotate(354 50 50)">
            <rect x="48" y="0" width="4" height="10" rx="1"/>
        </g>
    </g>
</svg> 