<svg width="171" height="189" viewBox="0 0 171 189" fill="none" xmlns="http://www.w3.org/2000/svg">
<path d="M40.0254 61.5H42.9746C51.3585 61.5 58.2312 63.9761 63.0039 68.5225C67.7731 73.0656 70.4999 79.7274 70.5 88.209V95.791C70.4999 104.282 67.9509 110.942 63.2764 115.48C58.5997 120.021 51.732 122.5 42.9746 122.5H40.0254C31.268 122.5 24.4003 120.021 19.7236 115.48C15.0491 110.942 12.5001 104.282 12.5 95.791V88.209C12.5001 79.8006 16.7423 73.1301 22.3281 68.5469C27.7502 64.098 34.392 61.6552 39.5322 61.5068L40.0254 61.5Z" fill="white" stroke="#FF80DF"/>
<path d="M41.25 101.5H42.75C46.9716 101.5 50.403 102.686 52.7734 104.835C55.1376 106.978 56.5 110.127 56.5 114.166V117.834C56.5 121.883 55.2252 125.03 52.9111 127.168C50.5915 129.311 47.1638 130.5 42.75 130.5H41.25C36.8362 130.5 33.4085 129.311 31.0889 127.168C28.7748 125.03 27.5 121.883 27.5 117.834V114.166C27.5 110.203 29.5989 107.044 32.3975 104.858C35.0301 102.803 38.2329 101.65 40.7549 101.514L41.25 101.5Z" fill="#FF80DF" stroke="white"/>
<path d="M42.25 111.5H41.75C40.4034 111.5 39.347 111.878 38.6328 112.525C37.9249 113.167 37.5 114.121 37.5 115.389V116.611C37.5 117.889 37.8999 118.841 38.5889 119.478C39.2835 120.119 40.3362 120.5 41.75 120.5H42.25C43.6638 120.5 44.7165 120.119 45.4111 119.478C46.1001 118.841 46.5 117.889 46.5 116.611V115.389C46.5 114.197 45.8709 113.233 44.9951 112.549C44.1651 111.901 43.163 111.546 42.3994 111.504L42.25 111.5Z" fill="#FF80DF" stroke="white"/>
<path d="M129.092 80.5H130.242C133.452 80.5 136.05 81.4404 137.841 83.1348C139.628 84.8255 140.667 87.318 140.667 90.5322V93.4678C140.667 96.6916 139.694 99.182 137.945 100.868C136.194 102.557 133.6 103.5 130.242 103.5H129.092C125.734 103.5 123.14 102.557 121.389 100.868C119.64 99.182 118.667 96.6916 118.667 93.4678V90.5322C118.667 87.3918 120.26 84.8904 122.385 83.1592C124.387 81.5278 126.817 80.6182 128.719 80.5107L129.092 80.5Z" fill="#FF80DF" stroke="white"/>
<path d="M129.275 96.5H129.725C130.913 96.5 131.844 96.1308 132.478 95.4932C133.111 94.8553 133.5 93.8948 133.5 92.6113V91.3887C133.5 90.0959 133.134 89.1376 132.517 88.5039C131.901 87.8721 130.974 87.5 129.725 87.5H129.275C128.026 87.5 127.099 87.8721 126.483 88.5039C125.866 89.1376 125.5 90.0959 125.5 91.3887V92.6113C125.5 93.8244 126.076 94.7921 126.854 95.4678C127.596 96.1114 128.483 96.4555 129.146 96.4961L129.275 96.5Z" fill="#FF80DF" stroke="white"/>
<mask id="path-6-inside-1_558_475" fill="white">
<path d="M136.517 43C140.717 43 143.167 45.4325 143.167 49.6025V49.9502C143.167 53.9463 146.142 56.9004 150.167 56.9004H151.517C155.717 56.9004 158.167 59.5829 158.167 63.7529V64C158.167 67.9963 159.667 71 164.167 71H164.517C168.717 71 170.167 72.83 170.167 77V107C170.167 111.17 168.717 114 164.517 114H164.167C160.142 114 157.167 117.254 157.167 121.25V121.497C157.167 125.667 154.717 128 150.517 128H150.167C146.142 128 143.167 130.054 143.167 134.05V134.397C143.167 138.567 140.717 141 136.517 141H121.817C117.617 141 115.167 138.567 115.167 134.397V134.05C115.167 130.054 112.192 128 108.167 128H107.817C103.617 128 101.167 125.667 101.167 121.497V121.25C101.167 117.254 98.192 114.3 94.167 114.3H93.8174C89.6174 114.3 89.167 112.17 89.167 108V77C89.167 72.83 89.967 70.7002 94.167 70.7002H95.167C99.192 70.7002 101.167 67.7463 101.167 63.75V63.5029C101.167 59.3329 103.617 56.9004 107.817 56.9004H108.167C112.192 56.9004 115.167 53.9463 115.167 49.9502V49.6025C115.167 45.4325 117.617 43 121.817 43H136.517ZM122.167 57C118.142 57 115.167 59.8536 115.167 63.8496V64.0977C115.167 68.2676 112.717 70.7002 108.517 70.7002H108.167C104.142 70.7002 101.167 73.6541 101.167 77.6504V107.35C101.167 111.346 104.142 114.3 108.167 114.3H108.517C112.717 114.3 115.167 116.732 115.167 120.902V121.15C115.167 125.146 118.142 128.1 122.167 128.1H136.167C140.192 128.1 143.167 125.146 143.167 121.15V120.902C143.167 116.732 145.617 114 149.817 114H150.167C154.192 114 157.167 111.346 157.167 107.35V77C157.167 73.0038 154.192 70.7002 150.167 70.7002C145.967 70.7002 143.167 68.17 143.167 64C143.167 60.0038 140.192 57.0001 136.167 57H122.167Z"/>
</mask>
<path d="M136.517 43C140.717 43 143.167 45.4325 143.167 49.6025V49.9502C143.167 53.9463 146.142 56.9004 150.167 56.9004H151.517C155.717 56.9004 158.167 59.5829 158.167 63.7529V64C158.167 67.9963 159.667 71 164.167 71H164.517C168.717 71 170.167 72.83 170.167 77V107C170.167 111.17 168.717 114 164.517 114H164.167C160.142 114 157.167 117.254 157.167 121.25V121.497C157.167 125.667 154.717 128 150.517 128H150.167C146.142 128 143.167 130.054 143.167 134.05V134.397C143.167 138.567 140.717 141 136.517 141H121.817C117.617 141 115.167 138.567 115.167 134.397V134.05C115.167 130.054 112.192 128 108.167 128H107.817C103.617 128 101.167 125.667 101.167 121.497V121.25C101.167 117.254 98.192 114.3 94.167 114.3H93.8174C89.6174 114.3 89.167 112.17 89.167 108V77C89.167 72.83 89.967 70.7002 94.167 70.7002H95.167C99.192 70.7002 101.167 67.7463 101.167 63.75V63.5029C101.167 59.3329 103.617 56.9004 107.817 56.9004H108.167C112.192 56.9004 115.167 53.9463 115.167 49.9502V49.6025C115.167 45.4325 117.617 43 121.817 43H136.517ZM122.167 57C118.142 57 115.167 59.8536 115.167 63.8496V64.0977C115.167 68.2676 112.717 70.7002 108.517 70.7002H108.167C104.142 70.7002 101.167 73.6541 101.167 77.6504V107.35C101.167 111.346 104.142 114.3 108.167 114.3H108.517C112.717 114.3 115.167 116.732 115.167 120.902V121.15C115.167 125.146 118.142 128.1 122.167 128.1H136.167C140.192 128.1 143.167 125.146 143.167 121.15V120.902C143.167 116.732 145.617 114 149.817 114H150.167C154.192 114 157.167 111.346 157.167 107.35V77C157.167 73.0038 154.192 70.7002 150.167 70.7002C145.967 70.7002 143.167 68.17 143.167 64C143.167 60.0038 140.192 57.0001 136.167 57H122.167Z" fill="black"/>
<path d="M143.167 49.9502L142.167 49.9502L142.167 49.9502L143.167 49.9502ZM143.167 134.05L142.167 134.05V134.05H143.167ZM115.167 134.05L116.167 134.05L116.167 134.05L115.167 134.05ZM94.167 114.3L94.167 113.3H94.167V114.3ZM101.167 63.75L102.167 63.75V63.75H101.167ZM115.167 49.9502L116.167 49.9502V49.9502H115.167ZM115.167 63.8496L114.167 63.8496V63.8496H115.167ZM115.167 64.0977L116.167 64.0977V64.0977H115.167ZM115.167 120.902L116.167 120.902L116.167 120.902L115.167 120.902ZM115.167 121.15L114.167 121.15L114.167 121.15L115.167 121.15ZM143.167 121.15L144.167 121.15V121.15H143.167ZM143.167 120.902L142.167 120.902V120.902H143.167ZM150.167 70.7002L150.167 69.7002H150.167L150.167 70.7002ZM143.167 64L142.167 64V64L143.167 64ZM136.167 57L136.167 56H136.167V57ZM136.517 43V44C138.425 44 139.808 44.5493 140.712 45.4472C141.616 46.3441 142.167 47.7129 142.167 49.6025H143.167H144.167C144.167 47.3222 143.493 45.3898 142.121 44.0279C140.751 42.6669 138.808 42 136.517 42V43ZM143.167 49.6025H142.167V49.9502H143.167H144.167V49.6025H143.167ZM143.167 49.9502L142.167 49.9502C142.167 54.5053 145.596 57.9004 150.167 57.9004V56.9004V55.9004C146.688 55.9004 144.167 53.3874 144.167 49.9502L143.167 49.9502ZM150.167 56.9004V57.9004H151.517V56.9004V55.9004H150.167V56.9004ZM151.517 56.9004V57.9004C153.398 57.9004 154.779 58.4953 155.693 59.4533C156.614 60.4177 157.167 61.8614 157.167 63.7529H158.167H159.167C159.167 61.4745 158.495 59.4919 157.14 58.0725C155.779 56.6467 153.836 55.9004 151.517 55.9004V56.9004ZM158.167 63.7529H157.167V64H158.167H159.167V63.7529H158.167ZM158.167 64H157.167C157.167 66.0945 157.555 68.0987 158.679 69.5985C159.844 71.1523 161.673 72 164.167 72V71V70C162.161 70 160.99 69.3459 160.28 68.3987C159.529 67.3975 159.167 65.9018 159.167 64H158.167ZM164.167 71V72H164.517V71V70H164.167V71ZM164.517 71V72C166.5 72 167.566 72.4357 168.176 73.108C168.808 73.8044 169.167 74.9871 169.167 77H170.167H171.167C171.167 74.8429 170.801 73.0256 169.658 71.7645C168.492 70.4793 166.733 70 164.517 70V71ZM170.167 77H169.167V107H170.167H171.167V77H170.167ZM170.167 107H169.167C169.167 109.001 168.813 110.5 168.106 111.478C167.445 112.394 166.367 113 164.517 113V114V115C166.866 115 168.614 114.191 169.727 112.649C170.796 111.17 171.167 109.169 171.167 107H170.167ZM164.517 114V113H164.167V114V115H164.517V114ZM164.167 114V113C159.542 113 156.167 116.751 156.167 121.25H157.167H158.167C158.167 117.757 160.742 115 164.167 115V114ZM157.167 121.25H156.167V121.497H157.167H158.167V121.25H157.167ZM157.167 121.497H156.167C156.167 123.386 155.616 124.725 154.72 125.595C153.82 126.469 152.436 127 150.517 127V128V129C152.797 129 154.739 128.364 156.113 127.03C157.492 125.691 158.167 123.778 158.167 121.497H157.167ZM150.517 128V127H150.167V128V129H150.517V128ZM150.167 128V127C147.997 127 146.001 127.553 144.527 128.75C143.025 129.97 142.167 131.779 142.167 134.05L143.167 134.05L144.167 134.05C144.167 132.324 144.796 131.108 145.788 130.303C146.808 129.474 148.312 129 150.167 129V128ZM143.167 134.05H142.167V134.397H143.167H144.167V134.05H143.167ZM143.167 134.397H142.167C142.167 136.287 141.616 137.656 140.712 138.553C139.808 139.451 138.425 140 136.517 140V141V142C138.808 142 140.751 141.333 142.121 139.972C143.493 138.61 144.167 136.678 144.167 134.397H143.167ZM136.517 141V140H121.817V141V142H136.517V141ZM121.817 141V140C119.909 140 118.526 139.451 117.622 138.553C116.718 137.656 116.167 136.287 116.167 134.397H115.167H114.167C114.167 136.678 114.841 138.61 116.213 139.972C117.583 141.333 119.526 142 121.817 142V141ZM115.167 134.397H116.167V134.05H115.167H114.167V134.397H115.167ZM115.167 134.05L116.167 134.05C116.167 131.779 115.309 129.97 113.807 128.75C112.333 127.553 110.337 127 108.167 127V128V129C110.022 129 111.526 129.474 112.546 130.303C113.538 131.108 114.167 132.324 114.167 134.05L115.167 134.05ZM108.167 128V127H107.817V128V129H108.167V128ZM107.817 128V127C105.898 127 104.514 126.469 103.614 125.595C102.718 124.725 102.167 123.386 102.167 121.497H101.167H100.167C100.167 123.778 100.842 125.691 102.221 127.03C103.595 128.364 105.537 129 107.817 129V128ZM101.167 121.497H102.167V121.25H101.167H100.167V121.497H101.167ZM101.167 121.25H102.167C102.167 116.695 98.7375 113.3 94.167 113.3L94.167 114.3L94.167 115.3C97.6464 115.3 100.167 117.813 100.167 121.25H101.167ZM94.167 114.3V113.3H93.8174V114.3V115.3H94.167V114.3ZM93.8174 114.3V113.3C91.8701 113.3 91.1463 112.813 90.7727 112.196C90.5523 111.832 90.392 111.324 90.2937 110.608C90.1956 109.892 90.167 109.034 90.167 108H89.167H88.167C88.167 109.051 88.1947 110.023 88.3123 110.879C88.4296 111.735 88.6445 112.542 89.0616 113.231C89.9633 114.721 91.5647 115.3 93.8174 115.3V114.3ZM89.167 108H90.167V77H89.167H88.167V108H89.167ZM89.167 77H90.167C90.167 74.9096 90.384 73.6261 90.9158 72.8532C91.3734 72.1881 92.2218 71.7002 94.167 71.7002V70.7002V69.7002C91.9122 69.7002 90.2606 70.2772 89.2682 71.7195C88.3499 73.054 88.167 74.9204 88.167 77H89.167ZM94.167 70.7002V71.7002H95.167V70.7002V69.7002H94.167V70.7002ZM95.167 70.7002V71.7002C97.4487 71.7002 99.2485 70.8495 100.455 69.3509C101.638 67.8826 102.167 65.8982 102.167 63.75L101.167 63.75L100.167 63.75C100.167 65.598 99.709 67.0887 98.8975 68.0965C98.1104 69.0739 96.9102 69.7002 95.167 69.7002V70.7002ZM101.167 63.75H102.167V63.5029H101.167H100.167V63.75H101.167ZM101.167 63.5029H102.167C102.167 61.6133 102.718 60.2444 103.622 59.3476C104.526 58.4497 105.909 57.9004 107.817 57.9004V56.9004V55.9004C105.526 55.9004 103.583 56.5673 102.213 57.9282C100.841 59.2901 100.167 61.2225 100.167 63.5029H101.167ZM107.817 56.9004V57.9004H108.167V56.9004V55.9004H107.817V56.9004ZM108.167 56.9004V57.9004C112.738 57.9004 116.167 54.5053 116.167 49.9502L115.167 49.9502L114.167 49.9502C114.167 53.3874 111.646 55.9004 108.167 55.9004V56.9004ZM115.167 49.9502H116.167V49.6025H115.167H114.167V49.9502H115.167ZM115.167 49.6025H116.167C116.167 47.7129 116.718 46.3441 117.622 45.4472C118.526 44.5493 119.909 44 121.817 44V43V42C119.526 42 117.583 42.6669 116.213 44.0279C114.841 45.3898 114.167 47.3222 114.167 49.6025H115.167ZM121.817 43V44H136.517V43V42H121.817V43ZM122.167 57V56C117.616 56 114.167 59.2754 114.167 63.8496L115.167 63.8496L116.167 63.8497C116.167 60.4317 118.668 58 122.167 58V57ZM115.167 63.8496H114.167V64.0977H115.167H116.167V63.8496H115.167ZM115.167 64.0977L114.167 64.0976C114.167 65.9872 113.616 67.3561 112.712 68.253C111.808 69.1508 110.425 69.7002 108.517 69.7002V70.7002V71.7002C110.808 71.7002 112.75 71.0332 114.121 69.6723C115.493 68.3104 116.167 66.378 116.167 64.0977L115.167 64.0977ZM108.517 70.7002V69.7002H108.167V70.7002V71.7002H108.517V70.7002ZM108.167 70.7002V69.7002C103.596 69.7002 100.167 73.0951 100.167 77.6504H101.167H102.167C102.167 74.2131 104.688 71.7002 108.167 71.7002V70.7002ZM101.167 77.6504H100.167V107.35H101.167H102.167V77.6504H101.167ZM101.167 107.35H100.167C100.167 111.905 103.596 115.3 108.167 115.3V114.3V113.3C104.688 113.3 102.167 110.787 102.167 107.35H101.167ZM108.167 114.3V115.3H108.517V114.3V113.3H108.167V114.3ZM108.517 114.3V115.3C110.425 115.3 111.808 115.849 112.712 116.747C113.616 117.644 114.167 119.013 114.167 120.902L115.167 120.902L116.167 120.902C116.167 118.622 115.493 116.69 114.121 115.328C112.75 113.967 110.808 113.3 108.517 113.3V114.3ZM115.167 120.902H114.167V121.15H115.167H116.167V120.902H115.167ZM115.167 121.15L114.167 121.15C114.167 125.706 117.597 129.1 122.167 129.1V128.1V127.1C118.688 127.1 116.167 124.587 116.167 121.15L115.167 121.15ZM122.167 128.1V129.1H136.167V128.1V127.1H122.167V128.1ZM136.167 128.1V129.1C140.737 129.1 144.167 125.706 144.167 121.15L143.167 121.15L142.167 121.15C142.167 124.587 139.646 127.1 136.167 127.1V128.1ZM143.167 121.15H144.167V120.902H143.167H142.167V121.15H143.167ZM143.167 120.902L144.167 120.902C144.167 119.01 144.721 117.552 145.644 116.574C146.561 115.604 147.942 115 149.817 115V114V113C147.493 113 145.549 113.762 144.19 115.201C142.839 116.632 142.167 118.624 142.167 120.902L143.167 120.902ZM149.817 114V115H150.167V114V113H149.817V114ZM150.167 114V115C152.4 115 154.404 114.262 155.858 112.905C157.32 111.542 158.167 109.609 158.167 107.35H157.167H156.167C156.167 109.087 155.527 110.479 154.494 111.442C153.455 112.411 151.959 113 150.167 113V114ZM157.167 107.35H158.167V77H157.167H156.167V107.35H157.167ZM157.167 77H158.167C158.167 74.7342 157.314 72.8743 155.829 71.5943C154.363 70.3291 152.363 69.7002 150.167 69.7002V70.7002V71.7002C151.996 71.7002 153.496 72.2231 154.523 73.1088C155.533 73.9796 156.167 75.2695 156.167 77H157.167ZM150.167 70.7002L150.167 69.7002C148.266 69.7002 146.78 69.1302 145.778 68.1859C144.782 67.2485 144.167 65.8522 144.167 64L143.167 64L142.167 64C142.167 66.3178 142.952 68.2716 144.406 69.6418C145.854 71.0051 147.868 71.7002 150.167 71.7002L150.167 70.7002ZM143.167 64H144.167C144.167 59.4542 140.747 56.0001 136.167 56L136.167 57L136.167 58C139.637 58.0001 142.167 60.5534 142.167 64H143.167ZM136.167 57V56H122.167V57V58H136.167V57Z" fill="white" mask="url(#path-6-inside-1_558_475)"/>
<mask id="path-8-inside-2_558_475" fill="white">
<path d="M48.3496 0C52.5496 0 55 3.50031 55 9.5V9.99902C55 15.7487 57.975 19.999 62 19.999H63.3496C67.5496 19.999 70 23.8587 70 29.8584V30.2139C70 35.9636 71.5 40.2861 76 40.2861H76.3496C80.5495 40.2861 81.9999 42.9186 82 48.918V92.082C81.9999 98.0815 80.5495 102.153 76.3496 102.153H76C71.975 102.153 69.0001 106.834 69 112.584V112.94C69 118.94 66.5496 122.296 62.3496 122.296H62C57.975 122.296 55 125.251 55 131.001V131.5C55 137.5 52.5496 141 48.3496 141H33.6504C29.4504 141 27 137.5 27 131.5V131.001C27 125.251 24.025 122.296 20 122.296H19.6504C15.4504 122.296 13 118.94 13 112.94V112.584C12.9999 106.834 10.025 102.585 6 102.585H5.65039C1.45041 102.585 1 99.5201 1 93.5205V48.918C1.00004 42.9185 1.80009 39.8545 6 39.8545H7C11.025 39.8545 13 35.6042 13 29.8545V29.498C13.0001 23.4986 15.4505 19.999 19.6504 19.999H20C24.025 19.999 27 15.7487 27 9.99902V9.5C27 3.50031 29.4504 0 33.6504 0H48.3496ZM34 20.1426C29.9751 20.1426 27.0001 24.2486 27 29.998V30.3545C27 36.3542 24.5496 39.8545 20.3496 39.8545H20C15.975 39.8545 13 44.1038 13 49.8535V92.585C13 98.3347 15.975 102.585 20 102.585H20.3496C24.5496 102.585 27 104.5 27 110.5V112.44C27 118.19 29.975 122.439 34 122.439H48C52.025 122.439 55 118.19 55 112.44V112.084C55.0001 106.084 57.4504 102.153 61.6504 102.153H62C66.025 102.153 69 98.3347 69 92.585V48.918C68.9999 43.1685 66.0249 40 62 40C57.8 40 55 36.2136 55 30.2139C54.9999 24.4645 52.0248 20.1427 48 20.1426H34Z"/>
</mask>
<path d="M48.3496 0C52.5496 0 55 3.50031 55 9.5V9.99902C55 15.7487 57.975 19.999 62 19.999H63.3496C67.5496 19.999 70 23.8587 70 29.8584V30.2139C70 35.9636 71.5 40.2861 76 40.2861H76.3496C80.5495 40.2861 81.9999 42.9186 82 48.918V92.082C81.9999 98.0815 80.5495 102.153 76.3496 102.153H76C71.975 102.153 69.0001 106.834 69 112.584V112.94C69 118.94 66.5496 122.296 62.3496 122.296H62C57.975 122.296 55 125.251 55 131.001V131.5C55 137.5 52.5496 141 48.3496 141H33.6504C29.4504 141 27 137.5 27 131.5V131.001C27 125.251 24.025 122.296 20 122.296H19.6504C15.4504 122.296 13 118.94 13 112.94V112.584C12.9999 106.834 10.025 102.585 6 102.585H5.65039C1.45041 102.585 1 99.5201 1 93.5205V48.918C1.00004 42.9185 1.80009 39.8545 6 39.8545H7C11.025 39.8545 13 35.6042 13 29.8545V29.498C13.0001 23.4986 15.4505 19.999 19.6504 19.999H20C24.025 19.999 27 15.7487 27 9.99902V9.5C27 3.50031 29.4504 0 33.6504 0H48.3496ZM34 20.1426C29.9751 20.1426 27.0001 24.2486 27 29.998V30.3545C27 36.3542 24.5496 39.8545 20.3496 39.8545H20C15.975 39.8545 13 44.1038 13 49.8535V92.585C13 98.3347 15.975 102.585 20 102.585H20.3496C24.5496 102.585 27 104.5 27 110.5V112.44C27 118.19 29.975 122.439 34 122.439H48C52.025 122.439 55 118.19 55 112.44V112.084C55.0001 106.084 57.4504 102.153 61.6504 102.153H62C66.025 102.153 69 98.3347 69 92.585V48.918C68.9999 43.1685 66.0249 40 62 40C57.8 40 55 36.2136 55 30.2139C54.9999 24.4645 52.0248 20.1427 48 20.1426H34Z" fill="black"/>
<path d="M82 48.918L83 48.918L83 48.918L82 48.918ZM82 92.082L83 92.082V92.082H82ZM69 112.584L68 112.584V112.584H69ZM69 112.94L70 112.94V112.94H69ZM13 112.94L12 112.94L12 112.94L13 112.94ZM13 112.584L14 112.584L14 112.584L13 112.584ZM6 102.585L6 101.585H6V102.585ZM1 93.5205L0 93.5205L0 93.5205L1 93.5205ZM1 48.918L0 48.918V48.918H1ZM13 29.498L12 29.498V29.498H13ZM27 29.998L26 29.998V29.998H27ZM13 49.8535L12 49.8535V49.8535H13ZM27 112.44L26 112.44L26 112.44L27 112.44ZM55 112.44L56 112.44V112.44H55ZM55 112.084L54 112.084V112.084H55ZM69 48.918L70 48.918L70 48.9179L69 48.918ZM62 40L62 39L62 39L62 40ZM55 30.2139L56 30.2139L56 30.2138L55 30.2139ZM48 20.1426L48 19.1426H48V20.1426ZM48.3496 0V1C50.1309 1 51.4844 1.72201 52.4306 3.0736C53.408 4.46982 54 6.61604 54 9.5H55H56C56 6.38427 55.3668 3.78049 54.069 1.92663C52.74 0.0281455 50.7684 -1 48.3496 -1V0ZM55 9.5H54V9.99902H55H56V9.5H55ZM55 9.99902H54C54 13.036 54.7844 15.7471 56.1714 17.7286C57.5659 19.7208 59.5979 20.999 62 20.999V19.999V18.999C60.3771 18.999 58.9091 18.1521 57.8099 16.5817C56.7031 15.0006 56 12.7117 56 9.99902H55ZM62 19.999V20.999H63.3496V19.999V18.999H62V19.999ZM63.3496 19.999V20.999C65.0929 20.999 66.452 21.7776 67.4165 23.2316C68.4084 24.7269 69 26.9756 69 29.8584H70H71C71 26.7415 70.3664 24.0605 69.0831 22.126C67.7725 20.1503 65.8063 18.999 63.3496 18.999V19.999ZM70 29.8584H69V30.2139H70H71V29.8584H70ZM70 30.2139H69C69 33.1432 69.3767 35.8549 70.4257 37.8682C70.9578 38.8895 71.6757 39.7555 72.6249 40.3631C73.5785 40.9735 74.7081 41.2861 76 41.2861V40.2861V39.2861C75.0419 39.2861 74.2965 39.0584 73.7032 38.6787C73.1055 38.2961 72.6047 37.7221 72.1993 36.9441C71.3733 35.3587 71 33.0342 71 30.2139H70ZM76 40.2861V41.2861H76.3496V40.2861V39.2861H76V40.2861ZM76.3496 40.2861V41.2861C78.2124 41.2861 79.2496 41.8478 79.9038 42.8855C80.6304 44.0382 81 45.9474 81 48.918L82 48.918L83 48.918C83 45.8891 82.6443 43.4824 81.5957 41.819C80.4747 40.0407 78.6867 39.2861 76.3496 39.2861V40.2861ZM82 48.918H81V92.082H82H83V48.918H82ZM82 92.082L81 92.082C81 95.0352 80.6373 97.3628 79.8561 98.9188C79.4732 99.6813 79.0052 100.228 78.4567 100.587C77.9132 100.942 77.2308 101.153 76.3496 101.153V102.153V103.153C77.5684 103.153 78.6422 102.855 79.5519 102.26C80.4566 101.668 81.1386 100.822 81.6434 99.8162C82.6374 97.8364 83 95.1283 83 92.082L82 92.082ZM76.3496 102.153V101.153H76V102.153V103.153H76.3496V102.153ZM76 102.153V101.153C73.5586 101.153 71.5302 102.58 70.1561 104.662C68.7835 106.741 68 109.548 68 112.584L69 112.584L70 112.584C70 109.87 70.7041 107.462 71.8252 105.763C72.9449 104.067 74.4165 103.153 76 103.153V102.153ZM69 112.584H68V112.94H69H70V112.584H69ZM69 112.94L68 112.94C68 115.825 67.4077 117.93 66.4367 119.286C65.4979 120.597 64.1465 121.296 62.3496 121.296V122.296V123.296C64.7527 123.296 66.7264 122.317 68.0629 120.45C69.367 118.629 70 116.056 70 112.94L69 112.94ZM62.3496 122.296V121.296H62V122.296V123.296H62.3496V122.296ZM62 122.296V121.296C59.7281 121.296 57.688 122.139 56.2307 123.842C54.7868 125.53 54 127.962 54 131.001H55H56C56 128.291 56.7007 126.37 57.7505 125.142C58.787 123.931 60.2469 123.296 62 123.296V122.296ZM55 131.001H54V131.5H55H56V131.001H55ZM55 131.5H54C54 134.384 53.408 136.53 52.4306 137.926C51.4844 139.278 50.1309 140 48.3496 140V141V142C50.7684 142 52.74 140.972 54.069 139.073C55.3668 137.22 56 134.616 56 131.5H55ZM48.3496 141V140H33.6504V141V142H48.3496V141ZM33.6504 141V140C31.8691 140 30.5156 139.278 29.5694 137.926C28.592 136.53 28 134.384 28 131.5H27H26C26 134.616 26.6332 137.22 27.931 139.073C29.26 140.972 31.2316 142 33.6504 142V141ZM27 131.5H28V131.001H27H26V131.5H27ZM27 131.001H28C28 127.962 27.2132 125.53 25.7693 123.842C24.312 122.139 22.2719 121.296 20 121.296V122.296V123.296C21.7531 123.296 23.213 123.931 24.2495 125.142C25.2993 126.37 26 128.291 26 131.001H27ZM20 122.296V121.296H19.6504V122.296V123.296H20V122.296ZM19.6504 122.296V121.296C17.8535 121.296 16.5021 120.597 15.5633 119.286C14.5923 117.93 14 115.825 14 112.94L13 112.94L12 112.94C12 116.056 12.633 118.629 13.9371 120.45C15.2736 122.317 17.2473 123.296 19.6504 123.296V122.296ZM13 112.94H14V112.584H13H12V112.94H13ZM13 112.584L14 112.584C14 109.547 13.2156 106.836 11.8285 104.855C10.434 102.863 8.40203 101.585 6 101.585L6 102.585L6 103.585C7.62292 103.585 9.09091 104.432 10.1901 106.002C11.2968 107.583 12 109.871 12 112.584L13 112.584ZM6 102.585V101.585H5.65039V102.585V103.585H6V102.585ZM5.65039 102.585V101.585C4.71588 101.585 4.09648 101.414 3.66775 101.156C3.25242 100.906 2.92652 100.52 2.67201 99.9149C2.12663 98.6181 2 96.5648 2 93.5205L1 93.5205L0 93.5205C2.44307e-06 96.4759 0.098583 98.9548 0.8284 100.69C1.21149 101.601 1.78569 102.357 2.63605 102.869C3.47302 103.373 4.48492 103.585 5.65039 103.585V102.585ZM1 93.5205H2V48.918H1H0V93.5205H1ZM1 48.918L2 48.918C2.00002 45.9023 2.21228 43.8536 2.82718 42.5679C3.11742 41.961 3.483 41.5586 3.94369 41.2949C4.4155 41.0248 5.06765 40.8545 6 40.8545V39.8545V38.8545C4.83239 38.8545 3.80957 39.0672 2.95015 39.5591C2.07961 40.0574 1.45768 40.7959 1.02291 41.705C0.187802 43.4512 1.77084e-05 45.9342 0 48.918L1 48.918ZM6 39.8545V40.8545H7V39.8545V38.8545H6V39.8545ZM7 39.8545V40.8545C9.44301 40.8545 11.2445 39.5316 12.382 37.499C13.4941 35.5118 14 32.8209 14 29.8545H13H12C12 32.6378 11.5184 34.9469 10.6367 36.5223C9.7805 38.0522 8.58199 38.8545 7 38.8545V39.8545ZM13 29.8545H14V29.498H13H12V29.8545H13ZM13 29.498L14 29.4981C14.0001 26.6142 14.5921 24.4683 15.5695 23.0723C16.5156 21.7209 17.8691 20.999 19.6504 20.999V19.999V18.999C17.2318 18.999 15.2602 20.0269 13.9311 21.9252C12.6333 23.7789 12.0001 26.3824 12 29.498L13 29.498ZM19.6504 19.999V20.999H20V19.999V18.999H19.6504V19.999ZM20 19.999V20.999C22.4021 20.999 24.4341 19.7208 25.8286 17.7286C27.2156 15.7471 28 13.036 28 9.99902H27H26C26 12.7117 25.2969 15.0006 24.1901 16.5817C23.0909 18.1521 21.6229 18.999 20 18.999V19.999ZM27 9.99902H28V9.5H27H26V9.99902H27ZM27 9.5H28C28 6.61604 28.592 4.46982 29.5694 3.0736C30.5156 1.72201 31.8691 1 33.6504 1V0V-1C31.2316 -1 29.26 0.0281455 27.931 1.92663C26.6332 3.78049 26 6.38427 26 9.5H27ZM33.6504 0V1H48.3496V0V-1H33.6504V0ZM34 20.1426V19.1426C31.6115 19.1426 29.5785 20.3714 28.1771 22.3329C26.7848 24.2816 26.0001 26.9607 26 29.998L27 29.998L28 29.9981C28.0001 27.2859 28.7029 25.0373 29.8044 23.4956C30.8967 21.9667 32.3636 21.1426 34 21.1426V20.1426ZM27 29.998H26V30.3545H27H28V29.998H27ZM27 30.3545H26C26 33.2385 25.408 35.3847 24.4306 36.7809C23.4844 38.1325 22.1309 38.8545 20.3496 38.8545V39.8545V40.8545C22.7684 40.8545 24.74 39.8263 26.069 37.9279C27.3668 36.074 28 33.4702 28 30.3545H27ZM20.3496 39.8545V38.8545H20V39.8545V40.8545H20.3496V39.8545ZM20 39.8545V38.8545C17.598 38.8545 15.566 40.1324 14.1714 42.1244C12.7844 44.1056 12 46.8165 12 49.8535L13 49.8535L14 49.8535C14 47.1408 14.7031 44.8522 15.8098 43.2714C16.9091 41.7013 18.3771 40.8545 20 40.8545V39.8545ZM13 49.8535H12V92.585H13H14V49.8535H13ZM13 92.585H12C12 95.622 12.7844 98.3331 14.1714 100.315C15.5659 102.307 17.5979 103.585 20 103.585V102.585V101.585C18.3771 101.585 16.9091 100.738 15.8099 99.1676C14.7031 97.5865 14 95.2977 14 92.585H13ZM20 102.585V103.585H20.3496V102.585V101.585H20V102.585ZM20.3496 102.585V103.585C22.3159 103.585 23.6476 104.034 24.516 104.972C25.4033 105.93 26 107.604 26 110.5H27H28C28 107.396 27.3715 105.112 25.9836 103.613C24.5768 102.094 22.5833 101.585 20.3496 101.585V102.585ZM27 110.5H26V112.44H27H28V110.5H27ZM27 112.44L26 112.44C26 115.477 26.7844 118.188 28.1715 120.17C29.566 122.162 31.598 123.439 34 123.439V122.439V121.439C32.3771 121.439 30.9091 120.593 29.8099 119.023C28.7031 117.442 28 115.153 28 112.44L27 112.44ZM34 122.439V123.439H48V122.439V121.439H34V122.439ZM48 122.439V123.439C50.402 123.439 52.434 122.162 53.8286 120.17C55.2156 118.188 56 115.477 56 112.44L55 112.44L54 112.44C54 115.153 53.2969 117.442 52.1901 119.023C51.0909 120.593 49.6229 121.439 48 121.439V122.439ZM55 112.44H56V112.084H55H54V112.44H55ZM55 112.084L56 112.084C56 109.201 56.5915 106.933 57.5862 105.418C58.5543 103.943 59.9144 103.153 61.6504 103.153V102.153V101.153C59.1864 101.153 57.2213 102.329 55.9143 104.32C54.6337 106.27 54 108.967 54 112.084L55 112.084ZM61.6504 102.153V103.153H62V102.153V101.153H61.6504V102.153ZM62 102.153V103.153C64.3607 103.153 66.3959 102.022 67.8112 100.123C69.2147 98.2393 70 95.6231 70 92.585H69H68C68 95.2965 67.2978 97.4646 66.2075 98.9278C65.1292 100.375 63.6643 101.153 62 101.153V102.153ZM69 92.585H70V48.918H69H68V92.585H69ZM69 48.918L70 48.9179C69.9999 45.8789 69.2134 43.4026 67.7805 41.6664C66.3335 39.9131 64.2945 39 62 39V40V41C63.7304 41 65.1913 41.6712 66.238 42.9395C67.2989 44.2249 67.9999 46.2076 68 48.918L69 48.918ZM62 40L62 39C60.2382 39 58.7829 38.2217 57.7357 36.7714C56.6685 35.2933 56 33.0718 56 30.2139L55 30.2139L54 30.2139C54 33.3557 54.7315 36.0272 56.1143 37.9422C57.5171 39.885 59.5618 41 62 41L62 40ZM55 30.2139L56 30.2138C55.9999 27.1772 55.2156 24.4503 53.8312 22.4526C52.4401 20.4455 50.4087 19.1427 48 19.1426L48 20.1426L48 21.1426C49.6161 21.1426 51.0846 22.0008 52.1873 23.5919C53.2966 25.1924 53.9999 27.5011 54 30.2139L55 30.2139ZM48 20.1426V19.1426H34V20.1426V21.1426H48V20.1426Z" fill="white" mask="url(#path-8-inside-2_558_475)"/>
<path d="M50.5127 182.326C70.1911 177.107 108.32 164.927 134.438 158" stroke="#FF80DF" stroke-width="12" stroke-linecap="round"/>
</svg>
