<svg width="169" height="173" viewBox="0 0 169 173" fill="none" xmlns="http://www.w3.org/2000/svg">
<path d="M39.1377 94.5H40.2881C43.4979 94.5 46.0955 95.4404 47.8867 97.1348C49.6742 98.8255 50.7128 101.318 50.7129 104.532V107.468C50.7128 110.692 49.74 113.182 47.9912 114.868C46.2397 116.557 43.6463 117.5 40.2881 117.5H39.1377C35.7795 117.5 33.1861 116.557 31.4346 114.868C29.6858 113.182 28.713 110.692 28.7129 107.468V104.532C28.713 101.392 30.306 98.8904 32.4307 97.1592C34.433 95.5278 36.8634 94.6182 38.7646 94.5107L39.1377 94.5Z" fill="#FF80DF" stroke="white"/>
<path d="M39.8877 102.5H39.5381C38.6412 102.5 37.9491 102.786 37.4805 103.271C37.0104 103.759 36.7129 104.501 36.7129 105.511V106.489C36.7129 107.509 36.9937 108.249 37.4512 108.732C37.9051 109.212 38.5928 109.5 39.5381 109.5H39.8877C40.833 109.5 41.5207 109.212 41.9746 108.732C42.432 108.249 42.7129 107.509 42.7129 106.489V105.511C42.7129 104.57 42.2792 103.821 41.6924 103.297C41.1675 102.829 40.553 102.57 40.0811 102.513L39.8877 102.5Z" fill="#FF80DF" stroke="white"/>
<mask id="path-3-inside-1_558_472" fill="white">
<path d="M133.729 13C137.929 13 140.38 15.4325 140.38 19.6025V19.9502C140.38 23.9463 143.355 26.9004 147.38 26.9004H148.729C152.929 26.9004 155.38 29.5829 155.38 33.7529V34C155.38 37.9963 156.88 41 161.38 41H161.729C165.929 41 167.38 42.83 167.38 47V107C167.38 111.17 165.929 114 161.729 114H161.38C157.355 114 154.38 117.254 154.38 121.25V121.497C154.38 125.667 151.929 128 147.729 128H147.38C143.355 128 140.38 130.054 140.38 134.05V134.397C140.38 138.567 137.929 141 133.729 141H119.03C114.83 141 112.38 138.567 112.38 134.397V134.05C112.38 130.054 109.405 128 105.38 128H105.03C100.83 128 98.3799 125.667 98.3799 121.497V121.25C98.3799 117.254 95.4049 114.3 91.3799 114.3H91.0303C86.8303 114.3 86.3799 112.17 86.3799 108V47C86.3799 42.83 87.1799 40.7002 91.3799 40.7002H92.3799C96.4049 40.7002 98.3799 37.7463 98.3799 33.75V33.5029C98.3799 29.3329 100.83 26.9004 105.03 26.9004H105.38C109.405 26.9004 112.38 23.9463 112.38 19.9502V19.6025C112.38 15.4325 114.83 13 119.03 13H133.729ZM119.38 27C115.355 27 112.38 29.8536 112.38 33.8496V34.0977C112.38 38.2676 109.929 40.7002 105.729 40.7002H105.38C101.355 40.7002 98.3799 43.6541 98.3799 47.6504V107.35C98.3799 111.346 101.355 114.3 105.38 114.3H105.729C109.929 114.3 112.38 116.732 112.38 120.902V121.15C112.38 125.146 115.355 128.1 119.38 128.1H133.38C137.405 128.1 140.38 125.146 140.38 121.15V120.902C140.38 116.732 142.83 114 147.03 114H147.38C151.405 114 154.38 111.346 154.38 107.35V47C154.38 43.0038 151.405 40.7002 147.38 40.7002C143.18 40.7002 140.38 38.17 140.38 34C140.38 30.0038 137.405 27.0001 133.38 27H119.38Z"/>
</mask>
<path d="M133.729 13C137.929 13 140.38 15.4325 140.38 19.6025V19.9502C140.38 23.9463 143.355 26.9004 147.38 26.9004H148.729C152.929 26.9004 155.38 29.5829 155.38 33.7529V34C155.38 37.9963 156.88 41 161.38 41H161.729C165.929 41 167.38 42.83 167.38 47V107C167.38 111.17 165.929 114 161.729 114H161.38C157.355 114 154.38 117.254 154.38 121.25V121.497C154.38 125.667 151.929 128 147.729 128H147.38C143.355 128 140.38 130.054 140.38 134.05V134.397C140.38 138.567 137.929 141 133.729 141H119.03C114.83 141 112.38 138.567 112.38 134.397V134.05C112.38 130.054 109.405 128 105.38 128H105.03C100.83 128 98.3799 125.667 98.3799 121.497V121.25C98.3799 117.254 95.4049 114.3 91.3799 114.3H91.0303C86.8303 114.3 86.3799 112.17 86.3799 108V47C86.3799 42.83 87.1799 40.7002 91.3799 40.7002H92.3799C96.4049 40.7002 98.3799 37.7463 98.3799 33.75V33.5029C98.3799 29.3329 100.83 26.9004 105.03 26.9004H105.38C109.405 26.9004 112.38 23.9463 112.38 19.9502V19.6025C112.38 15.4325 114.83 13 119.03 13H133.729ZM119.38 27C115.355 27 112.38 29.8536 112.38 33.8496V34.0977C112.38 38.2676 109.929 40.7002 105.729 40.7002H105.38C101.355 40.7002 98.3799 43.6541 98.3799 47.6504V107.35C98.3799 111.346 101.355 114.3 105.38 114.3H105.729C109.929 114.3 112.38 116.732 112.38 120.902V121.15C112.38 125.146 115.355 128.1 119.38 128.1H133.38C137.405 128.1 140.38 125.146 140.38 121.15V120.902C140.38 116.732 142.83 114 147.03 114H147.38C151.405 114 154.38 111.346 154.38 107.35V47C154.38 43.0038 151.405 40.7002 147.38 40.7002C143.18 40.7002 140.38 38.17 140.38 34C140.38 30.0038 137.405 27.0001 133.38 27H119.38Z" fill="black"/>
<path d="M140.38 19.9502L139.38 19.9502L139.38 19.9502L140.38 19.9502ZM140.38 134.05L139.38 134.05V134.05H140.38ZM112.38 134.05L113.38 134.05L113.38 134.05L112.38 134.05ZM91.3799 114.3L91.3799 113.3H91.3799V114.3ZM98.3799 33.75L99.3799 33.75V33.75H98.3799ZM112.38 19.9502L113.38 19.9502V19.9502H112.38ZM112.38 33.8496L111.38 33.8496V33.8496H112.38ZM112.38 34.0977L113.38 34.0977V34.0977H112.38ZM112.38 120.902L113.38 120.902L113.38 120.902L112.38 120.902ZM112.38 121.15L111.38 121.15L111.38 121.15L112.38 121.15ZM140.38 121.15L141.38 121.15V121.15H140.38ZM140.38 120.902L139.38 120.902V120.902H140.38ZM147.38 40.7002L147.38 39.7002H147.38L147.38 40.7002ZM140.38 34L139.38 34V34L140.38 34ZM133.38 27L133.38 26H133.38V27ZM133.729 13V14C135.638 14 137.021 14.5493 137.925 15.4472C138.829 16.3441 139.38 17.7129 139.38 19.6025H140.38H141.38C141.38 17.3222 140.706 15.3898 139.334 14.0279C137.963 12.6669 136.021 12 133.729 12V13ZM140.38 19.6025H139.38V19.9502H140.38H141.38V19.6025H140.38ZM140.38 19.9502L139.38 19.9502C139.38 24.5053 142.809 27.9004 147.38 27.9004V26.9004V25.9004C143.901 25.9004 141.38 23.3874 141.38 19.9502L140.38 19.9502ZM147.38 26.9004V27.9004H148.729V26.9004V25.9004H147.38V26.9004ZM148.729 26.9004V27.9004C150.611 27.9004 151.992 28.4953 152.906 29.4533C153.827 30.4177 154.38 31.8614 154.38 33.7529H155.38H156.38C156.38 31.4745 155.708 29.4919 154.353 28.0725C152.992 26.6467 151.048 25.9004 148.729 25.9004V26.9004ZM155.38 33.7529H154.38V34H155.38H156.38V33.7529H155.38ZM155.38 34H154.38C154.38 36.0945 154.768 38.0987 155.892 39.5985C157.057 41.1523 158.885 42 161.38 42V41V40C159.374 40 158.203 39.3459 157.492 38.3987C156.742 37.3975 156.38 35.9018 156.38 34H155.38ZM161.38 41V42H161.729V41V40H161.38V41ZM161.729 41V42C163.713 42 164.779 42.4357 165.389 43.108C166.02 43.8044 166.38 44.9871 166.38 47H167.38H168.38C168.38 44.8429 168.014 43.0256 166.87 41.7645C165.705 40.4793 163.946 40 161.729 40V41ZM167.38 47H166.38V107H167.38H168.38V47H167.38ZM167.38 107H166.38C166.38 109.001 166.026 110.5 165.319 111.478C164.658 112.394 163.58 113 161.729 113V114V115C164.079 115 165.826 114.191 166.94 112.649C168.009 111.17 168.38 109.169 168.38 107H167.38ZM161.729 114V113H161.38V114V115H161.729V114ZM161.38 114V113C156.755 113 153.38 116.751 153.38 121.25H154.38H155.38C155.38 117.757 157.955 115 161.38 115V114ZM154.38 121.25H153.38V121.497H154.38H155.38V121.25H154.38ZM154.38 121.497H153.38C153.38 123.386 152.829 124.725 151.933 125.595C151.032 126.469 149.649 127 147.729 127V128V129C150.01 129 151.952 128.364 153.326 127.03C154.705 125.691 155.38 123.778 155.38 121.497H154.38ZM147.729 128V127H147.38V128V129H147.729V128ZM147.38 128V127C145.21 127 143.214 127.553 141.74 128.75C140.238 129.97 139.38 131.779 139.38 134.05L140.38 134.05L141.38 134.05C141.38 132.324 142.009 131.108 143.001 130.303C144.021 129.474 145.525 129 147.38 129V128ZM140.38 134.05H139.38V134.397H140.38H141.38V134.05H140.38ZM140.38 134.397H139.38C139.38 136.287 138.829 137.656 137.925 138.553C137.021 139.451 135.638 140 133.729 140V141V142C136.021 142 137.963 141.333 139.334 139.972C140.706 138.61 141.38 136.678 141.38 134.397H140.38ZM133.729 141V140H119.03V141V142H133.729V141ZM119.03 141V140C117.122 140 115.739 139.451 114.835 138.553C113.931 137.656 113.38 136.287 113.38 134.397H112.38H111.38C111.38 136.678 112.054 138.61 113.426 139.972C114.796 141.333 116.739 142 119.03 142V141ZM112.38 134.397H113.38V134.05H112.38H111.38V134.397H112.38ZM112.38 134.05L113.38 134.05C113.38 131.779 112.522 129.97 111.02 128.75C109.545 127.553 107.549 127 105.38 127V128V129C107.235 129 108.739 129.474 109.759 130.303C110.751 131.108 111.38 132.324 111.38 134.05L112.38 134.05ZM105.38 128V127H105.03V128V129H105.38V128ZM105.03 128V127C103.111 127 101.727 126.469 100.827 125.595C99.9305 124.725 99.3799 123.386 99.3799 121.497H98.3799H97.3799C97.3799 123.778 98.0545 125.691 99.4335 127.03C100.808 128.364 102.75 129 105.03 129V128ZM98.3799 121.497H99.3799V121.25H98.3799H97.3799V121.497H98.3799ZM98.3799 121.25H99.3799C99.3799 116.695 95.9504 113.3 91.3799 113.3L91.3799 114.3L91.3799 115.3C94.8593 115.3 97.3799 117.813 97.3799 121.25H98.3799ZM91.3799 114.3V113.3H91.0303V114.3V115.3H91.3799V114.3ZM91.0303 114.3V113.3C89.083 113.3 88.3592 112.813 87.9856 112.196C87.7652 111.832 87.6049 111.324 87.5066 110.608C87.4084 109.892 87.3799 109.034 87.3799 108H86.3799H85.3799C85.3799 109.051 85.4076 110.023 85.5252 110.879C85.6425 111.735 85.8574 112.542 86.2745 113.231C87.1762 114.721 88.7776 115.3 91.0303 115.3V114.3ZM86.3799 108H87.3799V47H86.3799H85.3799V108H86.3799ZM86.3799 47H87.3799C87.3799 44.9096 87.5969 43.6261 88.1287 42.8532C88.5863 42.1881 89.4347 41.7002 91.3799 41.7002V40.7002V39.7002C89.1251 39.7002 87.4735 40.2772 86.4811 41.7195C85.5628 43.054 85.3799 44.9204 85.3799 47H86.3799ZM91.3799 40.7002V41.7002H92.3799V40.7002V39.7002H91.3799V40.7002ZM92.3799 40.7002V41.7002C94.6616 41.7002 96.4614 40.8495 97.6681 39.3509C98.8504 37.8826 99.3799 35.8982 99.3799 33.75L98.3799 33.75L97.3799 33.75C97.3799 35.598 96.9219 37.0887 96.1104 38.0965C95.3233 39.0739 94.1231 39.7002 92.3799 39.7002V40.7002ZM98.3799 33.75H99.3799V33.5029H98.3799H97.3799V33.75H98.3799ZM98.3799 33.5029H99.3799C99.3799 31.6133 99.9312 30.2444 100.835 29.3476C101.739 28.4497 103.122 27.9004 105.03 27.9004V26.9004V25.9004C102.739 25.9004 100.796 26.5673 99.4255 27.9282C98.0537 29.2901 97.3799 31.2225 97.3799 33.5029H98.3799ZM105.03 26.9004V27.9004H105.38V26.9004V25.9004H105.03V26.9004ZM105.38 26.9004V27.9004C109.95 27.9004 113.38 24.5053 113.38 19.9502L112.38 19.9502L111.38 19.9502C111.38 23.3874 108.859 25.9004 105.38 25.9004V26.9004ZM112.38 19.9502H113.38V19.6025H112.38H111.38V19.9502H112.38ZM112.38 19.6025H113.38C113.38 17.7129 113.931 16.3441 114.835 15.4472C115.739 14.5493 117.122 14 119.03 14V13V12C116.739 12 114.796 12.6669 113.426 14.0279C112.054 15.3898 111.38 17.3222 111.38 19.6025H112.38ZM119.03 13V14H133.729V13V12H119.03V13ZM119.38 27V26C114.829 26 111.38 29.2754 111.38 33.8496L112.38 33.8496L113.38 33.8497C113.38 30.4317 115.881 28 119.38 28V27ZM112.38 33.8496H111.38V34.0977H112.38H113.38V33.8496H112.38ZM112.38 34.0977L111.38 34.0976C111.38 35.9872 110.829 37.3561 109.925 38.253C109.021 39.1508 107.638 39.7002 105.729 39.7002V40.7002V41.7002C108.021 41.7002 109.963 41.0332 111.334 39.6723C112.706 38.3104 113.38 36.378 113.38 34.0977L112.38 34.0977ZM105.729 40.7002V39.7002H105.38V40.7002V41.7002H105.729V40.7002ZM105.38 40.7002V39.7002C100.809 39.7002 97.3799 43.0951 97.3799 47.6504H98.3799H99.3799C99.3799 44.2131 101.9 41.7002 105.38 41.7002V40.7002ZM98.3799 47.6504H97.3799V107.35H98.3799H99.3799V47.6504H98.3799ZM98.3799 107.35H97.3799C97.3799 111.905 100.809 115.3 105.38 115.3V114.3V113.3C101.9 113.3 99.3799 110.787 99.3799 107.35H98.3799ZM105.38 114.3V115.3H105.729V114.3V113.3H105.38V114.3ZM105.729 114.3V115.3C107.638 115.3 109.021 115.849 109.925 116.747C110.829 117.644 111.38 119.013 111.38 120.902L112.38 120.902L113.38 120.902C113.38 118.622 112.706 116.69 111.334 115.328C109.963 113.967 108.021 113.3 105.729 113.3V114.3ZM112.38 120.902H111.38V121.15H112.38H113.38V120.902H112.38ZM112.38 121.15L111.38 121.15C111.38 125.706 114.81 129.1 119.38 129.1V128.1V127.1C115.9 127.1 113.38 124.587 113.38 121.15L112.38 121.15ZM119.38 128.1V129.1H133.38V128.1V127.1H119.38V128.1ZM133.38 128.1V129.1C137.95 129.1 141.38 125.706 141.38 121.15L140.38 121.15L139.38 121.15C139.38 124.587 136.859 127.1 133.38 127.1V128.1ZM140.38 121.15H141.38V120.902H140.38H139.38V121.15H140.38ZM140.38 120.902L141.38 120.902C141.38 119.01 141.933 117.552 142.857 116.574C143.774 115.604 145.155 115 147.03 115V114V113C144.706 113 142.762 113.762 141.403 115.201C140.052 116.632 139.38 118.624 139.38 120.902L140.38 120.902ZM147.03 114V115H147.38V114V113H147.03V114ZM147.38 114V115C149.613 115 151.617 114.262 153.071 112.905C154.533 111.542 155.38 109.609 155.38 107.35H154.38H153.38C153.38 109.087 152.74 110.479 151.707 111.442C150.668 112.411 149.172 113 147.38 113V114ZM154.38 107.35H155.38V47H154.38H153.38V107.35H154.38ZM154.38 47H155.38C155.38 44.7342 154.527 42.8743 153.042 41.5943C151.576 40.3291 149.576 39.7002 147.38 39.7002V40.7002V41.7002C149.209 41.7002 150.709 42.2231 151.736 43.1088C152.746 43.9796 153.38 45.2695 153.38 47H154.38ZM147.38 40.7002L147.38 39.7002C145.479 39.7002 143.993 39.1302 142.991 38.1859C141.995 37.2485 141.38 35.8522 141.38 34L140.38 34L139.38 34C139.38 36.3178 140.164 38.2716 141.619 39.6418C143.067 41.0051 145.081 41.7002 147.38 41.7002L147.38 40.7002ZM140.38 34H141.38C141.38 29.4542 137.96 26.0001 133.38 26L133.38 27L133.38 28C136.85 28.0001 139.38 30.5534 139.38 34H140.38ZM133.38 27V26H119.38V27V28H133.38V27Z" fill="white" mask="url(#path-3-inside-1_558_472)"/>
<mask id="path-5-inside-2_558_472" fill="white">
<path d="M133.729 13C137.929 13 140.38 15.4325 140.38 19.6025V19.9502C140.38 23.9463 143.355 26.9004 147.38 26.9004H148.729C152.929 26.9004 155.38 29.5829 155.38 33.7529V34C155.38 37.9963 156.88 41 161.38 41H161.729C165.929 41 168.38 42.83 168.38 47V107C168.38 111.17 165.929 114 161.729 114H161.38C157.355 114 154.38 117.254 154.38 121.25V121.497C154.38 125.667 151.929 128 147.729 128H147.38C143.355 128 140.38 130.054 140.38 134.05V134.397C140.38 138.567 137.929 141 133.729 141H119.03C114.83 141 112.38 138.567 112.38 134.397V134.05C112.38 130.054 109.405 128 105.38 128H105.03C100.83 128 98.3799 125.667 98.3799 121.497V121.25C98.3799 117.254 95.4049 114.3 91.3799 114.3H91.0303C86.8303 114.3 86.3799 112.17 86.3799 108V46.1699C86.3799 46.0281 86.3912 45.8902 86.4121 45.7568C86.5877 42.4072 87.6199 40.7002 91.3799 40.7002H92.3799C96.4049 40.7002 98.3799 37.7463 98.3799 33.75V33.5029C98.3799 29.3329 100.83 26.9004 105.03 26.9004H105.38C109.405 26.9004 112.38 23.9463 112.38 19.9502V19.6025C112.38 15.4325 114.83 13 119.03 13H133.729ZM119.38 27C115.355 27 112.38 29.8536 112.38 33.8496V34.0977C112.38 38.2676 109.929 40.7002 105.729 40.7002H105.38C101.355 40.7002 98.3799 43.6541 98.3799 47.6504V107.35C98.3799 111.346 101.355 114.3 105.38 114.3H105.729C109.929 114.3 112.38 116.732 112.38 120.902V121.15C112.38 125.146 115.355 128.1 119.38 128.1H133.38C137.405 128.1 140.38 125.146 140.38 121.15V120.902C140.38 116.732 142.83 114 147.03 114H147.38C151.405 114 154.38 111.346 154.38 107.35V47C154.38 43.0038 151.405 40.7002 147.38 40.7002C143.18 40.7002 140.38 38.17 140.38 34C140.38 30.0038 137.405 27.0001 133.38 27H119.38Z"/>
</mask>
<path d="M133.729 13C137.929 13 140.38 15.4325 140.38 19.6025V19.9502C140.38 23.9463 143.355 26.9004 147.38 26.9004H148.729C152.929 26.9004 155.38 29.5829 155.38 33.7529V34C155.38 37.9963 156.88 41 161.38 41H161.729C165.929 41 168.38 42.83 168.38 47V107C168.38 111.17 165.929 114 161.729 114H161.38C157.355 114 154.38 117.254 154.38 121.25V121.497C154.38 125.667 151.929 128 147.729 128H147.38C143.355 128 140.38 130.054 140.38 134.05V134.397C140.38 138.567 137.929 141 133.729 141H119.03C114.83 141 112.38 138.567 112.38 134.397V134.05C112.38 130.054 109.405 128 105.38 128H105.03C100.83 128 98.3799 125.667 98.3799 121.497V121.25C98.3799 117.254 95.4049 114.3 91.3799 114.3H91.0303C86.8303 114.3 86.3799 112.17 86.3799 108V46.1699C86.3799 46.0281 86.3912 45.8902 86.4121 45.7568C86.5877 42.4072 87.6199 40.7002 91.3799 40.7002H92.3799C96.4049 40.7002 98.3799 37.7463 98.3799 33.75V33.5029C98.3799 29.3329 100.83 26.9004 105.03 26.9004H105.38C109.405 26.9004 112.38 23.9463 112.38 19.9502V19.6025C112.38 15.4325 114.83 13 119.03 13H133.729ZM119.38 27C115.355 27 112.38 29.8536 112.38 33.8496V34.0977C112.38 38.2676 109.929 40.7002 105.729 40.7002H105.38C101.355 40.7002 98.3799 43.6541 98.3799 47.6504V107.35C98.3799 111.346 101.355 114.3 105.38 114.3H105.729C109.929 114.3 112.38 116.732 112.38 120.902V121.15C112.38 125.146 115.355 128.1 119.38 128.1H133.38C137.405 128.1 140.38 125.146 140.38 121.15V120.902C140.38 116.732 142.83 114 147.03 114H147.38C151.405 114 154.38 111.346 154.38 107.35V47C154.38 43.0038 151.405 40.7002 147.38 40.7002C143.18 40.7002 140.38 38.17 140.38 34C140.38 30.0038 137.405 27.0001 133.38 27H119.38Z" fill="black"/>
<path d="M140.38 19.9502L139.38 19.9502L139.38 19.9502L140.38 19.9502ZM140.38 134.05L139.38 134.05V134.05H140.38ZM112.38 134.05L113.38 134.05L113.38 134.05L112.38 134.05ZM91.3799 114.3L91.3799 113.3H91.3799V114.3ZM86.4121 45.7568L87.4001 45.9115L87.408 45.8606L87.4107 45.8092L86.4121 45.7568ZM98.3799 33.75L99.3799 33.75V33.75H98.3799ZM112.38 19.9502L113.38 19.9502V19.9502H112.38ZM112.38 33.8496L111.38 33.8496V33.8496H112.38ZM112.38 34.0977L113.38 34.0977V34.0977H112.38ZM112.38 120.902L113.38 120.902L113.38 120.902L112.38 120.902ZM112.38 121.15L111.38 121.15L111.38 121.15L112.38 121.15ZM140.38 121.15L141.38 121.15V121.15H140.38ZM140.38 120.902L139.38 120.902V120.902H140.38ZM147.38 40.7002L147.38 39.7002H147.38L147.38 40.7002ZM140.38 34L139.38 34V34L140.38 34ZM133.38 27L133.38 26H133.38V27ZM133.729 13V14C135.638 14 137.021 14.5493 137.925 15.4472C138.829 16.3441 139.38 17.7129 139.38 19.6025H140.38H141.38C141.38 17.3222 140.706 15.3898 139.334 14.0279C137.963 12.6669 136.021 12 133.729 12V13ZM140.38 19.6025H139.38V19.9502H140.38H141.38V19.6025H140.38ZM140.38 19.9502L139.38 19.9502C139.38 24.5053 142.809 27.9004 147.38 27.9004V26.9004V25.9004C143.901 25.9004 141.38 23.3874 141.38 19.9502L140.38 19.9502ZM147.38 26.9004V27.9004H148.729V26.9004V25.9004H147.38V26.9004ZM148.729 26.9004V27.9004C150.611 27.9004 151.992 28.4953 152.906 29.4533C153.827 30.4177 154.38 31.8614 154.38 33.7529H155.38H156.38C156.38 31.4745 155.708 29.4919 154.353 28.0725C152.992 26.6467 151.048 25.9004 148.729 25.9004V26.9004ZM155.38 33.7529H154.38V34H155.38H156.38V33.7529H155.38ZM155.38 34H154.38C154.38 36.0945 154.768 38.0987 155.892 39.5985C157.057 41.1523 158.885 42 161.38 42V41V40C159.374 40 158.203 39.3459 157.492 38.3987C156.742 37.3975 156.38 35.9018 156.38 34H155.38ZM161.38 41V42H161.729V41V40H161.38V41ZM161.729 41V42C163.706 42 165.093 42.4336 165.977 43.1943C166.833 43.9306 167.38 45.1149 167.38 47H168.38H169.38C169.38 44.7151 168.701 42.8994 167.282 41.6782C165.891 40.4814 163.953 40 161.729 40V41ZM168.38 47H167.38V107H168.38H169.38V47H168.38ZM168.38 107H167.38C167.38 108.893 166.826 110.38 165.896 111.384C164.975 112.379 163.594 113 161.729 113V114V115C164.064 115 166.009 114.206 167.363 112.743C168.709 111.29 169.38 109.277 169.38 107H168.38ZM161.729 114V113H161.38V114V115H161.729V114ZM161.38 114V113C156.755 113 153.38 116.751 153.38 121.25H154.38H155.38C155.38 117.757 157.955 115 161.38 115V114ZM154.38 121.25H153.38V121.497H154.38H155.38V121.25H154.38ZM154.38 121.497H153.38C153.38 123.386 152.829 124.725 151.933 125.595C151.032 126.469 149.649 127 147.729 127V128V129C150.01 129 151.952 128.364 153.326 127.03C154.705 125.691 155.38 123.778 155.38 121.497H154.38ZM147.729 128V127H147.38V128V129H147.729V128ZM147.38 128V127C145.21 127 143.214 127.553 141.74 128.75C140.238 129.97 139.38 131.779 139.38 134.05L140.38 134.05L141.38 134.05C141.38 132.324 142.009 131.108 143.001 130.303C144.021 129.474 145.525 129 147.38 129V128ZM140.38 134.05H139.38V134.397H140.38H141.38V134.05H140.38ZM140.38 134.397H139.38C139.38 136.287 138.829 137.656 137.925 138.553C137.021 139.451 135.638 140 133.729 140V141V142C136.021 142 137.963 141.333 139.334 139.972C140.706 138.61 141.38 136.678 141.38 134.397H140.38ZM133.729 141V140H119.03V141V142H133.729V141ZM119.03 141V140C117.122 140 115.739 139.451 114.835 138.553C113.931 137.656 113.38 136.287 113.38 134.397H112.38H111.38C111.38 136.678 112.054 138.61 113.426 139.972C114.796 141.333 116.739 142 119.03 142V141ZM112.38 134.397H113.38V134.05H112.38H111.38V134.397H112.38ZM112.38 134.05L113.38 134.05C113.38 131.779 112.522 129.97 111.02 128.75C109.545 127.553 107.549 127 105.38 127V128V129C107.235 129 108.739 129.474 109.759 130.303C110.751 131.108 111.38 132.324 111.38 134.05L112.38 134.05ZM105.38 128V127H105.03V128V129H105.38V128ZM105.03 128V127C103.111 127 101.727 126.469 100.827 125.595C99.9305 124.725 99.3799 123.386 99.3799 121.497H98.3799H97.3799C97.3799 123.778 98.0545 125.691 99.4335 127.03C100.808 128.364 102.75 129 105.03 129V128ZM98.3799 121.497H99.3799V121.25H98.3799H97.3799V121.497H98.3799ZM98.3799 121.25H99.3799C99.3799 116.695 95.9504 113.3 91.3799 113.3L91.3799 114.3L91.3799 115.3C94.8593 115.3 97.3799 117.813 97.3799 121.25H98.3799ZM91.3799 114.3V113.3H91.0303V114.3V115.3H91.3799V114.3ZM91.0303 114.3V113.3C89.083 113.3 88.3592 112.813 87.9856 112.196C87.7652 111.832 87.6049 111.324 87.5066 110.608C87.4084 109.892 87.3799 109.034 87.3799 108H86.3799H85.3799C85.3799 109.051 85.4076 110.023 85.5252 110.879C85.6425 111.735 85.8574 112.542 86.2745 113.231C87.1762 114.721 88.7776 115.3 91.0303 115.3V114.3ZM86.3799 108H87.3799V46.1699H86.3799H85.3799V108H86.3799ZM86.3799 46.1699H87.3799C87.3799 46.0816 87.3869 45.9954 87.4001 45.9115L86.4121 45.7568L85.4241 45.6022C85.3955 45.785 85.3799 45.9746 85.3799 46.1699H86.3799ZM86.4121 45.7568L87.4107 45.8092C87.4962 44.1799 87.7875 43.2136 88.2999 42.636C88.7766 42.0987 89.6297 41.7002 91.3799 41.7002V40.7002V39.7002C89.3701 39.7002 87.8271 40.1553 86.8038 41.3088C85.8162 42.4221 85.5037 43.9842 85.4135 45.7045L86.4121 45.7568ZM91.3799 40.7002V41.7002H92.3799V40.7002V39.7002H91.3799V40.7002ZM92.3799 40.7002V41.7002C94.6616 41.7002 96.4614 40.8495 97.6681 39.3509C98.8504 37.8826 99.3799 35.8982 99.3799 33.75L98.3799 33.75L97.3799 33.75C97.3799 35.598 96.9219 37.0887 96.1104 38.0965C95.3233 39.0739 94.1231 39.7002 92.3799 39.7002V40.7002ZM98.3799 33.75H99.3799V33.5029H98.3799H97.3799V33.75H98.3799ZM98.3799 33.5029H99.3799C99.3799 31.6133 99.9312 30.2444 100.835 29.3476C101.739 28.4497 103.122 27.9004 105.03 27.9004V26.9004V25.9004C102.739 25.9004 100.796 26.5673 99.4255 27.9282C98.0537 29.2901 97.3799 31.2225 97.3799 33.5029H98.3799ZM105.03 26.9004V27.9004H105.38V26.9004V25.9004H105.03V26.9004ZM105.38 26.9004V27.9004C109.95 27.9004 113.38 24.5053 113.38 19.9502L112.38 19.9502L111.38 19.9502C111.38 23.3874 108.859 25.9004 105.38 25.9004V26.9004ZM112.38 19.9502H113.38V19.6025H112.38H111.38V19.9502H112.38ZM112.38 19.6025H113.38C113.38 17.7129 113.931 16.3441 114.835 15.4472C115.739 14.5493 117.122 14 119.03 14V13V12C116.739 12 114.796 12.6669 113.426 14.0279C112.054 15.3898 111.38 17.3222 111.38 19.6025H112.38ZM119.03 13V14H133.729V13V12H119.03V13ZM119.38 27V26C114.829 26 111.38 29.2754 111.38 33.8496L112.38 33.8496L113.38 33.8497C113.38 30.4317 115.881 28 119.38 28V27ZM112.38 33.8496H111.38V34.0977H112.38H113.38V33.8496H112.38ZM112.38 34.0977L111.38 34.0976C111.38 35.9872 110.829 37.3561 109.925 38.253C109.021 39.1508 107.638 39.7002 105.729 39.7002V40.7002V41.7002C108.021 41.7002 109.963 41.0332 111.334 39.6723C112.706 38.3104 113.38 36.378 113.38 34.0977L112.38 34.0977ZM105.729 40.7002V39.7002H105.38V40.7002V41.7002H105.729V40.7002ZM105.38 40.7002V39.7002C100.809 39.7002 97.3799 43.0951 97.3799 47.6504H98.3799H99.3799C99.3799 44.2131 101.9 41.7002 105.38 41.7002V40.7002ZM98.3799 47.6504H97.3799V107.35H98.3799H99.3799V47.6504H98.3799ZM98.3799 107.35H97.3799C97.3799 111.905 100.809 115.3 105.38 115.3V114.3V113.3C101.9 113.3 99.3799 110.787 99.3799 107.35H98.3799ZM105.38 114.3V115.3H105.729V114.3V113.3H105.38V114.3ZM105.729 114.3V115.3C107.638 115.3 109.021 115.849 109.925 116.747C110.829 117.644 111.38 119.013 111.38 120.902L112.38 120.902L113.38 120.902C113.38 118.622 112.706 116.69 111.334 115.328C109.963 113.967 108.021 113.3 105.729 113.3V114.3ZM112.38 120.902H111.38V121.15H112.38H113.38V120.902H112.38ZM112.38 121.15L111.38 121.15C111.38 125.706 114.81 129.1 119.38 129.1V128.1V127.1C115.9 127.1 113.38 124.587 113.38 121.15L112.38 121.15ZM119.38 128.1V129.1H133.38V128.1V127.1H119.38V128.1ZM133.38 128.1V129.1C137.95 129.1 141.38 125.706 141.38 121.15L140.38 121.15L139.38 121.15C139.38 124.587 136.859 127.1 133.38 127.1V128.1ZM140.38 121.15H141.38V120.902H140.38H139.38V121.15H140.38ZM140.38 120.902L141.38 120.902C141.38 119.01 141.933 117.552 142.857 116.574C143.774 115.604 145.155 115 147.03 115V114V113C144.706 113 142.762 113.762 141.403 115.201C140.052 116.632 139.38 118.624 139.38 120.902L140.38 120.902ZM147.03 114V115H147.38V114V113H147.03V114ZM147.38 114V115C149.613 115 151.617 114.262 153.071 112.905C154.533 111.542 155.38 109.609 155.38 107.35H154.38H153.38C153.38 109.087 152.74 110.479 151.707 111.442C150.668 112.411 149.172 113 147.38 113V114ZM154.38 107.35H155.38V47H154.38H153.38V107.35H154.38ZM154.38 47H155.38C155.38 44.7342 154.527 42.8743 153.042 41.5943C151.576 40.3291 149.576 39.7002 147.38 39.7002V40.7002V41.7002C149.209 41.7002 150.709 42.2231 151.736 43.1088C152.746 43.9796 153.38 45.2695 153.38 47H154.38ZM147.38 40.7002L147.38 39.7002C145.479 39.7002 143.993 39.1302 142.991 38.1859C141.995 37.2485 141.38 35.8522 141.38 34L140.38 34L139.38 34C139.38 36.3178 140.164 38.2716 141.619 39.6418C143.067 41.0051 145.081 41.7002 147.38 41.7002L147.38 40.7002ZM140.38 34H141.38C141.38 29.4542 137.96 26.0001 133.38 26L133.38 27L133.38 28C136.85 28.0001 139.38 30.5534 139.38 34H140.38ZM133.38 27V26H119.38V27V28H133.38V27Z" fill="white" mask="url(#path-5-inside-2_558_472)"/>
<path d="M126.138 96.5H127.288C130.498 96.5 133.095 97.4404 134.887 99.1348C136.674 100.826 137.713 103.318 137.713 106.532V109.468C137.713 112.692 136.74 115.182 134.991 116.868C133.24 118.557 130.646 119.5 127.288 119.5H126.138C122.779 119.5 120.186 118.557 118.435 116.868C116.686 115.182 115.713 112.692 115.713 109.468V106.532C115.713 103.392 117.306 100.89 119.431 99.1592C121.433 97.5278 123.863 96.6182 125.765 96.5107L126.138 96.5Z" fill="#FF80DF" stroke="white"/>
<path d="M126.938 103.5H126.488C125.3 103.5 124.369 103.869 123.735 104.507C123.102 105.145 122.713 106.105 122.713 107.389V108.611C122.713 109.904 123.079 110.862 123.696 111.496C124.312 112.128 125.239 112.5 126.488 112.5H126.938C128.187 112.5 129.114 112.128 129.729 111.496C130.347 110.862 130.713 109.904 130.713 108.611V107.389C130.713 106.176 130.137 105.208 129.358 104.532C128.617 103.889 127.73 103.544 127.067 103.504L126.938 103.5Z" fill="#FF80DF" stroke="white"/>
<mask id="path-9-inside-3_558_472" fill="white">
<path d="M47.3496 0C51.5496 0 54 3.50031 54 9.5V9.99902C54 15.7487 56.975 19.999 61 19.999H62.3496C66.5496 19.999 69 23.8587 69 29.8584V30.2139C69 35.9636 70.5 40.2861 75 40.2861H75.3496C79.5495 40.2861 80.9999 42.9186 81 48.918V92.082C80.9999 98.0815 79.5495 102.153 75.3496 102.153H75C70.975 102.153 68.0001 106.834 68 112.584V112.94C68 118.94 65.5496 122.296 61.3496 122.296H61C56.975 122.296 54 125.251 54 131.001V131.5C54 137.5 51.5496 141 47.3496 141H32.6504C28.4504 141 26 137.5 26 131.5V131.001C26 125.251 23.025 122.296 19 122.296H18.6504C14.4504 122.296 12 118.94 12 112.94V112.584C11.9999 106.834 9.02495 102.585 5 102.585H4.65039C0.450413 102.585 4.95962e-06 99.5201 0 93.5205V48.918C3.56066e-05 42.9185 0.800093 39.8545 5 39.8545H6C10.025 39.8545 12 35.6042 12 29.8545V29.498C12.0001 23.4986 14.4505 19.999 18.6504 19.999H19C23.025 19.999 26 15.7487 26 9.99902V9.5C26 3.50031 28.4504 0 32.6504 0H47.3496ZM33 20.1426C28.9751 20.1426 26.0001 24.2486 26 29.998V30.3545C26 36.3542 23.5496 39.8545 19.3496 39.8545H19C14.975 39.8545 12 44.1038 12 49.8535V92.585C12 98.3347 14.975 102.585 19 102.585H19.3496C23.5496 102.585 26 104.5 26 110.5V112.44C26 118.19 28.975 122.439 33 122.439H47C51.025 122.439 54 118.19 54 112.44V112.084C54.0001 106.084 56.4504 102.153 60.6504 102.153H61C65.025 102.153 68 98.3347 68 92.585V48.918C67.9999 43.1685 65.0249 40 61 40C56.8 40 54 36.2136 54 30.2139C53.9999 24.4645 51.0248 20.1427 47 20.1426H33Z"/>
</mask>
<path d="M47.3496 0C51.5496 0 54 3.50031 54 9.5V9.99902C54 15.7487 56.975 19.999 61 19.999H62.3496C66.5496 19.999 69 23.8587 69 29.8584V30.2139C69 35.9636 70.5 40.2861 75 40.2861H75.3496C79.5495 40.2861 80.9999 42.9186 81 48.918V92.082C80.9999 98.0815 79.5495 102.153 75.3496 102.153H75C70.975 102.153 68.0001 106.834 68 112.584V112.94C68 118.94 65.5496 122.296 61.3496 122.296H61C56.975 122.296 54 125.251 54 131.001V131.5C54 137.5 51.5496 141 47.3496 141H32.6504C28.4504 141 26 137.5 26 131.5V131.001C26 125.251 23.025 122.296 19 122.296H18.6504C14.4504 122.296 12 118.94 12 112.94V112.584C11.9999 106.834 9.02495 102.585 5 102.585H4.65039C0.450413 102.585 4.95962e-06 99.5201 0 93.5205V48.918C3.56066e-05 42.9185 0.800093 39.8545 5 39.8545H6C10.025 39.8545 12 35.6042 12 29.8545V29.498C12.0001 23.4986 14.4505 19.999 18.6504 19.999H19C23.025 19.999 26 15.7487 26 9.99902V9.5C26 3.50031 28.4504 0 32.6504 0H47.3496ZM33 20.1426C28.9751 20.1426 26.0001 24.2486 26 29.998V30.3545C26 36.3542 23.5496 39.8545 19.3496 39.8545H19C14.975 39.8545 12 44.1038 12 49.8535V92.585C12 98.3347 14.975 102.585 19 102.585H19.3496C23.5496 102.585 26 104.5 26 110.5V112.44C26 118.19 28.975 122.439 33 122.439H47C51.025 122.439 54 118.19 54 112.44V112.084C54.0001 106.084 56.4504 102.153 60.6504 102.153H61C65.025 102.153 68 98.3347 68 92.585V48.918C67.9999 43.1685 65.0249 40 61 40C56.8 40 54 36.2136 54 30.2139C53.9999 24.4645 51.0248 20.1427 47 20.1426H33Z" fill="black"/>
<path d="M81 48.918L82 48.918L82 48.918L81 48.918ZM81 92.082L82 92.082V92.082H81ZM68 112.584L67 112.584V112.584H68ZM68 112.94L69 112.94V112.94H68ZM12 112.94L11 112.94L11 112.94L12 112.94ZM12 112.584L13 112.584L13 112.584L12 112.584ZM5 102.585L5 101.585H5V102.585ZM0 93.5205L-1 93.5205L-1 93.5205L0 93.5205ZM0 48.918L-1 48.918V48.918H0ZM12 29.498L11 29.498V29.498H12ZM26 29.998L25 29.998V29.998H26ZM12 49.8535L11 49.8535V49.8535H12ZM26 112.44L25 112.44L25 112.44L26 112.44ZM54 112.44L55 112.44V112.44H54ZM54 112.084L53 112.084V112.084H54ZM68 48.918L69 48.918L69 48.9179L68 48.918ZM61 40L61 39L61 39L61 40ZM54 30.2139L55 30.2139L55 30.2138L54 30.2139ZM47 20.1426L47 19.1426H47V20.1426ZM47.3496 0V1C49.1309 1 50.4844 1.72201 51.4306 3.0736C52.408 4.46982 53 6.61604 53 9.5H54H55C55 6.38427 54.3668 3.78049 53.069 1.92663C51.74 0.0281455 49.7684 -1 47.3496 -1V0ZM54 9.5H53V9.99902H54H55V9.5H54ZM54 9.99902H53C53 13.036 53.7844 15.7471 55.1714 17.7286C56.5659 19.7208 58.5979 20.999 61 20.999V19.999V18.999C59.3771 18.999 57.9091 18.1521 56.8099 16.5817C55.7031 15.0006 55 12.7117 55 9.99902H54ZM61 19.999V20.999H62.3496V19.999V18.999H61V19.999ZM62.3496 19.999V20.999C64.0929 20.999 65.452 21.7776 66.4165 23.2316C67.4084 24.7269 68 26.9756 68 29.8584H69H70C70 26.7415 69.3664 24.0605 68.0831 22.126C66.7725 20.1503 64.8063 18.999 62.3496 18.999V19.999ZM69 29.8584H68V30.2139H69H70V29.8584H69ZM69 30.2139H68C68 33.1432 68.3767 35.8549 69.4257 37.8682C69.9578 38.8895 70.6757 39.7555 71.6249 40.3631C72.5785 40.9735 73.7081 41.2861 75 41.2861V40.2861V39.2861C74.0419 39.2861 73.2965 39.0584 72.7032 38.6787C72.1055 38.2961 71.6047 37.7221 71.1993 36.9441C70.3733 35.3587 70 33.0342 70 30.2139H69ZM75 40.2861V41.2861H75.3496V40.2861V39.2861H75V40.2861ZM75.3496 40.2861V41.2861C77.2124 41.2861 78.2496 41.8478 78.9038 42.8855C79.6304 44.0382 80 45.9474 80 48.918L81 48.918L82 48.918C82 45.8891 81.6443 43.4824 80.5957 41.819C79.4747 40.0407 77.6867 39.2861 75.3496 39.2861V40.2861ZM81 48.918H80V92.082H81H82V48.918H81ZM81 92.082L80 92.082C80 95.0352 79.6373 97.3628 78.8561 98.9188C78.4732 99.6813 78.0052 100.228 77.4567 100.587C76.9132 100.942 76.2308 101.153 75.3496 101.153V102.153V103.153C76.5684 103.153 77.6422 102.855 78.5519 102.26C79.4566 101.668 80.1386 100.822 80.6434 99.8162C81.6374 97.8364 82 95.1283 82 92.082L81 92.082ZM75.3496 102.153V101.153H75V102.153V103.153H75.3496V102.153ZM75 102.153V101.153C72.5586 101.153 70.5302 102.58 69.1561 104.662C67.7835 106.741 67 109.548 67 112.584L68 112.584L69 112.584C69 109.87 69.7041 107.462 70.8252 105.763C71.9449 104.067 73.4165 103.153 75 103.153V102.153ZM68 112.584H67V112.94H68H69V112.584H68ZM68 112.94L67 112.94C67 115.825 66.4077 117.93 65.4367 119.286C64.4979 120.597 63.1465 121.296 61.3496 121.296V122.296V123.296C63.7527 123.296 65.7264 122.317 67.0629 120.45C68.367 118.629 69 116.056 69 112.94L68 112.94ZM61.3496 122.296V121.296H61V122.296V123.296H61.3496V122.296ZM61 122.296V121.296C58.7281 121.296 56.688 122.139 55.2307 123.842C53.7868 125.53 53 127.962 53 131.001H54H55C55 128.291 55.7007 126.37 56.7505 125.142C57.787 123.931 59.2469 123.296 61 123.296V122.296ZM54 131.001H53V131.5H54H55V131.001H54ZM54 131.5H53C53 134.384 52.408 136.53 51.4306 137.926C50.4844 139.278 49.1309 140 47.3496 140V141V142C49.7684 142 51.74 140.972 53.069 139.073C54.3668 137.22 55 134.616 55 131.5H54ZM47.3496 141V140H32.6504V141V142H47.3496V141ZM32.6504 141V140C30.8691 140 29.5156 139.278 28.5694 137.926C27.592 136.53 27 134.384 27 131.5H26H25C25 134.616 25.6332 137.22 26.931 139.073C28.26 140.972 30.2316 142 32.6504 142V141ZM26 131.5H27V131.001H26H25V131.5H26ZM26 131.001H27C27 127.962 26.2132 125.53 24.7693 123.842C23.312 122.139 21.2719 121.296 19 121.296V122.296V123.296C20.7531 123.296 22.213 123.931 23.2495 125.142C24.2993 126.37 25 128.291 25 131.001H26ZM19 122.296V121.296H18.6504V122.296V123.296H19V122.296ZM18.6504 122.296V121.296C16.8535 121.296 15.5021 120.597 14.5633 119.286C13.5923 117.93 13 115.825 13 112.94L12 112.94L11 112.94C11 116.056 11.633 118.629 12.9371 120.45C14.2736 122.317 16.2473 123.296 18.6504 123.296V122.296ZM12 112.94H13V112.584H12H11V112.94H12ZM12 112.584L13 112.584C13 109.547 12.2156 106.836 10.8285 104.855C9.43401 102.863 7.40203 101.585 5 101.585L5 102.585L5 103.585C6.62292 103.585 8.09091 104.432 9.19013 106.002C10.2968 107.583 11 109.871 11 112.584L12 112.584ZM5 102.585V101.585H4.65039V102.585V103.585H5V102.585ZM4.65039 102.585V101.585C3.71588 101.585 3.09648 101.414 2.66775 101.156C2.25242 100.906 1.92652 100.52 1.67201 99.9149C1.12663 98.6181 1 96.5648 1 93.5205L0 93.5205L-1 93.5205C-0.999998 96.4759 -0.901417 98.9548 -0.1716 100.69C0.211495 101.601 0.785692 102.357 1.63605 102.869C2.47302 103.373 3.48492 103.585 4.65039 103.585V102.585ZM0 93.5205H1V48.918H0H-1V93.5205H0ZM0 48.918L1 48.918C1.00002 45.9023 1.21228 43.8536 1.82718 42.5679C2.11742 41.961 2.483 41.5586 2.94369 41.2949C3.4155 41.0248 4.06765 40.8545 5 40.8545V39.8545V38.8545C3.83239 38.8545 2.80957 39.0672 1.95015 39.5591C1.07961 40.0574 0.457681 40.7959 0.0229122 41.705C-0.812198 43.4512 -0.999982 45.9342 -1 48.918L0 48.918ZM5 39.8545V40.8545H6V39.8545V38.8545H5V39.8545ZM6 39.8545V40.8545C8.44301 40.8545 10.2445 39.5316 11.382 37.499C12.4941 35.5118 13 32.8209 13 29.8545H12H11C11 32.6378 10.5184 34.9469 9.63673 36.5223C8.7805 38.0522 7.58199 38.8545 6 38.8545V39.8545ZM12 29.8545H13V29.498H12H11V29.8545H12ZM12 29.498L13 29.4981C13.0001 26.6142 13.5921 24.4683 14.5695 23.0723C15.5156 21.7209 16.8691 20.999 18.6504 20.999V19.999V18.999C16.2318 18.999 14.2602 20.0269 12.9311 21.9252C11.6333 23.7789 11.0001 26.3824 11 29.498L12 29.498ZM18.6504 19.999V20.999H19V19.999V18.999H18.6504V19.999ZM19 19.999V20.999C21.4021 20.999 23.4341 19.7208 24.8286 17.7286C26.2156 15.7471 27 13.036 27 9.99902H26H25C25 12.7117 24.2969 15.0006 23.1901 16.5817C22.0909 18.1521 20.6229 18.999 19 18.999V19.999ZM26 9.99902H27V9.5H26H25V9.99902H26ZM26 9.5H27C27 6.61604 27.592 4.46982 28.5694 3.0736C29.5156 1.72201 30.8691 1 32.6504 1V0V-1C30.2316 -1 28.26 0.0281455 26.931 1.92663C25.6332 3.78049 25 6.38427 25 9.5H26ZM32.6504 0V1H47.3496V0V-1H32.6504V0ZM33 20.1426V19.1426C30.6115 19.1426 28.5785 20.3714 27.1771 22.3329C25.7848 24.2816 25.0001 26.9607 25 29.998L26 29.998L27 29.9981C27.0001 27.2859 27.7029 25.0373 28.8044 23.4956C29.8967 21.9667 31.3636 21.1426 33 21.1426V20.1426ZM26 29.998H25V30.3545H26H27V29.998H26ZM26 30.3545H25C25 33.2385 24.408 35.3847 23.4306 36.7809C22.4844 38.1325 21.1309 38.8545 19.3496 38.8545V39.8545V40.8545C21.7684 40.8545 23.74 39.8263 25.069 37.9279C26.3668 36.074 27 33.4702 27 30.3545H26ZM19.3496 39.8545V38.8545H19V39.8545V40.8545H19.3496V39.8545ZM19 39.8545V38.8545C16.598 38.8545 14.566 40.1324 13.1714 42.1244C11.7844 44.1056 11 46.8165 11 49.8535L12 49.8535L13 49.8535C13 47.1408 13.7031 44.8522 14.8098 43.2714C15.9091 41.7013 17.3771 40.8545 19 40.8545V39.8545ZM12 49.8535H11V92.585H12H13V49.8535H12ZM12 92.585H11C11 95.622 11.7844 98.3331 13.1714 100.315C14.5659 102.307 16.5979 103.585 19 103.585V102.585V101.585C17.3771 101.585 15.9091 100.738 14.8099 99.1676C13.7031 97.5865 13 95.2977 13 92.585H12ZM19 102.585V103.585H19.3496V102.585V101.585H19V102.585ZM19.3496 102.585V103.585C21.3159 103.585 22.6476 104.034 23.516 104.972C24.4033 105.93 25 107.604 25 110.5H26H27C27 107.396 26.3715 105.112 24.9836 103.613C23.5768 102.094 21.5833 101.585 19.3496 101.585V102.585ZM26 110.5H25V112.44H26H27V110.5H26ZM26 112.44L25 112.44C25 115.477 25.7844 118.188 27.1715 120.17C28.566 122.162 30.598 123.439 33 123.439V122.439V121.439C31.3771 121.439 29.9091 120.593 28.8099 119.023C27.7031 117.442 27 115.153 27 112.44L26 112.44ZM33 122.439V123.439H47V122.439V121.439H33V122.439ZM47 122.439V123.439C49.402 123.439 51.434 122.162 52.8286 120.17C54.2156 118.188 55 115.477 55 112.44L54 112.44L53 112.44C53 115.153 52.2969 117.442 51.1901 119.023C50.0909 120.593 48.6229 121.439 47 121.439V122.439ZM54 112.44H55V112.084H54H53V112.44H54ZM54 112.084L55 112.084C55 109.201 55.5915 106.933 56.5862 105.418C57.5543 103.943 58.9144 103.153 60.6504 103.153V102.153V101.153C58.1864 101.153 56.2213 102.329 54.9143 104.32C53.6337 106.27 53 108.967 53 112.084L54 112.084ZM60.6504 102.153V103.153H61V102.153V101.153H60.6504V102.153ZM61 102.153V103.153C63.3607 103.153 65.3959 102.022 66.8112 100.123C68.2147 98.2393 69 95.6231 69 92.585H68H67C67 95.2965 66.2978 97.4646 65.2075 98.9278C64.1292 100.375 62.6643 101.153 61 101.153V102.153ZM68 92.585H69V48.918H68H67V92.585H68ZM68 48.918L69 48.9179C68.9999 45.8789 68.2134 43.4026 66.7805 41.6664C65.3335 39.9131 63.2945 39 61 39V40V41C62.7304 41 64.1913 41.6712 65.238 42.9395C66.2989 44.2249 66.9999 46.2076 67 48.918L68 48.918ZM61 40L61 39C59.2382 39 57.7829 38.2217 56.7357 36.7714C55.6685 35.2933 55 33.0718 55 30.2139L54 30.2139L53 30.2139C53 33.3557 53.7315 36.0272 55.1143 37.9422C56.5171 39.885 58.5618 41 61 41L61 40ZM54 30.2139L55 30.2138C54.9999 27.1772 54.2156 24.4503 52.8312 22.4526C51.4401 20.4455 49.4087 19.1427 47 19.1426L47 20.1426L47 21.1426C48.6161 21.1426 50.0846 22.0008 51.1873 23.5919C52.2966 25.1924 52.9999 27.5011 53 30.2139L54 30.2139ZM47 20.1426V19.1426H33V20.1426V21.1426H47V20.1426Z" fill="white" mask="url(#path-9-inside-3_558_472)"/>
<path d="M105.704 151C106.434 159.558 101.994 166.53 92.755 169.735L87.7189 171.482C81.7179 173.564 66.3271 173.094 63.1427 171.482C41.4853 160.52 74.506 142 84.213 142C101.713 142 104.974 142.442 105.704 151Z" fill="#FF80DF"/>
</svg>
