<svg width="186" height="212" viewBox="0 0 186 212" fill="none" xmlns="http://www.w3.org/2000/svg">
<path d="M36.68 88.8862L35.9542 88.9772C34.0657 89.2138 32.6101 90.354 31.715 92.329C30.8105 94.3249 30.4842 97.172 30.9308 100.737L31.3307 103.929C31.7781 107.499 32.7531 110.182 34.0993 111.894C35.4271 113.583 37.1159 114.334 39.0999 114.086L39.8257 113.995C41.8095 113.746 43.2611 112.602 44.1312 110.637C45.0133 108.646 45.2954 105.806 44.8481 102.235L44.4482 99.0433L44.355 98.3936C43.834 95.1989 42.5256 92.7861 41.0567 91.1881C39.5645 89.5647 37.9717 88.8431 36.8887 88.8709L36.68 88.8862Z" fill="#FF80DF" stroke="white"/>
<path d="M36.4704 104.882L36.1457 104.923C35.3679 105.021 34.7854 105.416 34.4175 106.07C34.0398 106.741 33.8687 107.723 34.0281 108.995L34.1762 110.177C34.3365 111.457 34.727 112.367 35.2475 112.923C35.7508 113.46 36.4097 113.704 37.233 113.601L37.5576 113.561C38.3808 113.457 38.9582 113.058 39.3134 112.414C39.6809 111.747 39.8355 110.768 39.6752 109.488L39.5271 108.306C39.3746 107.089 38.8235 106.195 38.1942 105.625C37.6268 105.111 37.0347 104.89 36.631 104.876L36.4704 104.882Z" fill="#FF80DF" stroke="white"/>
<mask id="path-3-inside-1_558_470" fill="white">
<path d="M135.328 13.511C139.495 12.9889 142.229 15.098 142.747 19.2356L142.79 19.5806C143.287 23.5457 146.606 26.107 150.6 25.6067L151.939 25.4389C156.107 24.9168 158.872 27.2739 159.39 31.4116L159.421 31.6567C159.917 35.622 161.779 38.416 166.244 37.8566L166.591 37.8131C170.759 37.291 172.425 38.9265 172.944 43.0641L180.402 102.599C180.921 106.736 179.833 109.725 175.666 110.247L175.319 110.29C171.325 110.791 168.778 114.389 169.275 118.354L169.305 118.599C169.824 122.737 167.682 125.357 163.515 125.879L163.168 125.922C159.174 126.422 156.478 128.83 156.975 132.795L157.018 133.14C157.536 137.278 155.407 139.996 151.24 140.518L136.655 142.345C132.487 142.868 129.753 140.759 129.235 136.621L129.192 136.276C128.695 132.311 125.488 130.643 121.494 131.143L121.147 131.187C116.98 131.709 114.258 129.699 113.74 125.561L113.709 125.316C113.212 121.351 109.893 118.789 105.899 119.29L105.553 119.333C101.385 119.855 100.673 117.798 100.155 113.66L92.572 53.1335C92.0536 48.9958 92.5826 46.7831 96.75 46.261L97.7423 46.1367C101.736 45.6363 103.329 42.4598 102.832 38.4945L102.801 38.2494C102.283 34.1117 104.412 31.3934 108.579 30.8713L108.926 30.8278C112.92 30.3275 115.504 27.0265 115.008 23.0614L114.964 22.7164C114.446 18.5788 116.575 15.8605 120.742 15.3384L135.328 13.511ZM122.83 29.1863C118.836 29.6866 116.239 32.8879 116.736 36.853L116.766 37.0991C117.285 41.2366 115.156 43.955 110.988 44.4771L110.641 44.5206C106.648 45.021 104.063 48.3218 104.56 52.2871L111.981 111.523C112.478 115.488 115.797 118.05 119.791 117.549L120.138 117.506C124.305 116.984 127.039 119.093 127.557 123.23L127.588 123.477C128.085 127.442 131.404 130.002 135.398 129.502L149.289 127.761C153.283 127.261 155.868 123.961 155.371 119.996L155.34 119.75C154.822 115.612 156.913 112.596 161.081 112.074L161.428 112.031C165.422 111.53 168.044 108.527 167.547 104.562L160.045 44.6802C159.548 40.715 156.309 38.7991 152.316 39.2995C148.148 39.8216 145.055 37.6591 144.537 33.5214C144.04 29.5562 140.715 26.9456 136.721 27.4459L122.83 29.1863Z"/>
</mask>
<path d="M135.328 13.511C139.495 12.9889 142.229 15.098 142.747 19.2356L142.79 19.5806C143.287 23.5457 146.606 26.107 150.6 25.6067L151.939 25.4389C156.107 24.9168 158.872 27.2739 159.39 31.4116L159.421 31.6567C159.917 35.622 161.779 38.416 166.244 37.8566L166.591 37.8131C170.759 37.291 172.425 38.9265 172.944 43.0641L180.402 102.599C180.921 106.736 179.833 109.725 175.666 110.247L175.319 110.29C171.325 110.791 168.778 114.389 169.275 118.354L169.305 118.599C169.824 122.737 167.682 125.357 163.515 125.879L163.168 125.922C159.174 126.422 156.478 128.83 156.975 132.795L157.018 133.14C157.536 137.278 155.407 139.996 151.24 140.518L136.655 142.345C132.487 142.868 129.753 140.759 129.235 136.621L129.192 136.276C128.695 132.311 125.488 130.643 121.494 131.143L121.147 131.187C116.98 131.709 114.258 129.699 113.74 125.561L113.709 125.316C113.212 121.351 109.893 118.789 105.899 119.29L105.553 119.333C101.385 119.855 100.673 117.798 100.155 113.66L92.572 53.1335C92.0536 48.9958 92.5826 46.7831 96.75 46.261L97.7423 46.1367C101.736 45.6363 103.329 42.4598 102.832 38.4945L102.801 38.2494C102.283 34.1117 104.412 31.3934 108.579 30.8713L108.926 30.8278C112.92 30.3275 115.504 27.0265 115.008 23.0614L114.964 22.7164C114.446 18.5788 116.575 15.8605 120.742 15.3384L135.328 13.511ZM122.83 29.1863C118.836 29.6866 116.239 32.8879 116.736 36.853L116.766 37.0991C117.285 41.2366 115.156 43.955 110.988 44.4771L110.641 44.5206C106.648 45.021 104.063 48.3218 104.56 52.2871L111.981 111.523C112.478 115.488 115.797 118.05 119.791 117.549L120.138 117.506C124.305 116.984 127.039 119.093 127.557 123.23L127.588 123.477C128.085 127.442 131.404 130.002 135.398 129.502L149.289 127.761C153.283 127.261 155.868 123.961 155.371 119.996L155.34 119.75C154.822 115.612 156.913 112.596 161.081 112.074L161.428 112.031C165.422 111.53 168.044 108.527 167.547 104.562L160.045 44.6802C159.548 40.715 156.309 38.7991 152.316 39.2995C148.148 39.8216 145.055 37.6591 144.537 33.5214C144.04 29.5562 140.715 26.9456 136.721 27.4459L122.83 29.1863Z" fill="black"/>
<path d="M135.328 13.511L135.203 12.5188L135.328 13.511ZM142.79 19.5806L141.798 19.7049L141.798 19.7049L142.79 19.5806ZM166.244 37.8566L166.369 38.8488L166.244 37.8566ZM166.591 37.8131L166.467 36.8209L166.591 37.8131ZM175.666 110.247L175.79 111.239L175.666 110.247ZM175.319 110.29L175.195 109.298L175.319 110.29ZM169.275 118.354L170.267 118.23L169.275 118.354ZM169.305 118.599L168.313 118.724L169.305 118.599ZM163.515 125.879L163.639 126.871L163.515 125.879ZM163.168 125.922L163.044 124.93L163.168 125.922ZM156.975 132.795L155.982 132.919L155.982 132.919L156.975 132.795ZM157.018 133.14L156.025 133.264L157.018 133.14ZM151.24 140.518L151.115 139.526L151.24 140.518ZM136.655 142.345L136.779 143.338L136.655 142.345ZM129.192 136.276L130.184 136.152L130.184 136.152L129.192 136.276ZM121.494 131.143L121.618 132.135L121.494 131.143ZM121.147 131.187L121.023 130.194L121.147 131.187ZM105.899 119.29L105.775 118.297L105.775 118.297L105.899 119.29ZM105.553 119.333L105.677 120.325L105.553 119.333ZM96.75 46.261L96.6257 45.2687L96.75 46.261ZM97.7423 46.1367L97.8666 47.1289L97.7423 46.1367ZM102.832 38.4945L103.824 38.3702L103.824 38.3702L102.832 38.4945ZM115.008 23.0614L116 22.9371L116 22.9371L115.008 23.0614ZM120.742 15.3384L120.867 16.3306L120.742 15.3384ZM122.83 29.1863L122.705 28.1941L122.83 29.1863ZM116.736 36.853L115.743 36.9772L115.743 36.9773L116.736 36.853ZM116.766 37.0991L117.759 36.9748L117.759 36.9748L116.766 37.0991ZM110.988 44.4771L111.113 45.4694L110.988 44.4771ZM110.641 44.5206L110.517 43.5284L110.641 44.5206ZM119.791 117.549L119.915 118.542L119.791 117.549ZM120.138 117.506L120.013 116.514L120.138 117.506ZM127.557 123.23L128.55 123.106L128.55 123.106L127.557 123.23ZM127.588 123.477L126.596 123.601L126.596 123.601L127.588 123.477ZM135.398 129.502L135.522 130.494L135.398 129.502ZM149.289 127.761L149.165 126.769L149.289 127.761ZM155.371 119.996L156.363 119.872L156.363 119.871L155.371 119.996ZM155.34 119.75L154.348 119.874L154.348 119.874L155.34 119.75ZM161.081 112.074L161.205 113.066L161.081 112.074ZM161.428 112.031L161.303 111.038L161.428 112.031ZM152.316 39.2995L152.191 38.3072L152.191 38.3072L152.316 39.2995ZM144.537 33.5214L143.545 33.6457L143.545 33.6457L144.537 33.5214ZM136.721 27.4459L136.597 26.4537L136.597 26.4537L136.721 27.4459ZM135.328 13.511L135.452 14.5033C137.346 14.266 138.786 14.6392 139.795 15.4177C140.803 16.1953 141.52 17.485 141.755 19.36L142.747 19.2356L143.739 19.1113C143.456 16.8486 142.547 15.015 141.017 13.8342C139.487 12.6542 137.477 12.234 135.203 12.5188L135.328 13.511ZM142.747 19.2356L141.755 19.36L141.798 19.7049L142.79 19.5806L143.783 19.4563L143.739 19.1113L142.747 19.2356ZM142.79 19.5806L141.798 19.7049C142.365 24.2247 146.189 27.1671 150.724 26.5989L150.6 25.6067L150.476 24.6145C147.023 25.047 144.21 22.8668 143.783 19.4563L142.79 19.5806ZM150.6 25.6067L150.724 26.5989L152.064 26.4312L151.939 25.4389L151.815 24.4467L150.476 24.6145L150.6 25.6067ZM151.939 25.4389L152.064 26.4312C153.93 26.1973 155.375 26.6159 156.401 27.4528C157.434 28.2953 158.163 29.659 158.398 31.5359L159.39 31.4116L160.382 31.2873C160.099 29.0265 159.186 27.1428 157.665 25.9028C156.137 24.6573 154.116 24.1584 151.815 24.4467L151.939 25.4389ZM159.39 31.4116L158.398 31.5359L158.428 31.781L159.421 31.6567L160.413 31.5324L160.382 31.2873L159.39 31.4116ZM159.421 31.6567L158.428 31.781C158.689 33.8593 159.323 35.7997 160.625 37.1481C161.974 38.545 163.894 39.1589 166.369 38.8488L166.244 37.8566L166.12 36.8643C164.13 37.1136 162.886 36.6102 162.064 35.7587C161.194 34.8586 160.649 33.4195 160.413 31.5324L159.421 31.6567ZM166.244 37.8566L166.369 38.8488L166.716 38.8053L166.591 37.8131L166.467 36.8209L166.12 36.8643L166.244 37.8566ZM166.591 37.8131L166.716 38.8053C168.684 38.5587 169.796 38.8586 170.484 39.4498C171.198 40.0623 171.701 41.1912 171.951 43.1884L172.944 43.0641L173.936 42.9398C173.668 40.7995 173.079 39.0417 171.787 37.9326C170.471 36.8022 168.666 36.5453 166.467 36.8209L166.591 37.8131ZM172.944 43.0641L171.951 43.1884L179.41 102.723L180.402 102.599L181.395 102.474L173.936 42.9398L172.944 43.0641ZM180.402 102.599L179.41 102.723C179.659 104.709 179.494 106.24 178.914 107.298C178.372 108.289 177.378 109.025 175.542 109.255L175.666 110.247L175.79 111.239C178.122 110.947 179.755 109.927 180.669 108.259C181.545 106.658 181.664 104.626 181.395 102.474L180.402 102.599ZM175.666 110.247L175.542 109.255L175.195 109.298L175.319 110.29L175.443 111.283L175.79 111.239L175.666 110.247ZM175.319 110.29L175.195 109.298C170.605 109.873 167.723 114.014 168.282 118.479L169.275 118.354L170.267 118.23C169.833 114.764 172.045 111.708 175.443 111.283L175.319 110.29ZM169.275 118.354L168.282 118.479L168.313 118.724L169.305 118.599L170.298 118.475L170.267 118.23L169.275 118.354ZM169.305 118.599L168.313 118.724C168.548 120.598 168.168 121.995 167.387 122.97C166.602 123.949 165.296 124.648 163.391 124.886L163.515 125.879L163.639 126.871C165.902 126.587 167.75 125.715 168.948 124.22C170.15 122.72 170.581 120.739 170.298 118.475L169.305 118.599ZM163.515 125.879L163.391 124.886L163.044 124.93L163.168 125.922L163.292 126.914L163.639 126.871L163.515 125.879ZM163.168 125.922L163.044 124.93C160.891 125.2 158.979 125.996 157.665 127.368C156.327 128.765 155.7 130.666 155.982 132.919L156.975 132.795L157.967 132.671C157.752 130.959 158.226 129.674 159.11 128.751C160.018 127.803 161.451 127.145 163.292 126.914L163.168 125.922ZM156.975 132.795L155.982 132.919L156.025 133.264L157.018 133.14L158.01 133.016L157.967 132.671L156.975 132.795ZM157.018 133.14L156.025 133.264C156.26 135.139 155.883 136.566 155.099 137.568C154.313 138.572 153.009 139.289 151.115 139.526L151.24 140.518L151.364 141.51C153.638 141.226 155.482 140.322 156.673 138.802C157.865 137.28 158.293 135.278 158.01 133.016L157.018 133.14ZM151.24 140.518L151.115 139.526L136.53 141.353L136.655 142.345L136.779 143.338L151.364 141.51L151.24 140.518ZM136.655 142.345L136.53 141.353C134.636 141.59 133.196 141.217 132.187 140.439C131.179 139.661 130.462 138.372 130.227 136.497L129.235 136.621L128.243 136.745C128.526 139.008 129.435 140.842 130.965 142.022C132.495 143.202 134.505 143.623 136.779 143.338L136.655 142.345ZM129.235 136.621L130.227 136.497L130.184 136.152L129.192 136.276L128.199 136.4L128.243 136.745L129.235 136.621ZM129.192 136.276L130.184 136.152C129.902 133.898 128.825 132.21 127.183 131.186C125.572 130.181 123.522 129.881 121.37 130.151L121.494 131.143L121.618 132.135C123.459 131.905 125.01 132.189 126.125 132.884C127.209 133.56 127.985 134.688 128.199 136.4L129.192 136.276ZM121.494 131.143L121.37 130.151L121.023 130.194L121.147 131.187L121.271 132.179L121.618 132.135L121.494 131.143ZM121.147 131.187L121.023 130.194C119.118 130.433 117.679 130.078 116.677 129.323C115.68 128.571 114.967 127.311 114.732 125.437L113.74 125.561L112.748 125.685C113.031 127.949 113.938 129.763 115.473 130.92C117.003 132.073 119.009 132.462 121.271 132.179L121.147 131.187ZM113.74 125.561L114.732 125.437L114.701 125.191L113.709 125.316L112.717 125.44L112.748 125.685L113.74 125.561ZM113.709 125.316L114.701 125.191C114.135 120.672 110.31 117.729 105.775 118.297L105.899 119.29L106.024 120.282C109.476 119.849 112.29 122.029 112.717 125.44L113.709 125.316ZM105.899 119.29L105.775 118.297L105.428 118.341L105.553 119.333L105.677 120.325L106.024 120.282L105.899 119.29ZM105.553 119.333L105.428 118.341C103.496 118.583 102.717 118.19 102.27 117.624C102.006 117.29 101.784 116.807 101.597 116.108C101.411 115.41 101.276 114.562 101.147 113.536L100.155 113.66L99.1628 113.785C99.2935 114.828 99.4418 115.788 99.6649 116.624C99.8877 117.458 100.201 118.232 100.701 118.864C101.781 120.231 103.442 120.605 105.677 120.325L105.553 119.333ZM100.155 113.66L101.147 113.536L93.5642 53.0092L92.572 53.1335L91.5797 53.2578L99.1628 113.785L100.155 113.66ZM92.572 53.1335L93.5642 53.0092C93.3044 50.935 93.3602 49.6344 93.7917 48.8014C94.1631 48.0846 94.9442 47.495 96.8744 47.2532L96.75 46.261L96.6257 45.2687C94.3884 45.549 92.8213 46.3268 92.0159 47.8814C91.2707 49.3197 91.3212 51.1943 91.5797 53.2578L92.572 53.1335ZM96.75 46.261L96.8744 47.2532L97.8666 47.1289L97.7423 46.1367L97.618 45.1444L96.6257 45.2687L96.75 46.261ZM97.7423 46.1367L97.8666 47.1289C100.131 46.8453 101.811 45.7774 102.822 44.1404C103.812 42.5366 104.091 40.5018 103.824 38.3702L102.832 38.4945L101.84 38.6188C102.069 40.4525 101.8 41.9886 101.12 43.0894C100.461 44.1571 99.3477 44.9277 97.618 45.1444L97.7423 46.1367ZM102.832 38.4945L103.824 38.3702L103.793 38.125L102.801 38.2494L101.809 38.3737L101.84 38.6188L102.832 38.4945ZM102.801 38.2494L103.793 38.125C103.558 36.2501 103.935 34.8233 104.72 33.8211C105.506 32.8178 106.81 32.1008 108.703 31.8635L108.579 30.8713L108.455 29.8791C106.181 30.1639 104.337 31.0671 103.146 32.5879C101.954 34.1098 101.525 36.111 101.809 38.3737L102.801 38.2494ZM108.579 30.8713L108.703 31.8635L109.05 31.8201L108.926 30.8278L108.802 29.8356L108.455 29.8791L108.579 30.8713ZM108.926 30.8278L109.05 31.8201C113.585 31.2519 116.566 27.4569 116 22.9371L115.008 23.0614L114.015 23.1857C114.443 26.5962 112.254 29.4031 108.802 29.8356L108.926 30.8278ZM115.008 23.0614L116 22.9371L115.957 22.5921L114.964 22.7164L113.972 22.8407L114.015 23.1857L115.008 23.0614ZM114.964 22.7164L115.957 22.5921C115.722 20.7171 116.099 19.2903 116.884 18.2881C117.669 17.2848 118.973 16.5679 120.867 16.3306L120.742 15.3384L120.618 14.3461C118.345 14.631 116.5 15.5342 115.309 17.055C114.117 18.5768 113.689 20.578 113.972 22.8407L114.964 22.7164ZM120.742 15.3384L120.867 16.3306L135.452 14.5033L135.328 13.511L135.203 12.5188L120.618 14.3461L120.742 15.3384ZM122.83 29.1863L122.705 28.1941C118.19 28.7598 115.175 32.4386 115.743 36.9772L116.736 36.853L117.728 36.7287C117.303 33.3372 119.482 30.6135 122.954 30.1785L122.83 29.1863ZM116.736 36.853L115.743 36.9773L115.774 37.2234L116.766 37.0991L117.759 36.9748L117.728 36.7286L116.736 36.853ZM116.766 37.0991L115.774 37.2234C116.009 39.0983 115.632 40.5251 114.847 41.5273C114.061 42.5307 112.758 43.2476 110.864 43.4849L110.988 44.4771L111.113 45.4694C113.386 45.1845 115.231 44.2813 116.422 42.7605C117.614 41.2386 118.042 39.2374 117.759 36.9748L116.766 37.0991ZM110.988 44.4771L110.864 43.4849L110.517 43.5284L110.641 44.5206L110.766 45.5128L111.113 45.4694L110.988 44.4771ZM110.641 44.5206L110.517 43.5284C105.982 44.0965 103.001 47.8915 103.568 52.4114L104.56 52.2871L105.552 52.1628C105.125 48.7522 107.313 45.9454 110.766 45.5128L110.641 44.5206ZM104.56 52.2871L103.568 52.4114L110.989 111.648L111.981 111.523L112.973 111.399L105.552 52.1628L104.56 52.2871ZM111.981 111.523L110.989 111.648C111.555 116.167 115.38 119.11 119.915 118.542L119.791 117.549L119.667 116.557C116.214 116.99 113.401 114.809 112.973 111.399L111.981 111.523ZM119.791 117.549L119.915 118.542L120.262 118.498L120.138 117.506L120.013 116.514L119.667 116.557L119.791 117.549ZM120.138 117.506L120.262 118.498C122.156 118.261 123.596 118.634 124.605 119.413C125.613 120.19 126.33 121.48 126.565 123.355L127.557 123.23L128.55 123.106C128.266 120.843 127.357 119.01 125.827 117.829C124.297 116.649 122.287 116.229 120.013 116.514L120.138 117.506ZM127.557 123.23L126.565 123.355L126.596 123.601L127.588 123.477L128.58 123.352L128.55 123.106L127.557 123.23ZM127.588 123.477L126.596 123.601C127.162 128.121 130.987 131.062 135.522 130.494L135.398 129.502L135.273 128.509C131.821 128.942 129.008 126.762 128.58 123.352L127.588 123.477ZM135.398 129.502L135.522 130.494L149.413 128.754L149.289 127.761L149.165 126.769L135.273 128.509L135.398 129.502ZM149.289 127.761L149.413 128.754C153.948 128.185 156.929 124.391 156.363 119.872L155.371 119.996L154.379 120.12C154.806 123.53 152.617 126.337 149.165 126.769L149.289 127.761ZM155.371 119.996L156.363 119.871L156.332 119.625L155.34 119.75L154.348 119.874L154.379 120.12L155.371 119.996ZM155.34 119.75L156.332 119.625C156.097 117.748 156.465 116.232 157.26 115.147C158.049 114.07 159.344 113.3 161.205 113.066L161.081 112.074L160.957 111.082C158.65 111.371 156.816 112.369 155.647 113.965C154.484 115.553 154.065 117.614 154.348 119.874L155.34 119.75ZM161.081 112.074L161.205 113.066L161.552 113.023L161.428 112.031L161.303 111.038L160.957 111.082L161.081 112.074ZM161.428 112.031L161.552 113.023C163.768 112.745 165.664 111.764 166.939 110.236C168.219 108.702 168.82 106.679 168.539 104.437L167.547 104.562L166.554 104.686C166.77 106.41 166.308 107.871 165.403 108.955C164.493 110.046 163.082 110.816 161.303 111.038L161.428 112.031ZM167.547 104.562L168.539 104.437L161.037 44.5559L160.045 44.6802L159.052 44.8045L166.554 104.686L167.547 104.562ZM160.045 44.6802L161.037 44.5559C160.755 42.3077 159.677 40.5683 158.045 39.4827C156.433 38.4097 154.37 38.0342 152.191 38.3072L152.316 39.2995L152.44 40.2917C154.255 40.0644 155.808 40.3966 156.938 41.1478C158.048 41.8863 158.837 43.0874 159.052 44.8045L160.045 44.6802ZM152.316 39.2995L152.191 38.3072C150.305 38.5435 148.76 38.1626 147.648 37.3503C146.544 36.5439 145.76 35.235 145.529 33.3971L144.537 33.5214L143.545 33.6457C143.833 35.9456 144.854 37.7866 146.468 38.9654C148.074 40.1382 150.159 40.5775 152.44 40.2917L152.316 39.2995ZM144.537 33.5214L145.529 33.3971C144.964 28.8866 141.141 25.8844 136.597 26.4537L136.721 27.4459L136.845 28.4382C140.288 28.0069 143.116 30.2259 143.545 33.6457L144.537 33.5214ZM136.721 27.4459L136.597 26.4537L122.705 28.1941L122.83 29.1863L122.954 30.1785L136.845 28.4382L136.721 27.4459Z" fill="white" mask="url(#path-3-inside-1_558_470)"/>
<mask id="path-5-inside-2_558_470" fill="white">
<path d="M135.328 13.511C139.495 12.9889 142.229 15.098 142.747 19.2356L142.79 19.5806C143.287 23.5457 146.606 26.107 150.6 25.6067L151.939 25.4389C156.107 24.9168 158.872 27.2739 159.39 31.4116L159.421 31.6567C159.917 35.622 161.779 38.416 166.244 37.8566L166.591 37.8131C170.759 37.291 173.418 38.8022 173.936 42.9398L181.395 102.474C181.913 106.612 179.833 109.725 175.666 110.247L175.319 110.29C171.325 110.791 168.778 114.389 169.275 118.354L169.305 118.599C169.824 122.737 167.682 125.357 163.515 125.879L163.168 125.922C159.174 126.422 156.478 128.83 156.975 132.795L157.018 133.14C157.536 137.278 155.407 139.996 151.24 140.518L136.655 142.345C132.487 142.868 129.753 140.759 129.235 136.621L129.192 136.276C128.695 132.311 125.488 130.643 121.494 131.143L121.147 131.187C116.98 131.709 114.258 129.699 113.74 125.561L113.709 125.316C113.212 121.351 109.893 118.789 105.899 119.29L105.553 119.333C101.385 119.855 100.673 117.798 100.155 113.66L92.4688 52.3098C92.4512 52.1691 92.4453 52.0309 92.4494 51.896C92.2073 48.5505 93.0192 46.7284 96.75 46.261L97.7423 46.1367C101.736 45.6363 103.329 42.4598 102.832 38.4945L102.801 38.2494C102.283 34.1117 104.412 31.3934 108.579 30.8713L108.926 30.8278C112.92 30.3275 115.504 27.0265 115.008 23.0614L114.964 22.7164C114.446 18.5788 116.575 15.8605 120.742 15.3384L135.328 13.511ZM122.83 29.1863C118.836 29.6866 116.239 32.8879 116.736 36.853L116.766 37.0991C117.285 41.2366 115.156 43.955 110.988 44.4771L110.641 44.5206C106.648 45.021 104.063 48.3218 104.56 52.2871L111.981 111.523C112.478 115.488 115.797 118.05 119.791 117.549L120.138 117.506C124.305 116.984 127.039 119.093 127.557 123.23L127.588 123.477C128.085 127.442 131.404 130.002 135.398 129.502L149.289 127.761C153.283 127.261 155.868 123.961 155.371 119.996L155.34 119.75C154.822 115.612 156.913 112.596 161.081 112.074L161.428 112.031C165.422 111.53 168.044 108.527 167.547 104.562L160.045 44.6802C159.548 40.715 156.309 38.7991 152.316 39.2995C148.148 39.8216 145.055 37.6591 144.537 33.5214C144.04 29.5562 140.715 26.9456 136.721 27.4459L122.83 29.1863Z"/>
</mask>
<path d="M135.328 13.511C139.495 12.9889 142.229 15.098 142.747 19.2356L142.79 19.5806C143.287 23.5457 146.606 26.107 150.6 25.6067L151.939 25.4389C156.107 24.9168 158.872 27.2739 159.39 31.4116L159.421 31.6567C159.917 35.622 161.779 38.416 166.244 37.8566L166.591 37.8131C170.759 37.291 173.418 38.8022 173.936 42.9398L181.395 102.474C181.913 106.612 179.833 109.725 175.666 110.247L175.319 110.29C171.325 110.791 168.778 114.389 169.275 118.354L169.305 118.599C169.824 122.737 167.682 125.357 163.515 125.879L163.168 125.922C159.174 126.422 156.478 128.83 156.975 132.795L157.018 133.14C157.536 137.278 155.407 139.996 151.24 140.518L136.655 142.345C132.487 142.868 129.753 140.759 129.235 136.621L129.192 136.276C128.695 132.311 125.488 130.643 121.494 131.143L121.147 131.187C116.98 131.709 114.258 129.699 113.74 125.561L113.709 125.316C113.212 121.351 109.893 118.789 105.899 119.29L105.553 119.333C101.385 119.855 100.673 117.798 100.155 113.66L92.4688 52.3098C92.4512 52.1691 92.4453 52.0309 92.4494 51.896C92.2073 48.5505 93.0192 46.7284 96.75 46.261L97.7423 46.1367C101.736 45.6363 103.329 42.4598 102.832 38.4945L102.801 38.2494C102.283 34.1117 104.412 31.3934 108.579 30.8713L108.926 30.8278C112.92 30.3275 115.504 27.0265 115.008 23.0614L114.964 22.7164C114.446 18.5788 116.575 15.8605 120.742 15.3384L135.328 13.511ZM122.83 29.1863C118.836 29.6866 116.239 32.8879 116.736 36.853L116.766 37.0991C117.285 41.2366 115.156 43.955 110.988 44.4771L110.641 44.5206C106.648 45.021 104.063 48.3218 104.56 52.2871L111.981 111.523C112.478 115.488 115.797 118.05 119.791 117.549L120.138 117.506C124.305 116.984 127.039 119.093 127.557 123.23L127.588 123.477C128.085 127.442 131.404 130.002 135.398 129.502L149.289 127.761C153.283 127.261 155.868 123.961 155.371 119.996L155.34 119.75C154.822 115.612 156.913 112.596 161.081 112.074L161.428 112.031C165.422 111.53 168.044 108.527 167.547 104.562L160.045 44.6802C159.548 40.715 156.309 38.7991 152.316 39.2995C148.148 39.8216 145.055 37.6591 144.537 33.5214C144.04 29.5562 140.715 26.9456 136.721 27.4459L122.83 29.1863Z" fill="black"/>
<path d="M135.328 13.511L135.203 12.5188L135.328 13.511ZM142.79 19.5806L141.798 19.7049L141.798 19.7049L142.79 19.5806ZM166.244 37.8566L166.369 38.8488L166.244 37.8566ZM166.591 37.8131L166.467 36.8209L166.591 37.8131ZM175.666 110.247L175.79 111.239L175.666 110.247ZM175.319 110.29L175.195 109.298L175.319 110.29ZM169.275 118.354L170.267 118.23L169.275 118.354ZM169.305 118.599L168.313 118.724L169.305 118.599ZM163.515 125.879L163.639 126.871L163.515 125.879ZM163.168 125.922L163.044 124.93L163.168 125.922ZM156.975 132.795L155.982 132.919L155.982 132.919L156.975 132.795ZM157.018 133.14L156.025 133.264L157.018 133.14ZM151.24 140.518L151.115 139.526L151.24 140.518ZM136.655 142.345L136.779 143.338L136.655 142.345ZM129.192 136.276L130.184 136.152L130.184 136.152L129.192 136.276ZM121.494 131.143L121.618 132.135L121.494 131.143ZM121.147 131.187L121.023 130.194L121.147 131.187ZM105.899 119.29L105.775 118.297L105.775 118.297L105.899 119.29ZM105.553 119.333L105.677 120.325L105.553 119.333ZM92.4494 51.896L93.4489 51.9266L93.4505 51.8751L93.4468 51.8238L92.4494 51.896ZM96.75 46.261L96.6257 45.2687L96.75 46.261ZM97.7423 46.1367L97.8666 47.1289L97.7423 46.1367ZM102.832 38.4945L103.824 38.3702L103.824 38.3702L102.832 38.4945ZM115.008 23.0614L116 22.9371L116 22.9371L115.008 23.0614ZM120.742 15.3384L120.867 16.3306L120.742 15.3384ZM122.83 29.1863L122.705 28.1941L122.83 29.1863ZM116.736 36.853L115.743 36.9772L115.743 36.9773L116.736 36.853ZM116.766 37.0991L117.759 36.9748L117.759 36.9748L116.766 37.0991ZM110.988 44.4771L111.113 45.4694L110.988 44.4771ZM110.641 44.5206L110.517 43.5284L110.641 44.5206ZM119.791 117.549L119.915 118.542L119.791 117.549ZM120.138 117.506L120.013 116.514L120.138 117.506ZM127.557 123.23L128.55 123.106L128.55 123.106L127.557 123.23ZM127.588 123.477L126.596 123.601L126.596 123.601L127.588 123.477ZM135.398 129.502L135.522 130.494L135.398 129.502ZM149.289 127.761L149.165 126.769L149.289 127.761ZM155.371 119.996L156.363 119.872L156.363 119.871L155.371 119.996ZM155.34 119.75L154.348 119.874L154.348 119.874L155.34 119.75ZM161.081 112.074L161.205 113.066L161.081 112.074ZM161.428 112.031L161.303 111.038L161.428 112.031ZM152.316 39.2995L152.191 38.3072L152.191 38.3072L152.316 39.2995ZM144.537 33.5214L143.545 33.6457L143.545 33.6457L144.537 33.5214ZM136.721 27.4459L136.597 26.4537L136.597 26.4537L136.721 27.4459ZM135.328 13.511L135.452 14.5033C137.346 14.266 138.786 14.6392 139.795 15.4177C140.803 16.1953 141.52 17.485 141.755 19.36L142.747 19.2356L143.739 19.1113C143.456 16.8486 142.547 15.015 141.017 13.8342C139.487 12.6542 137.477 12.234 135.203 12.5188L135.328 13.511ZM142.747 19.2356L141.755 19.36L141.798 19.7049L142.79 19.5806L143.783 19.4563L143.739 19.1113L142.747 19.2356ZM142.79 19.5806L141.798 19.7049C142.365 24.2247 146.189 27.1671 150.724 26.5989L150.6 25.6067L150.476 24.6145C147.023 25.047 144.21 22.8668 143.783 19.4563L142.79 19.5806ZM150.6 25.6067L150.724 26.5989L152.064 26.4312L151.939 25.4389L151.815 24.4467L150.476 24.6145L150.6 25.6067ZM151.939 25.4389L152.064 26.4312C153.93 26.1973 155.375 26.6159 156.401 27.4528C157.434 28.2953 158.163 29.659 158.398 31.5359L159.39 31.4116L160.382 31.2873C160.099 29.0265 159.186 27.1428 157.665 25.9028C156.137 24.6573 154.116 24.1584 151.815 24.4467L151.939 25.4389ZM159.39 31.4116L158.398 31.5359L158.428 31.781L159.421 31.6567L160.413 31.5324L160.382 31.2873L159.39 31.4116ZM159.421 31.6567L158.428 31.781C158.689 33.8593 159.323 35.7997 160.625 37.1481C161.974 38.545 163.894 39.1589 166.369 38.8488L166.244 37.8566L166.12 36.8643C164.13 37.1136 162.886 36.6102 162.064 35.7587C161.194 34.8586 160.649 33.4195 160.413 31.5324L159.421 31.6567ZM166.244 37.8566L166.369 38.8488L166.716 38.8053L166.591 37.8131L166.467 36.8209L166.12 36.8643L166.244 37.8566ZM166.591 37.8131L166.716 38.8053C168.677 38.5596 170.107 38.8174 171.079 39.4623C172.02 40.0865 172.709 41.1936 172.944 43.0641L173.936 42.9398L174.928 42.8155C174.644 40.5484 173.745 38.8311 172.185 37.7958C170.656 36.7812 168.673 36.5445 166.467 36.8209L166.591 37.8131ZM173.936 42.9398L172.944 43.0641L180.402 102.599L181.395 102.474L182.387 102.35L174.928 42.8155L173.936 42.9398ZM181.395 102.474L180.402 102.599C180.638 104.477 180.273 106.021 179.475 107.134C178.685 108.235 177.392 109.023 175.542 109.255L175.666 110.247L175.79 111.239C178.107 110.949 179.938 109.919 181.1 108.299C182.254 106.69 182.67 104.61 182.387 102.35L181.395 102.474ZM175.666 110.247L175.542 109.255L175.195 109.298L175.319 110.29L175.443 111.283L175.79 111.239L175.666 110.247ZM175.319 110.29L175.195 109.298C170.605 109.873 167.723 114.014 168.282 118.479L169.275 118.354L170.267 118.23C169.833 114.764 172.045 111.708 175.443 111.283L175.319 110.29ZM169.275 118.354L168.282 118.479L168.313 118.724L169.305 118.599L170.298 118.475L170.267 118.23L169.275 118.354ZM169.305 118.599L168.313 118.724C168.548 120.598 168.168 121.995 167.387 122.97C166.602 123.949 165.296 124.648 163.391 124.886L163.515 125.879L163.639 126.871C165.902 126.587 167.75 125.715 168.948 124.22C170.15 122.72 170.581 120.739 170.298 118.475L169.305 118.599ZM163.515 125.879L163.391 124.886L163.044 124.93L163.168 125.922L163.292 126.914L163.639 126.871L163.515 125.879ZM163.168 125.922L163.044 124.93C160.891 125.2 158.979 125.996 157.665 127.368C156.327 128.765 155.7 130.666 155.982 132.919L156.975 132.795L157.967 132.671C157.752 130.959 158.226 129.674 159.11 128.751C160.018 127.803 161.451 127.145 163.292 126.914L163.168 125.922ZM156.975 132.795L155.982 132.919L156.025 133.264L157.018 133.14L158.01 133.016L157.967 132.671L156.975 132.795ZM157.018 133.14L156.025 133.264C156.26 135.139 155.883 136.566 155.099 137.568C154.313 138.572 153.009 139.289 151.115 139.526L151.24 140.518L151.364 141.51C153.638 141.226 155.482 140.322 156.673 138.802C157.865 137.28 158.293 135.278 158.01 133.016L157.018 133.14ZM151.24 140.518L151.115 139.526L136.53 141.353L136.655 142.345L136.779 143.338L151.364 141.51L151.24 140.518ZM136.655 142.345L136.53 141.353C134.636 141.59 133.196 141.217 132.187 140.439C131.179 139.661 130.462 138.372 130.227 136.497L129.235 136.621L128.243 136.745C128.526 139.008 129.435 140.842 130.965 142.022C132.495 143.202 134.505 143.623 136.779 143.338L136.655 142.345ZM129.235 136.621L130.227 136.497L130.184 136.152L129.192 136.276L128.199 136.4L128.243 136.745L129.235 136.621ZM129.192 136.276L130.184 136.152C129.902 133.898 128.825 132.21 127.183 131.186C125.572 130.181 123.522 129.881 121.37 130.151L121.494 131.143L121.618 132.135C123.459 131.905 125.01 132.189 126.125 132.884C127.209 133.56 127.985 134.688 128.199 136.4L129.192 136.276ZM121.494 131.143L121.37 130.151L121.023 130.194L121.147 131.187L121.271 132.179L121.618 132.135L121.494 131.143ZM121.147 131.187L121.023 130.194C119.118 130.433 117.679 130.078 116.677 129.323C115.68 128.571 114.967 127.311 114.732 125.437L113.74 125.561L112.748 125.685C113.031 127.949 113.938 129.763 115.473 130.92C117.003 132.073 119.009 132.462 121.271 132.179L121.147 131.187ZM113.74 125.561L114.732 125.437L114.701 125.191L113.709 125.316L112.717 125.44L112.748 125.685L113.74 125.561ZM113.709 125.316L114.701 125.191C114.135 120.672 110.31 117.729 105.775 118.297L105.899 119.29L106.024 120.282C109.476 119.849 112.29 122.029 112.717 125.44L113.709 125.316ZM105.899 119.29L105.775 118.297L105.428 118.341L105.553 119.333L105.677 120.325L106.024 120.282L105.899 119.29ZM105.553 119.333L105.428 118.341C103.496 118.583 102.717 118.19 102.27 117.624C102.006 117.29 101.784 116.807 101.597 116.108C101.411 115.41 101.276 114.562 101.147 113.536L100.155 113.66L99.1628 113.785C99.2935 114.828 99.4418 115.788 99.6649 116.624C99.8877 117.458 100.201 118.232 100.701 118.864C101.781 120.231 103.442 120.605 105.677 120.325L105.553 119.333ZM100.155 113.66L101.147 113.536L93.461 52.1855L92.4688 52.3098L91.4765 52.4342L99.1628 113.785L100.155 113.66ZM92.4688 52.3098L93.461 52.1855C93.45 52.0979 93.4463 52.0115 93.4489 51.9266L92.4494 51.896L91.4499 51.8653C91.4442 52.0502 91.4523 52.2403 91.4765 52.4342L92.4688 52.3098ZM92.4494 51.896L93.4468 51.8238C93.329 50.1964 93.498 49.2015 93.9346 48.5647C94.3408 47.9722 95.1378 47.4708 96.8744 47.2532L96.75 46.261L96.6257 45.2687C94.6315 45.5186 93.157 46.1619 92.2851 47.4337C91.4435 48.6612 91.3277 50.25 91.452 51.9681L92.4494 51.896ZM96.75 46.261L96.8744 47.2532L97.8666 47.1289L97.7423 46.1367L97.618 45.1444L96.6257 45.2687L96.75 46.261ZM97.7423 46.1367L97.8666 47.1289C100.131 46.8453 101.811 45.7774 102.822 44.1404C103.812 42.5366 104.091 40.5018 103.824 38.3702L102.832 38.4945L101.84 38.6188C102.069 40.4525 101.8 41.9886 101.12 43.0894C100.461 44.1571 99.3477 44.9277 97.618 45.1444L97.7423 46.1367ZM102.832 38.4945L103.824 38.3702L103.793 38.125L102.801 38.2494L101.809 38.3737L101.84 38.6188L102.832 38.4945ZM102.801 38.2494L103.793 38.125C103.558 36.2501 103.935 34.8233 104.72 33.8211C105.506 32.8178 106.81 32.1008 108.703 31.8635L108.579 30.8713L108.455 29.8791C106.181 30.1639 104.337 31.0671 103.146 32.5879C101.954 34.1098 101.525 36.111 101.809 38.3737L102.801 38.2494ZM108.579 30.8713L108.703 31.8635L109.05 31.8201L108.926 30.8278L108.802 29.8356L108.455 29.8791L108.579 30.8713ZM108.926 30.8278L109.05 31.8201C113.585 31.2519 116.566 27.4569 116 22.9371L115.008 23.0614L114.015 23.1857C114.443 26.5962 112.254 29.4031 108.802 29.8356L108.926 30.8278ZM115.008 23.0614L116 22.9371L115.957 22.5921L114.964 22.7164L113.972 22.8407L114.015 23.1857L115.008 23.0614ZM114.964 22.7164L115.957 22.5921C115.722 20.7171 116.099 19.2903 116.884 18.2881C117.669 17.2848 118.973 16.5679 120.867 16.3306L120.742 15.3384L120.618 14.3461C118.345 14.631 116.5 15.5342 115.309 17.055C114.117 18.5768 113.689 20.578 113.972 22.8407L114.964 22.7164ZM120.742 15.3384L120.867 16.3306L135.452 14.5033L135.328 13.511L135.203 12.5188L120.618 14.3461L120.742 15.3384ZM122.83 29.1863L122.705 28.1941C118.19 28.7598 115.175 32.4386 115.743 36.9772L116.736 36.853L117.728 36.7287C117.303 33.3372 119.482 30.6135 122.954 30.1785L122.83 29.1863ZM116.736 36.853L115.743 36.9773L115.774 37.2234L116.766 37.0991L117.759 36.9748L117.728 36.7286L116.736 36.853ZM116.766 37.0991L115.774 37.2234C116.009 39.0983 115.632 40.5251 114.847 41.5273C114.061 42.5307 112.758 43.2476 110.864 43.4849L110.988 44.4771L111.113 45.4694C113.386 45.1845 115.231 44.2813 116.422 42.7605C117.614 41.2386 118.042 39.2374 117.759 36.9748L116.766 37.0991ZM110.988 44.4771L110.864 43.4849L110.517 43.5284L110.641 44.5206L110.766 45.5128L111.113 45.4694L110.988 44.4771ZM110.641 44.5206L110.517 43.5284C105.982 44.0965 103.001 47.8915 103.568 52.4114L104.56 52.2871L105.552 52.1628C105.125 48.7522 107.313 45.9454 110.766 45.5128L110.641 44.5206ZM104.56 52.2871L103.568 52.4114L110.989 111.648L111.981 111.523L112.973 111.399L105.552 52.1628L104.56 52.2871ZM111.981 111.523L110.989 111.648C111.555 116.167 115.38 119.11 119.915 118.542L119.791 117.549L119.667 116.557C116.214 116.99 113.401 114.809 112.973 111.399L111.981 111.523ZM119.791 117.549L119.915 118.542L120.262 118.498L120.138 117.506L120.013 116.514L119.667 116.557L119.791 117.549ZM120.138 117.506L120.262 118.498C122.156 118.261 123.596 118.634 124.605 119.413C125.613 120.19 126.33 121.48 126.565 123.355L127.557 123.23L128.55 123.106C128.266 120.843 127.357 119.01 125.827 117.829C124.297 116.649 122.287 116.229 120.013 116.514L120.138 117.506ZM127.557 123.23L126.565 123.355L126.596 123.601L127.588 123.477L128.58 123.352L128.55 123.106L127.557 123.23ZM127.588 123.477L126.596 123.601C127.162 128.121 130.987 131.062 135.522 130.494L135.398 129.502L135.273 128.509C131.821 128.942 129.008 126.762 128.58 123.352L127.588 123.477ZM135.398 129.502L135.522 130.494L149.413 128.754L149.289 127.761L149.165 126.769L135.273 128.509L135.398 129.502ZM149.289 127.761L149.413 128.754C153.948 128.185 156.929 124.391 156.363 119.872L155.371 119.996L154.379 120.12C154.806 123.53 152.617 126.337 149.165 126.769L149.289 127.761ZM155.371 119.996L156.363 119.871L156.332 119.625L155.34 119.75L154.348 119.874L154.379 120.12L155.371 119.996ZM155.34 119.75L156.332 119.625C156.097 117.748 156.465 116.232 157.26 115.147C158.049 114.07 159.344 113.3 161.205 113.066L161.081 112.074L160.957 111.082C158.65 111.371 156.816 112.369 155.647 113.965C154.484 115.553 154.065 117.614 154.348 119.874L155.34 119.75ZM161.081 112.074L161.205 113.066L161.552 113.023L161.428 112.031L161.303 111.038L160.957 111.082L161.081 112.074ZM161.428 112.031L161.552 113.023C163.768 112.745 165.664 111.764 166.939 110.236C168.219 108.702 168.82 106.679 168.539 104.437L167.547 104.562L166.554 104.686C166.77 106.41 166.308 107.871 165.403 108.955C164.493 110.046 163.082 110.816 161.303 111.038L161.428 112.031ZM167.547 104.562L168.539 104.437L161.037 44.5559L160.045 44.6802L159.052 44.8045L166.554 104.686L167.547 104.562ZM160.045 44.6802L161.037 44.5559C160.755 42.3077 159.677 40.5683 158.045 39.4827C156.433 38.4097 154.37 38.0342 152.191 38.3072L152.316 39.2995L152.44 40.2917C154.255 40.0644 155.808 40.3966 156.938 41.1478C158.048 41.8863 158.837 43.0874 159.052 44.8045L160.045 44.6802ZM152.316 39.2995L152.191 38.3072C150.305 38.5435 148.76 38.1626 147.648 37.3503C146.544 36.5439 145.76 35.235 145.529 33.3971L144.537 33.5214L143.545 33.6457C143.833 35.9456 144.854 37.7866 146.468 38.9654C148.074 40.1382 150.159 40.5775 152.44 40.2917L152.316 39.2995ZM144.537 33.5214L145.529 33.3971C144.964 28.8866 141.141 25.8844 136.597 26.4537L136.721 27.4459L136.845 28.4382C140.288 28.0069 143.116 30.2259 143.545 33.6457L144.537 33.5214ZM136.721 27.4459L136.597 26.4537L122.705 28.1941L122.83 29.1863L122.954 30.1785L136.845 28.4382L136.721 27.4459Z" fill="white" mask="url(#path-5-inside-2_558_470)"/>
<path d="M116.45 90.1993L115.859 90.2733C114.27 90.4723 113.071 91.1439 112.316 92.162C111.559 93.1827 111.206 94.6125 111.431 96.4075L111.64 98.0761C111.866 99.88 112.529 101.18 113.493 101.981C114.453 102.779 115.777 103.137 117.444 102.928L118.035 102.854C119.702 102.645 120.897 101.971 121.631 100.962C122.368 99.9477 122.689 98.5239 122.463 96.7201L122.254 95.0515C122.038 93.3244 121.076 92.0534 119.906 91.2376C118.797 90.4632 117.541 90.1267 116.628 90.1829L116.45 90.1993Z" fill="#FF80DF" stroke="white"/>
<path d="M114.898 96.3914L114.642 96.4235C114.019 96.5016 113.576 96.7598 113.304 97.1265C113.03 97.4958 112.886 98.0354 112.976 98.7561L113.066 99.4771C113.158 100.207 113.42 100.694 113.767 100.982C114.108 101.265 114.596 101.41 115.257 101.328L115.512 101.295C116.173 101.213 116.61 100.952 116.871 100.593C117.136 100.229 117.27 99.6916 117.179 98.9618L117.088 98.2409L117.045 98.0042C116.915 97.4703 116.588 97.0666 116.193 96.7911C115.786 96.5068 115.341 96.3842 115.025 96.3844L114.898 96.3914Z" fill="#FF80DF" stroke="white"/>
<mask id="path-9-inside-3_558_470" fill="white">
<path d="M67.4628 6.92524C71.6176 7.53953 73.5297 11.3606 72.6522 17.2958L72.5792 17.7894C71.7383 23.4773 74.0596 28.117 78.0413 28.7057L79.3764 28.9031C83.5313 29.5174 85.3908 33.6939 84.5133 39.6291L84.4613 39.9807C83.6204 45.6686 84.472 50.1641 88.9237 50.8222L89.2695 50.8734C93.4242 51.4876 94.4741 54.3039 93.5967 60.2388L87.2836 102.939C86.4061 108.874 84.3757 112.69 80.221 112.075L79.8751 112.024C75.8934 111.435 72.2658 115.631 71.4248 121.319L71.3727 121.671C70.4951 127.607 67.5803 130.568 63.4255 129.954L63.0796 129.903C59.0979 129.314 55.7227 131.802 54.8817 137.49L54.8087 137.984C53.9312 143.919 50.9953 147.023 46.8404 146.409L32.2993 144.259C28.1444 143.645 26.2323 139.824 27.1098 133.889L27.1828 133.395C28.0238 127.707 25.513 124.348 21.5313 123.76L21.1854 123.709C17.0306 123.094 15.0974 119.416 15.9749 113.481L16.027 113.128C16.8679 107.441 14.5464 102.802 10.5647 102.213L10.2189 102.162C6.06405 101.548 6.06674 98.45 6.94422 92.5148L13.4677 48.3919C14.3452 42.457 15.5848 39.5429 19.7395 40.1572L20.7288 40.3035C24.7105 40.8922 27.2859 36.9764 28.1268 31.2885L28.179 30.9359C29.0565 25.001 31.9924 21.8975 36.1471 22.5117L36.493 22.5629C40.4747 23.1515 44.0394 19.3821 44.8803 13.6942L44.9533 13.2005C45.8308 7.26537 48.7668 4.16109 52.9216 4.77537L67.4628 6.92524ZM50.3214 24.7525C46.3398 24.1638 42.7963 27.7905 41.9553 33.4782L41.9031 33.8308C41.0256 39.7659 38.0897 42.8702 33.9348 42.2559L33.589 42.2048C29.6073 41.6161 26.0428 45.3847 25.2018 51.0725L18.952 93.3444C18.1111 99.0323 20.4324 103.672 24.4142 104.261L24.76 104.312C28.9148 104.926 31.0588 107.179 30.1813 113.114L29.8975 115.034C29.0566 120.722 31.3781 125.361 35.3597 125.949L49.2092 127.997C53.1909 128.586 56.7554 124.817 57.5964 119.129L57.6485 118.777C58.526 112.842 61.525 109.311 65.6798 109.925L66.0256 109.977C70.0074 110.565 73.5089 107.223 74.3498 101.535L80.7365 58.3375C81.5772 52.6498 79.0977 49.0803 75.116 48.4916C70.9612 47.8773 68.7451 43.7221 69.6226 37.7869C70.4634 32.0993 68.1524 27.3889 64.1709 26.8001L50.3214 24.7525Z"/>
</mask>
<path d="M67.4628 6.92524C71.6176 7.53953 73.5297 11.3606 72.6522 17.2958L72.5792 17.7894C71.7383 23.4773 74.0596 28.117 78.0413 28.7057L79.3764 28.9031C83.5313 29.5174 85.3908 33.6939 84.5133 39.6291L84.4613 39.9807C83.6204 45.6686 84.472 50.1641 88.9237 50.8222L89.2695 50.8734C93.4242 51.4876 94.4741 54.3039 93.5967 60.2388L87.2836 102.939C86.4061 108.874 84.3757 112.69 80.221 112.075L79.8751 112.024C75.8934 111.435 72.2658 115.631 71.4248 121.319L71.3727 121.671C70.4951 127.607 67.5803 130.568 63.4255 129.954L63.0796 129.903C59.0979 129.314 55.7227 131.802 54.8817 137.49L54.8087 137.984C53.9312 143.919 50.9953 147.023 46.8404 146.409L32.2993 144.259C28.1444 143.645 26.2323 139.824 27.1098 133.889L27.1828 133.395C28.0238 127.707 25.513 124.348 21.5313 123.76L21.1854 123.709C17.0306 123.094 15.0974 119.416 15.9749 113.481L16.027 113.128C16.8679 107.441 14.5464 102.802 10.5647 102.213L10.2189 102.162C6.06405 101.548 6.06674 98.45 6.94422 92.5148L13.4677 48.3919C14.3452 42.457 15.5848 39.5429 19.7395 40.1572L20.7288 40.3035C24.7105 40.8922 27.2859 36.9764 28.1268 31.2885L28.179 30.9359C29.0565 25.001 31.9924 21.8975 36.1471 22.5117L36.493 22.5629C40.4747 23.1515 44.0394 19.3821 44.8803 13.6942L44.9533 13.2005C45.8308 7.26537 48.7668 4.16109 52.9216 4.77537L67.4628 6.92524ZM50.3214 24.7525C46.3398 24.1638 42.7963 27.7905 41.9553 33.4782L41.9031 33.8308C41.0256 39.7659 38.0897 42.8702 33.9348 42.2559L33.589 42.2048C29.6073 41.6161 26.0428 45.3847 25.2018 51.0725L18.952 93.3444C18.1111 99.0323 20.4324 103.672 24.4142 104.261L24.76 104.312C28.9148 104.926 31.0588 107.179 30.1813 113.114L29.8975 115.034C29.0566 120.722 31.3781 125.361 35.3597 125.949L49.2092 127.997C53.1909 128.586 56.7554 124.817 57.5964 119.129L57.6485 118.777C58.526 112.842 61.525 109.311 65.6798 109.925L66.0256 109.977C70.0074 110.565 73.5089 107.223 74.3498 101.535L80.7365 58.3375C81.5772 52.6498 79.0977 49.0803 75.116 48.4916C70.9612 47.8773 68.7451 43.7221 69.6226 37.7869C70.4634 32.0993 68.1524 27.3889 64.1709 26.8001L50.3214 24.7525Z" fill="black"/>
<path d="M67.4628 6.92524L67.609 5.936L67.4628 6.92524ZM88.9237 50.8222L89.0699 49.833L88.9237 50.8222ZM89.2695 50.8734L89.1232 51.8626L89.2695 50.8734ZM93.5967 60.2388L94.5859 60.3851L94.5859 60.385L93.5967 60.2388ZM87.2836 102.939L88.2728 103.085L88.2728 103.085L87.2836 102.939ZM71.4248 121.319L70.4356 121.173L70.4356 121.173L71.4248 121.319ZM71.3727 121.671L72.3619 121.818L72.3619 121.818L71.3727 121.671ZM46.8404 146.409L46.6942 147.398L46.8404 146.409ZM32.2993 144.259L32.4455 143.27L32.2993 144.259ZM15.9749 113.481L14.9856 113.335L14.9856 113.335L15.9749 113.481ZM16.027 113.128L17.0163 113.275L17.0163 113.275L16.027 113.128ZM10.5647 102.213L10.711 101.224L10.711 101.224L10.5647 102.213ZM10.2189 102.162L10.3651 101.173L10.2189 102.162ZM6.94422 92.5148L5.95498 92.3686L5.95498 92.3686L6.94422 92.5148ZM13.4677 48.3919L12.4784 48.2457L12.4784 48.2457L13.4677 48.3919ZM28.179 30.9359L27.1897 30.7897L27.1897 30.7897L28.179 30.9359ZM52.9216 4.77537L52.7753 5.76462L52.9216 4.77537ZM41.9553 33.4782L40.966 33.3319L40.966 33.3319L41.9553 33.4782ZM25.2018 51.0725L24.2126 50.9262L24.2126 50.9263L25.2018 51.0725ZM29.8975 115.034L28.9082 114.888L28.9082 114.888L29.8975 115.034ZM57.5964 119.129L58.5856 119.275L58.5856 119.275L57.5964 119.129ZM57.6485 118.777L56.6592 118.63L56.6592 118.63L57.6485 118.777ZM65.6798 109.925L65.5335 110.915L65.6798 109.925ZM66.0256 109.977L66.1719 108.987L66.0256 109.977ZM80.7365 58.3375L81.7257 58.4837L81.7257 58.4837L80.7365 58.3375ZM75.116 48.4916L75.2623 47.5023L75.2623 47.5023L75.116 48.4916ZM69.6226 37.7869L70.6119 37.9331L70.6119 37.9331L69.6226 37.7869ZM64.1709 26.8001L64.3172 25.8108L64.3172 25.8108L64.1709 26.8001ZM67.4628 6.92524L67.3165 7.91449C69.0786 8.17501 70.312 9.08722 71.0503 10.5627C71.813 12.0868 72.0847 14.2965 71.6629 17.1495L72.6522 17.2958L73.6414 17.442C74.0971 14.3598 73.8516 11.6914 72.8389 9.66766C71.8018 7.59521 70.0017 6.28976 67.609 5.936L67.4628 6.92524ZM72.6522 17.2958L71.6629 17.1495L71.5899 17.6432L72.5792 17.7894L73.5684 17.9357L73.6414 17.442L72.6522 17.2958ZM72.5792 17.7894L71.5899 17.6432C71.1458 20.6475 71.5252 23.4442 72.6075 25.6072C73.6956 27.7819 75.5188 29.3436 77.8951 29.6949L78.0413 28.7057L78.1876 27.7164C76.5822 27.4791 75.2538 26.4266 74.3961 24.7123C73.5325 22.9863 73.1717 20.6192 73.5684 17.9357L72.5792 17.7894ZM78.0413 28.7057L77.8951 29.6949L79.2302 29.8923L79.3764 28.9031L79.5227 27.9138L78.1876 27.7164L78.0413 28.7057ZM79.3764 28.9031L79.2302 29.8923C80.9548 30.1473 82.1853 31.1163 82.9268 32.6957C83.6894 34.32 83.9457 36.631 83.5241 39.4828L84.5133 39.6291L85.5026 39.7754C85.9584 36.692 85.7237 33.9471 84.7372 31.8458C83.7296 29.6996 81.953 28.2731 79.5227 27.9138L79.3764 28.9031ZM84.5133 39.6291L83.5241 39.4828L83.4721 39.8345L84.4613 39.9807L85.4506 40.127L85.5026 39.7754L84.5133 39.6291ZM84.4613 39.9807L83.4721 39.8345C83.0436 42.7323 83.0196 45.4699 83.7629 47.615C84.1399 48.7032 84.7235 49.6649 85.5736 50.4048C86.4277 51.1481 87.4993 51.6225 88.7774 51.8115L88.9237 50.8222L89.0699 49.833C88.1222 49.6929 87.418 49.3586 86.8866 48.8961C86.3514 48.4303 85.9399 47.7892 85.6527 46.9603C85.0674 45.2711 85.0381 42.917 85.4506 40.127L84.4613 39.9807ZM88.9237 50.8222L88.7774 51.8115L89.1232 51.8626L89.2695 50.8734L89.4158 49.8841L89.0699 49.833L88.9237 50.8222ZM89.2695 50.8734L89.1232 51.8626C90.966 52.1351 91.9099 52.8424 92.4053 53.9647C92.9555 55.2112 93.0418 57.1539 92.6074 60.0926L93.5967 60.2388L94.5859 60.385C95.0289 57.3888 95.029 54.9559 94.235 53.157C93.3861 51.2339 91.7277 50.2259 89.4158 49.8841L89.2695 50.8734ZM93.5967 60.2388L92.6074 60.0925L86.2943 102.792L87.2836 102.939L88.2728 103.085L94.5859 60.3851L93.5967 60.2388ZM87.2836 102.939L86.2943 102.792C85.8624 105.714 85.1632 107.963 84.1628 109.388C83.6726 110.087 83.1297 110.559 82.5346 110.834C81.9448 111.106 81.2389 111.215 80.3672 111.086L80.221 112.075L80.0747 113.065C81.2803 113.243 82.3863 113.105 83.3732 112.649C84.3547 112.196 85.1533 111.458 85.7997 110.538C87.0725 108.724 87.8273 106.098 88.2728 103.085L87.2836 102.939ZM80.221 112.075L80.3672 111.086L80.0214 111.035L79.8751 112.024L79.7288 113.013L80.0747 113.065L80.221 112.075ZM79.8751 112.024L80.0214 111.035C77.6062 110.678 75.391 111.792 73.7272 113.651C72.0652 115.507 70.8796 118.17 70.4356 121.173L71.4248 121.319L72.4141 121.465C72.811 118.78 73.8598 116.501 75.2172 114.985C76.5729 113.471 78.1624 112.782 79.7288 113.013L79.8751 112.024ZM71.4248 121.319L70.4356 121.173L70.3834 121.525L71.3727 121.671L72.3619 121.818L72.4141 121.465L71.4248 121.319ZM71.3727 121.671L70.3834 121.525C69.9615 124.379 69.0679 126.374 67.9089 127.574C66.7884 128.734 65.3493 129.227 63.5718 128.964L63.4255 129.954L63.2792 130.943C65.6564 131.294 67.7522 130.614 69.3473 128.963C70.9038 127.352 71.9063 124.899 72.3619 121.818L71.3727 121.671ZM63.4255 129.954L63.5718 128.964L63.2259 128.913L63.0796 129.903L62.9334 130.892L63.2792 130.943L63.4255 129.954ZM63.0796 129.903L63.2259 128.913C60.9785 128.581 58.837 129.116 57.1463 130.588C55.471 132.047 54.337 134.337 53.8925 137.344L54.8817 137.49L55.871 137.636C56.2674 134.955 57.2415 133.157 58.4595 132.097C59.6621 131.05 61.1991 130.635 62.9334 130.892L63.0796 129.903ZM54.8817 137.49L53.8925 137.344L53.8195 137.838L54.8087 137.984L55.798 138.13L55.871 137.636L54.8817 137.49ZM54.8087 137.984L53.8195 137.838C53.3977 140.691 52.4982 142.727 51.3271 143.965C50.1934 145.164 48.7488 145.68 46.9867 145.42L46.8404 146.409L46.6942 147.398C49.0869 147.752 51.1877 147.023 52.7801 145.34C54.3351 143.695 55.3423 141.212 55.798 138.13L54.8087 137.984ZM46.8404 146.409L46.9867 145.42L32.4455 143.27L32.2993 144.259L32.153 145.248L46.6942 147.398L46.8404 146.409ZM32.2993 144.259L32.4455 143.27C30.6834 143.009 29.45 142.097 28.7117 140.622C27.949 139.098 27.6773 136.888 28.0991 134.035L27.1098 133.889L26.1206 133.742C25.6649 136.825 25.9105 139.493 26.9231 141.517C27.9602 143.589 29.7603 144.895 32.153 145.248L32.2993 144.259ZM27.1098 133.889L28.0991 134.035L28.1721 133.541L27.1828 133.395L26.1936 133.249L26.1206 133.742L27.1098 133.889ZM27.1828 133.395L28.1721 133.541C28.6166 130.535 28.1939 128.014 27.0123 126.133C25.8199 124.235 23.925 123.103 21.6775 122.77L21.5313 123.76L21.385 124.749C23.1193 125.005 24.4706 125.847 25.3188 127.197C26.1778 128.565 26.59 130.567 26.1936 133.249L27.1828 133.395ZM21.5313 123.76L21.6775 122.77L21.3317 122.719L21.1854 123.709L21.0392 124.698L21.385 124.749L21.5313 123.76ZM21.1854 123.709L21.3317 122.719C19.5541 122.456 18.3194 121.568 17.5826 120.133C16.8203 118.649 16.5423 116.481 16.9641 113.627L15.9749 113.481L14.9856 113.335C14.53 116.416 14.7799 119.054 15.8036 121.047C16.8526 123.089 18.662 124.346 21.0392 124.698L21.1854 123.709ZM15.9749 113.481L16.9641 113.627L17.0163 113.275L16.027 113.128L15.0378 112.982L14.9856 113.335L15.9749 113.481ZM16.027 113.128L17.0163 113.275C17.4604 110.27 17.0809 107.474 15.9986 105.311C14.9104 103.137 13.0872 101.575 10.711 101.224L10.5647 102.213L10.4185 103.202C12.0239 103.44 13.3523 104.492 14.21 106.206C15.0736 107.932 15.4345 110.299 15.0378 112.982L16.027 113.128ZM10.5647 102.213L10.711 101.224L10.3651 101.173L10.2189 102.162L10.0726 103.151L10.4185 103.202L10.5647 102.213ZM10.2189 102.162L10.3651 101.173C9.44065 101.036 8.85295 100.776 8.46659 100.458C8.0923 100.15 7.82628 99.721 7.66302 99.0851C7.31318 97.7224 7.48823 95.6726 7.93347 92.6611L6.94422 92.5148L5.95498 92.3686C5.52274 95.2922 5.25769 97.7589 5.72584 99.5824C5.97158 100.54 6.42907 101.371 7.19539 102.002C7.94965 102.623 8.91966 102.981 10.0726 103.151L10.2189 102.162ZM6.94422 92.5148L7.93347 92.6611L14.4569 48.5382L13.4677 48.3919L12.4784 48.2457L5.95498 92.3686L6.94422 92.5148ZM13.4677 48.3919L14.4569 48.5382C14.898 45.5549 15.4076 43.5593 16.204 42.3774C16.5798 41.8195 17.0004 41.4748 17.4947 41.2813C18.0009 41.0832 18.6709 41.0101 19.5933 41.1465L19.7395 40.1572L19.8858 39.168C18.7307 38.9972 17.6878 39.058 16.7657 39.4189C15.8316 39.7845 15.1084 40.4242 14.5453 41.2599C13.4638 42.8651 12.9149 45.294 12.4784 48.2457L13.4677 48.3919ZM19.7395 40.1572L19.5933 41.1465L20.5825 41.2927L20.7288 40.3035L20.875 39.3142L19.8858 39.168L19.7395 40.1572ZM20.7288 40.3035L20.5825 41.2927C22.9993 41.65 24.9749 40.6048 26.3974 38.7605C27.7882 36.9573 28.6822 34.3693 29.1161 31.4348L28.1268 31.2885L27.1376 31.1423C26.7305 33.8957 25.9163 36.1095 24.8138 37.539C23.743 38.9273 22.44 39.5456 20.875 39.3142L20.7288 40.3035ZM28.1268 31.2885L29.1161 31.4348L29.1682 31.0822L28.179 30.9359L27.1897 30.7897L27.1376 31.1423L28.1268 31.2885ZM28.179 30.9359L29.1682 31.0822C29.59 28.2294 30.4896 26.1931 31.6606 24.9551C32.7942 23.7566 34.2388 23.2404 36.0009 23.501L36.1471 22.5117L36.2934 21.5225C33.9008 21.1687 31.8 21.8972 30.2076 23.5807C28.6527 25.2246 27.6455 27.7076 27.1897 30.7897L28.179 30.9359ZM36.1471 22.5117L36.0009 23.501L36.3467 23.5521L36.493 22.5629L36.6392 21.5736L36.2934 21.5225L36.1471 22.5117ZM36.493 22.5629L36.3467 23.5521C38.723 23.9034 40.9201 22.9361 42.591 21.1693C44.2529 19.412 45.4254 16.8448 45.8695 13.8405L44.8803 13.6942L43.891 13.5479C43.4943 16.2315 42.464 18.3929 41.1379 19.7951C39.8208 21.1879 38.2447 21.811 36.6392 21.5736L36.493 22.5629ZM44.8803 13.6942L45.8695 13.8405L45.9425 13.3468L44.9533 13.2005L43.964 13.0543L43.891 13.5479L44.8803 13.6942ZM44.9533 13.2005L45.9425 13.3468C46.3643 10.4939 47.2639 8.4573 48.435 7.21905C49.5686 6.02037 51.0132 5.50409 52.7753 5.76462L52.9216 4.77537L53.0679 3.78612C50.6751 3.43236 48.5743 4.16108 46.9819 5.84477C45.4269 7.48889 44.4197 9.97206 43.964 13.0543L44.9533 13.2005ZM52.9216 4.77537L52.7753 5.76462L67.3165 7.91449L67.4628 6.92524L67.609 5.936L53.0679 3.78612L52.9216 4.77537ZM50.3214 24.7525L50.4677 23.7632C48.1049 23.4139 45.914 24.3322 44.2408 26.0676C42.5785 27.7917 41.4103 30.3273 40.966 33.3319L41.9553 33.4782L42.9445 33.6244C43.3413 30.9414 44.3654 28.8198 45.6805 27.4558C46.9847 26.1031 48.5564 25.5024 50.1752 25.7417L50.3214 24.7525ZM41.9553 33.4782L40.966 33.3319L40.9139 33.6845L41.9031 33.8308L42.8924 33.977L42.9445 33.6244L41.9553 33.4782ZM41.9031 33.8308L40.9139 33.6845C40.4921 36.5375 39.5926 38.574 38.4215 39.8123C37.2878 41.0109 35.8432 41.5272 34.0811 41.2667L33.9348 42.2559L33.7886 43.2452C36.1813 43.599 38.2821 42.8702 39.8745 41.1865C41.4295 39.5424 42.4367 37.0593 42.8924 33.977L41.9031 33.8308ZM33.9348 42.2559L34.0811 41.2667L33.7352 41.2156L33.589 42.2048L33.4427 43.1941L33.7886 43.2452L33.9348 42.2559ZM33.589 42.2048L33.7352 41.2156C31.359 40.8643 29.162 41.8312 27.4911 43.5978C25.8292 45.3549 24.6568 47.9219 24.2126 50.9262L25.2018 51.0725L26.1911 51.2188C26.5878 48.5353 27.6181 46.3741 28.9441 44.9721C30.2612 43.5796 31.8372 42.9567 33.4427 43.1941L33.589 42.2048ZM25.2018 51.0725L24.2126 50.9263L17.9628 93.1982L18.952 93.3444L19.9413 93.4907L26.1911 51.2188L25.2018 51.0725ZM18.952 93.3444L17.9628 93.1982C17.5186 96.2025 17.898 98.9992 18.9803 101.162C20.0684 103.337 21.8916 104.899 24.2679 105.25L24.4142 104.261L24.5604 103.271C22.955 103.034 21.6266 101.982 20.7689 100.267C19.9053 98.5413 19.5445 96.1742 19.9413 93.4907L18.952 93.3444ZM24.4142 104.261L24.2679 105.25L24.6138 105.301L24.76 104.312L24.9063 103.323L24.5604 103.271L24.4142 104.261ZM24.76 104.312L24.6138 105.301C26.5589 105.589 27.8106 106.228 28.5325 107.283C29.27 108.36 29.6155 110.104 29.192 112.968L30.1813 113.114L31.1705 113.261C31.6245 110.19 31.3368 107.839 30.183 106.153C29.0136 104.444 27.116 103.649 24.9063 103.323L24.76 104.312ZM30.1813 113.114L29.192 112.968L28.9082 114.888L29.8975 115.034L30.8867 115.18L31.1705 113.261L30.1813 113.114ZM29.8975 115.034L28.9082 114.888C28.464 117.892 28.8435 120.689 29.9259 122.851C31.0141 125.026 32.8373 126.587 35.2135 126.939L35.3597 125.949L35.506 124.96C33.9005 124.723 32.5722 123.67 31.7144 121.956C30.8508 120.231 30.49 117.864 30.8867 115.18L29.8975 115.034ZM35.3597 125.949L35.2135 126.939L49.0629 128.986L49.2092 127.997L49.3555 127.008L35.506 124.96L35.3597 125.949ZM49.2092 127.997L49.0629 128.986C51.4391 129.337 53.6362 128.37 55.3071 126.604C56.9689 124.847 58.1414 122.28 58.5856 119.275L57.5964 119.129L56.6071 118.983C56.2103 121.666 55.1801 123.828 53.854 125.23C52.537 126.622 50.9609 127.245 49.3555 127.008L49.2092 127.997ZM57.5964 119.129L58.5856 119.275L58.6377 118.923L57.6485 118.777L56.6592 118.63L56.6071 118.983L57.5964 119.129ZM57.6485 118.777L58.6377 118.923C59.0594 116.071 59.9763 113.913 61.1819 112.56C62.3553 111.243 63.8163 110.661 65.5335 110.915L65.6798 109.925L65.8261 108.936C63.3885 108.576 61.2727 109.452 59.6885 111.23C58.1364 112.972 57.1152 115.547 56.6592 118.63L57.6485 118.777ZM65.6798 109.925L65.5335 110.915L65.8794 110.966L66.0256 109.977L66.1719 108.987L65.8261 108.936L65.6798 109.925ZM66.0256 109.977L65.8794 110.966C68.2147 111.311 70.3934 110.49 72.0714 108.818C73.7352 107.16 74.8947 104.687 75.3391 101.681L74.3498 101.535L73.3606 101.389C72.964 104.071 71.9522 106.113 70.6597 107.401C69.3812 108.675 67.8183 109.231 66.1719 108.987L66.0256 109.977ZM74.3498 101.535L75.3391 101.681L81.7257 58.4837L80.7365 58.3375L79.7472 58.1912L73.3606 101.389L74.3498 101.535ZM80.7365 58.3375L81.7257 58.4837C82.1701 55.4773 81.7542 52.9126 80.5907 50.9855C79.4157 49.0394 77.5321 47.8379 75.2623 47.5023L75.116 48.4916L74.9698 49.4808C76.6816 49.7339 78.0286 50.6116 78.8786 52.0193C79.74 53.446 80.1436 55.51 79.7472 58.1912L80.7365 58.3375ZM75.116 48.4916L75.2623 47.5023C73.5194 47.2447 72.1937 46.2619 71.3699 44.674C70.5302 43.0557 70.1939 40.7603 70.6119 37.9331L69.6226 37.7869L68.6334 37.6406C68.1739 40.7486 68.5068 43.4985 69.5946 45.5951C70.6981 47.7222 72.5578 49.1242 74.9698 49.4808L75.116 48.4916ZM69.6226 37.7869L70.6119 37.9331C71.0559 34.9291 70.6789 32.1168 69.6015 29.9381C68.519 27.7491 66.7 26.1632 64.3172 25.8108L64.1709 26.8001L64.0246 27.7893C65.6233 28.0257 66.9506 29.0894 67.8087 30.8247C68.672 32.5703 69.0301 34.957 68.6334 37.6406L69.6226 37.7869ZM64.1709 26.8001L64.3172 25.8108L50.4677 23.7632L50.3214 24.7525L50.1752 25.7417L64.0246 27.7893L64.1709 26.8001Z" fill="white" mask="url(#path-9-inside-3_558_470)"/>
<path d="M150.81 200.147C184.941 137.412 2.74508 138.667 32.358 205.165" stroke="#FF80DF" stroke-width="12" stroke-linecap="round"/>
</svg>
