<svg width="167" height="193" viewBox="0 0 167 193" fill="none" xmlns="http://www.w3.org/2000/svg">
<mask id="path-1-inside-1_558_474" fill="white">
<path d="M131.517 10C135.717 10 138.167 12.4325 138.167 16.6025V16.9502C138.167 20.9463 141.142 23.9004 145.167 23.9004H146.517C150.717 23.9004 153.167 26.5829 153.167 30.7529V31C153.167 34.9963 154.667 38 159.167 38H159.517C163.717 38 166.167 39.83 166.167 44V104C166.167 108.17 163.717 111 159.517 111H159.167C155.142 111 152.167 114.254 152.167 118.25V118.497C152.167 122.667 149.717 125 145.517 125H145.167C141.142 125 138.167 127.054 138.167 131.05V131.397C138.167 135.567 135.717 138 131.517 138H116.817C112.617 138 110.167 135.567 110.167 131.397V131.05C110.167 127.054 107.192 125 103.167 125H102.817C98.6174 125 96.167 122.667 96.167 118.497V118.25C96.167 114.254 93.192 111.3 89.167 111.3H88.8174C84.6174 111.3 84.167 109.17 84.167 105V43.1699C84.167 43.0281 84.1783 42.8902 84.1992 42.7568C84.3748 39.4072 85.407 37.7002 89.167 37.7002H90.167C94.192 37.7002 96.167 34.7463 96.167 30.75V30.5029C96.167 26.3329 98.6174 23.9004 102.817 23.9004H103.167C107.192 23.9004 110.167 20.9463 110.167 16.9502V16.6025C110.167 12.4325 112.617 10 116.817 10H131.517ZM117.167 24C113.142 24 110.167 26.8536 110.167 30.8496V31.0977C110.167 35.2676 107.717 37.7002 103.517 37.7002H103.167C99.142 37.7002 96.167 40.6541 96.167 44.6504V104.35C96.167 108.346 99.142 111.3 103.167 111.3H103.517C107.717 111.3 110.167 113.732 110.167 117.902V118.15C110.167 122.146 113.142 125.1 117.167 125.1H131.167C135.192 125.1 138.167 122.146 138.167 118.15V117.902C138.167 113.732 140.617 111 144.817 111H145.167C149.192 111 152.167 108.346 152.167 104.35V44C152.167 40.0038 149.192 37.7002 145.167 37.7002C140.967 37.7002 138.167 35.17 138.167 31C138.167 27.0038 135.192 24.0001 131.167 24H117.167Z"/>
</mask>
<path d="M131.517 10C135.717 10 138.167 12.4325 138.167 16.6025V16.9502C138.167 20.9463 141.142 23.9004 145.167 23.9004H146.517C150.717 23.9004 153.167 26.5829 153.167 30.7529V31C153.167 34.9963 154.667 38 159.167 38H159.517C163.717 38 166.167 39.83 166.167 44V104C166.167 108.17 163.717 111 159.517 111H159.167C155.142 111 152.167 114.254 152.167 118.25V118.497C152.167 122.667 149.717 125 145.517 125H145.167C141.142 125 138.167 127.054 138.167 131.05V131.397C138.167 135.567 135.717 138 131.517 138H116.817C112.617 138 110.167 135.567 110.167 131.397V131.05C110.167 127.054 107.192 125 103.167 125H102.817C98.6174 125 96.167 122.667 96.167 118.497V118.25C96.167 114.254 93.192 111.3 89.167 111.3H88.8174C84.6174 111.3 84.167 109.17 84.167 105V43.1699C84.167 43.0281 84.1783 42.8902 84.1992 42.7568C84.3748 39.4072 85.407 37.7002 89.167 37.7002H90.167C94.192 37.7002 96.167 34.7463 96.167 30.75V30.5029C96.167 26.3329 98.6174 23.9004 102.817 23.9004H103.167C107.192 23.9004 110.167 20.9463 110.167 16.9502V16.6025C110.167 12.4325 112.617 10 116.817 10H131.517ZM117.167 24C113.142 24 110.167 26.8536 110.167 30.8496V31.0977C110.167 35.2676 107.717 37.7002 103.517 37.7002H103.167C99.142 37.7002 96.167 40.6541 96.167 44.6504V104.35C96.167 108.346 99.142 111.3 103.167 111.3H103.517C107.717 111.3 110.167 113.732 110.167 117.902V118.15C110.167 122.146 113.142 125.1 117.167 125.1H131.167C135.192 125.1 138.167 122.146 138.167 118.15V117.902C138.167 113.732 140.617 111 144.817 111H145.167C149.192 111 152.167 108.346 152.167 104.35V44C152.167 40.0038 149.192 37.7002 145.167 37.7002C140.967 37.7002 138.167 35.17 138.167 31C138.167 27.0038 135.192 24.0001 131.167 24H117.167Z" fill="black"/>
<path d="M138.167 16.9502L137.167 16.9502L137.167 16.9502L138.167 16.9502ZM138.167 131.05L137.167 131.05V131.05H138.167ZM110.167 131.05L111.167 131.05L111.167 131.05L110.167 131.05ZM89.167 111.3L89.167 110.3H89.167V111.3ZM84.1992 42.7568L85.1872 42.9115L85.1952 42.8606L85.1978 42.8092L84.1992 42.7568ZM96.167 30.75L97.167 30.75V30.75H96.167ZM110.167 16.9502L111.167 16.9502V16.9502H110.167ZM110.167 30.8496L109.167 30.8496V30.8496H110.167ZM110.167 31.0977L111.167 31.0977V31.0977H110.167ZM110.167 117.902L111.167 117.902L111.167 117.902L110.167 117.902ZM110.167 118.15L109.167 118.15L109.167 118.15L110.167 118.15ZM138.167 118.15L139.167 118.15V118.15H138.167ZM138.167 117.902L137.167 117.902V117.902H138.167ZM145.167 37.7002L145.167 36.7002H145.167L145.167 37.7002ZM138.167 31L137.167 31V31L138.167 31ZM131.167 24L131.167 23H131.167V24ZM131.517 10V11C133.425 11 134.808 11.5493 135.712 12.4472C136.616 13.3441 137.167 14.7129 137.167 16.6025H138.167H139.167C139.167 14.3222 138.493 12.3898 137.121 11.0279C135.751 9.66693 133.808 9 131.517 9V10ZM138.167 16.6025H137.167V16.9502H138.167H139.167V16.6025H138.167ZM138.167 16.9502L137.167 16.9502C137.167 21.5053 140.596 24.9004 145.167 24.9004V23.9004V22.9004C141.688 22.9004 139.167 20.3874 139.167 16.9502L138.167 16.9502ZM145.167 23.9004V24.9004H146.517V23.9004V22.9004H145.167V23.9004ZM146.517 23.9004V24.9004C148.398 24.9004 149.779 25.4953 150.693 26.4533C151.614 27.4177 152.167 28.8614 152.167 30.7529H153.167H154.167C154.167 28.4745 153.495 26.4919 152.14 25.0725C150.779 23.6467 148.836 22.9004 146.517 22.9004V23.9004ZM153.167 30.7529H152.167V31H153.167H154.167V30.7529H153.167ZM153.167 31H152.167C152.167 33.0945 152.555 35.0987 153.679 36.5985C154.844 38.1523 156.673 39 159.167 39V38V37C157.161 37 155.99 36.3459 155.28 35.3987C154.529 34.3975 154.167 32.9018 154.167 31H153.167ZM159.167 38V39H159.517V38V37H159.167V38ZM159.517 38V39C161.493 39 162.88 39.4336 163.765 40.1943C164.62 40.9306 165.167 42.1149 165.167 44H166.167H167.167C167.167 41.7151 166.488 39.8994 165.069 38.6782C163.678 37.4814 161.74 37 159.517 37V38ZM166.167 44H165.167V104H166.167H167.167V44H166.167ZM166.167 104H165.167C165.167 105.893 164.613 107.38 163.683 108.384C162.762 109.379 161.382 110 159.517 110V111V112C161.852 112 163.796 111.206 165.151 109.743C166.496 108.29 167.167 106.277 167.167 104H166.167ZM159.517 111V110H159.167V111V112H159.517V111ZM159.167 111V110C154.542 110 151.167 113.751 151.167 118.25H152.167H153.167C153.167 114.757 155.742 112 159.167 112V111ZM152.167 118.25H151.167V118.497H152.167H153.167V118.25H152.167ZM152.167 118.497H151.167C151.167 120.386 150.616 121.725 149.72 122.595C148.82 123.469 147.436 124 145.517 124V125V126C147.797 126 149.739 125.364 151.113 124.03C152.492 122.691 153.167 120.778 153.167 118.497H152.167ZM145.517 125V124H145.167V125V126H145.517V125ZM145.167 125V124C142.997 124 141.001 124.553 139.527 125.75C138.025 126.97 137.167 128.779 137.167 131.05L138.167 131.05L139.167 131.05C139.167 129.324 139.796 128.108 140.788 127.303C141.808 126.474 143.312 126 145.167 126V125ZM138.167 131.05H137.167V131.397H138.167H139.167V131.05H138.167ZM138.167 131.397H137.167C137.167 133.287 136.616 134.656 135.712 135.553C134.808 136.451 133.425 137 131.517 137V138V139C133.808 139 135.751 138.333 137.121 136.972C138.493 135.61 139.167 133.678 139.167 131.397H138.167ZM131.517 138V137H116.817V138V139H131.517V138ZM116.817 138V137C114.909 137 113.526 136.451 112.622 135.553C111.718 134.656 111.167 133.287 111.167 131.397H110.167H109.167C109.167 133.678 109.841 135.61 111.213 136.972C112.583 138.333 114.526 139 116.817 139V138ZM110.167 131.397H111.167V131.05H110.167H109.167V131.397H110.167ZM110.167 131.05L111.167 131.05C111.167 128.779 110.309 126.97 108.807 125.75C107.333 124.553 105.337 124 103.167 124V125V126C105.022 126 106.526 126.474 107.546 127.303C108.538 128.108 109.167 129.324 109.167 131.05L110.167 131.05ZM103.167 125V124H102.817V125V126H103.167V125ZM102.817 125V124C100.898 124 99.5144 123.469 98.6138 122.595C97.7176 121.725 97.167 120.386 97.167 118.497H96.167H95.167C95.167 120.778 95.8416 122.691 97.2206 124.03C98.5952 125.364 100.537 126 102.817 126V125ZM96.167 118.497H97.167V118.25H96.167H95.167V118.497H96.167ZM96.167 118.25H97.167C97.167 113.695 93.7375 110.3 89.167 110.3L89.167 111.3L89.167 112.3C92.6464 112.3 95.167 114.813 95.167 118.25H96.167ZM89.167 111.3V110.3H88.8174V111.3V112.3H89.167V111.3ZM88.8174 111.3V110.3C86.8701 110.3 86.1463 109.813 85.7727 109.196C85.5523 108.832 85.392 108.324 85.2937 107.608C85.1956 106.892 85.167 106.034 85.167 105H84.167H83.167C83.167 106.051 83.1947 107.023 83.3123 107.879C83.4296 108.735 83.6445 109.542 84.0616 110.231C84.9633 111.721 86.5647 112.3 88.8174 112.3V111.3ZM84.167 105H85.167V43.1699H84.167H83.167V105H84.167ZM84.167 43.1699H85.167C85.167 43.0816 85.1741 42.9954 85.1872 42.9115L84.1992 42.7568L83.2112 42.6022C83.1826 42.785 83.167 42.9746 83.167 43.1699H84.167ZM84.1992 42.7568L85.1978 42.8092C85.2833 41.1799 85.5747 40.2136 86.087 39.636C86.5637 39.0987 87.4168 38.7002 89.167 38.7002V37.7002V36.7002C87.1572 36.7002 85.6142 37.1553 84.5909 38.3088C83.6033 39.4221 83.2908 40.9842 83.2006 42.7045L84.1992 42.7568ZM89.167 37.7002V38.7002H90.167V37.7002V36.7002H89.167V37.7002ZM90.167 37.7002V38.7002C92.4487 38.7002 94.2485 37.8495 95.4552 36.3509C96.6375 34.8826 97.167 32.8982 97.167 30.75L96.167 30.75L95.167 30.75C95.167 32.598 94.709 34.0887 93.8975 35.0965C93.1104 36.0739 91.9102 36.7002 90.167 36.7002V37.7002ZM96.167 30.75H97.167V30.5029H96.167H95.167V30.75H96.167ZM96.167 30.5029H97.167C97.167 28.6133 97.7183 27.2444 98.6217 26.3476C99.5261 25.4497 100.909 24.9004 102.817 24.9004V23.9004V22.9004C100.526 22.9004 98.5835 23.5673 97.2126 24.9282C95.8408 26.2901 95.167 28.2225 95.167 30.5029H96.167ZM102.817 23.9004V24.9004H103.167V23.9004V22.9004H102.817V23.9004ZM103.167 23.9004V24.9004C107.738 24.9004 111.167 21.5053 111.167 16.9502L110.167 16.9502L109.167 16.9502C109.167 20.3874 106.646 22.9004 103.167 22.9004V23.9004ZM110.167 16.9502H111.167V16.6025H110.167H109.167V16.9502H110.167ZM110.167 16.6025H111.167C111.167 14.7129 111.718 13.3441 112.622 12.4472C113.526 11.5493 114.909 11 116.817 11V10V9C114.526 9 112.583 9.66693 111.213 11.0279C109.841 12.3898 109.167 14.3222 109.167 16.6025H110.167ZM116.817 10V11H131.517V10V9H116.817V10ZM117.167 24V23C112.616 23 109.167 26.2754 109.167 30.8496L110.167 30.8496L111.167 30.8497C111.167 27.4317 113.668 25 117.167 25V24ZM110.167 30.8496H109.167V31.0977H110.167H111.167V30.8496H110.167ZM110.167 31.0977L109.167 31.0976C109.167 32.9872 108.616 34.3561 107.712 35.253C106.808 36.1508 105.425 36.7002 103.517 36.7002V37.7002V38.7002C105.808 38.7002 107.75 38.0332 109.121 36.6723C110.493 35.3104 111.167 33.378 111.167 31.0977L110.167 31.0977ZM103.517 37.7002V36.7002H103.167V37.7002V38.7002H103.517V37.7002ZM103.167 37.7002V36.7002C98.5964 36.7002 95.167 40.0951 95.167 44.6504H96.167H97.167C97.167 41.2131 99.6875 38.7002 103.167 38.7002V37.7002ZM96.167 44.6504H95.167V104.35H96.167H97.167V44.6504H96.167ZM96.167 104.35H95.167C95.167 108.905 98.5964 112.3 103.167 112.3V111.3V110.3C99.6875 110.3 97.167 107.787 97.167 104.35H96.167ZM103.167 111.3V112.3H103.517V111.3V110.3H103.167V111.3ZM103.517 111.3V112.3C105.425 112.3 106.808 112.849 107.712 113.747C108.616 114.644 109.167 116.013 109.167 117.902L110.167 117.902L111.167 117.902C111.167 115.622 110.493 113.69 109.121 112.328C107.75 110.967 105.808 110.3 103.517 110.3V111.3ZM110.167 117.902H109.167V118.15H110.167H111.167V117.902H110.167ZM110.167 118.15L109.167 118.15C109.167 122.706 112.597 126.1 117.167 126.1V125.1V124.1C113.688 124.1 111.167 121.587 111.167 118.15L110.167 118.15ZM117.167 125.1V126.1H131.167V125.1V124.1H117.167V125.1ZM131.167 125.1V126.1C135.737 126.1 139.167 122.706 139.167 118.15L138.167 118.15L137.167 118.15C137.167 121.587 134.646 124.1 131.167 124.1V125.1ZM138.167 118.15H139.167V117.902H138.167H137.167V118.15H138.167ZM138.167 117.902L139.167 117.902C139.167 116.01 139.721 114.552 140.644 113.574C141.561 112.604 142.942 112 144.817 112V111V110C142.493 110 140.549 110.762 139.19 112.201C137.839 113.632 137.167 115.624 137.167 117.902L138.167 117.902ZM144.817 111V112H145.167V111V110H144.817V111ZM145.167 111V112C147.4 112 149.404 111.262 150.858 109.905C152.32 108.542 153.167 106.609 153.167 104.35H152.167H151.167C151.167 106.087 150.527 107.479 149.494 108.442C148.455 109.411 146.959 110 145.167 110V111ZM152.167 104.35H153.167V44H152.167H151.167V104.35H152.167ZM152.167 44H153.167C153.167 41.7342 152.314 39.8743 150.829 38.5943C149.363 37.3291 147.363 36.7002 145.167 36.7002V37.7002V38.7002C146.996 38.7002 148.496 39.2231 149.523 40.1088C150.533 40.9796 151.167 42.2695 151.167 44H152.167ZM145.167 37.7002L145.167 36.7002C143.266 36.7002 141.78 36.1302 140.778 35.1859C139.782 34.2485 139.167 32.8522 139.167 31L138.167 31L137.167 31C137.167 33.3178 137.952 35.2716 139.406 36.6418C140.854 38.0051 142.868 38.7002 145.167 38.7002L145.167 37.7002ZM138.167 31H139.167C139.167 26.4542 135.747 23.0001 131.167 23L131.167 24L131.167 25C134.637 25.0001 137.167 27.5534 137.167 31H138.167ZM131.167 24V23H117.167V24V25H131.167V24Z" fill="white" mask="url(#path-1-inside-1_558_474)"/>
<path d="M50 77.5H54.2422C57.452 77.5 60.0496 78.4404 61.8408 80.1348C63.6283 81.8255 64.6669 84.318 64.667 87.5322V90.4678C64.6669 92.1139 64.156 93.659 63.4043 94.9131C62.6489 96.1734 61.6717 97.1051 60.7764 97.5527L60.6709 97.6055L60.5996 97.7002C59.8918 98.6438 59.0829 99.3348 58.0771 99.7949C57.0669 100.257 55.8282 100.5 54.2422 100.5H53.0918C49.77 100.5 47.6408 99.4254 46.1064 97.667C44.5554 95.8894 43.5768 93.3744 42.667 90.3906V87.5322C42.6671 81.2485 45.9966 77.7251 49.6455 77.5107L50 77.5Z" fill="#FF80DF" stroke="white"/>
<path d="M55.8916 81.5H53.125C51.0682 81.5 49.4222 82.1153 48.293 83.207C47.1662 84.2965 46.5001 85.9125 46.5 88.0215V89.9785C46.5001 91.044 46.8235 92.0463 47.3008 92.8604C47.782 93.6811 48.3984 94.2752 48.9453 94.5547L49.0508 94.6084L49.1211 94.7041C49.5689 95.3145 50.0745 95.7546 50.6992 96.0469C51.3283 96.3411 52.1091 96.5 53.125 96.5H53.875C55.9931 96.5 57.3315 95.8038 58.2969 94.6729C59.2801 93.5209 59.9087 91.8814 60.5 89.9023V88.0215C60.4999 83.8745 58.3606 81.6422 56.1094 81.5068L55.8916 81.5Z" fill="#FF80DF" stroke="white"/>
<path d="M151.163 81.7664L152.553 85.7743C153.605 88.8068 153.568 91.5691 152.555 93.8168C151.543 96.0596 149.529 97.8578 146.492 98.9112L143.718 99.8733C142.163 100.413 140.536 100.436 139.105 100.137C137.667 99.8366 136.466 99.2187 135.75 98.5196L135.665 98.4372L135.552 98.4009C134.429 98.0415 133.511 97.5037 132.747 96.7043C131.979 95.9013 131.344 94.8106 130.824 93.3122L130.447 92.2253C129.358 89.087 129.675 86.7233 130.834 84.6973C132.005 82.6493 134.06 80.9005 136.581 79.0631L139.282 78.1263C145.218 76.067 149.638 78.0579 151.037 81.435L151.163 81.7664Z" fill="#FF80DF" stroke="white"/>
<path d="M138.031 88.9828L138.468 90.2431C138.777 91.1339 139.275 91.7287 139.867 92.0368C140.456 92.3424 141.203 92.4004 142.085 92.0945L142.957 91.792C143.379 91.6454 143.736 91.3738 143.997 91.0623C144.262 90.7453 144.402 90.4178 144.433 90.1854L144.448 90.0685L144.514 89.971C144.695 89.7036 144.793 89.4459 144.82 89.1652C144.847 88.8796 144.803 88.5368 144.651 88.0981L144.533 87.7567C144.219 86.8533 143.746 86.4132 143.167 86.1797C142.563 85.9359 141.796 85.8972 140.841 85.9313L140.043 86.2081C138.337 86.8 137.793 87.9472 137.984 88.8141L138.031 88.9828Z" fill="#FF80DF" stroke="white"/>
<mask id="path-7-inside-2_558_474" fill="white">
<path d="M47.3496 0C51.5496 0 54 3.50031 54 8.5V8.99902C54 14.7487 56.975 16.999 61 16.999H62.3496C66.5496 16.999 69 20.8587 69 26.8584V27.2139C69 32.9636 70.5 37.2861 75 37.2861H75.3496C79.5495 37.2861 80.9999 39.9186 81 45.918V89.082C80.9999 95.0815 79.5495 99.1533 75.3496 99.1533H75C70.975 99.1533 68.0001 103.834 68 109.584V109.94C68 115.94 65.5496 119.296 61.3496 119.296H61C56.975 119.296 54 122.251 54 128.001V128.5C54 134.5 51.5496 138 47.3496 138H32.6504C28.4504 138 26 134.5 26 128.5V128.001C26 122.251 23.025 119.296 19 119.296H18.6504C14.4504 119.296 12 115.94 12 109.94V109.584C11.9999 103.834 9.02495 99.585 5 99.585H4.65039C0.450413 99.585 4.95962e-06 96.5201 0 90.5205V45.918C3.56066e-05 39.9185 0.800093 36.8545 5 36.8545H6C10.025 36.8545 12 32.6042 12 26.8545V26.498C12.0001 20.4986 14.4505 16.999 18.6504 16.999H19C23.025 16.999 26 14.7487 26 8.99902V8.5C26 3.50031 28.4504 0 32.6504 0H47.3496ZM33 17.1426C28.9751 17.1426 26.0001 21.2486 26 26.998V27.3545C26 33.3542 23.5496 36.8545 19.3496 36.8545H19C14.975 36.8545 12 41.1038 12 46.8535V89.585C12 95.3347 14.975 99.585 19 99.585H19.3496C23.5496 99.585 26 101.5 26 107.5V109.44C26 115.19 28.975 119.439 33 119.439H47C51.025 119.439 54 115.19 54 109.44V109.084C54.0001 103.084 56.4504 99.1533 60.6504 99.1533H61C65.025 99.1533 68 95.3347 68 89.585V45.918C67.9999 40.1685 65.0249 37 61 37C56.8 37 54 33.2136 54 27.2139C53.9999 21.4645 51.0248 17.1427 47 17.1426H33Z"/>
</mask>
<path d="M47.3496 0C51.5496 0 54 3.50031 54 8.5V8.99902C54 14.7487 56.975 16.999 61 16.999H62.3496C66.5496 16.999 69 20.8587 69 26.8584V27.2139C69 32.9636 70.5 37.2861 75 37.2861H75.3496C79.5495 37.2861 80.9999 39.9186 81 45.918V89.082C80.9999 95.0815 79.5495 99.1533 75.3496 99.1533H75C70.975 99.1533 68.0001 103.834 68 109.584V109.94C68 115.94 65.5496 119.296 61.3496 119.296H61C56.975 119.296 54 122.251 54 128.001V128.5C54 134.5 51.5496 138 47.3496 138H32.6504C28.4504 138 26 134.5 26 128.5V128.001C26 122.251 23.025 119.296 19 119.296H18.6504C14.4504 119.296 12 115.94 12 109.94V109.584C11.9999 103.834 9.02495 99.585 5 99.585H4.65039C0.450413 99.585 4.95962e-06 96.5201 0 90.5205V45.918C3.56066e-05 39.9185 0.800093 36.8545 5 36.8545H6C10.025 36.8545 12 32.6042 12 26.8545V26.498C12.0001 20.4986 14.4505 16.999 18.6504 16.999H19C23.025 16.999 26 14.7487 26 8.99902V8.5C26 3.50031 28.4504 0 32.6504 0H47.3496ZM33 17.1426C28.9751 17.1426 26.0001 21.2486 26 26.998V27.3545C26 33.3542 23.5496 36.8545 19.3496 36.8545H19C14.975 36.8545 12 41.1038 12 46.8535V89.585C12 95.3347 14.975 99.585 19 99.585H19.3496C23.5496 99.585 26 101.5 26 107.5V109.44C26 115.19 28.975 119.439 33 119.439H47C51.025 119.439 54 115.19 54 109.44V109.084C54.0001 103.084 56.4504 99.1533 60.6504 99.1533H61C65.025 99.1533 68 95.3347 68 89.585V45.918C67.9999 40.1685 65.0249 37 61 37C56.8 37 54 33.2136 54 27.2139C53.9999 21.4645 51.0248 17.1427 47 17.1426H33Z" fill="black"/>
<path d="M81 45.918L82 45.918L82 45.918L81 45.918ZM81 89.082L82 89.082V89.082H81ZM68 109.584L67 109.584V109.584H68ZM68 109.94L69 109.94V109.94H68ZM12 109.94L11 109.94L11 109.94L12 109.94ZM12 109.584L13 109.584L13 109.584L12 109.584ZM5 99.585L5 98.585H5V99.585ZM0 90.5205L-1 90.5205L-1 90.5205L0 90.5205ZM0 45.918L-1 45.918V45.918H0ZM12 26.498L11 26.498V26.498H12ZM26 26.998L25 26.998V26.998H26ZM12 46.8535L11 46.8535V46.8535H12ZM26 109.44L25 109.44L25 109.44L26 109.44ZM54 109.44L55 109.44V109.44H54ZM54 109.084L53 109.084V109.084H54ZM68 45.918L69 45.918L69 45.9179L68 45.918ZM61 37L61 36L61 36L61 37ZM54 27.2139L55 27.2139L55 27.2138L54 27.2139ZM47 17.1426L47 16.1426H47V17.1426ZM47.3496 0V1C49.1384 1 50.5055 1.72999 51.453 2.97938C52.4227 4.25805 53 6.15007 53 8.5H54H55C55 5.85025 54.3521 3.49226 53.0466 1.77085C51.7189 0.0201661 49.7608 -1 47.3496 -1V0ZM54 8.5H53V8.99902H54H55V8.5H54ZM54 8.99902H53C53 12.0377 53.7876 14.3252 55.274 15.8526C56.7631 17.3829 58.8064 17.999 61 17.999V16.999V15.999C59.1686 15.999 57.7119 15.49 56.7073 14.4577C55.6999 13.4225 55 11.71 55 8.99902H54ZM61 16.999V17.999H62.3496V16.999V15.999H61V16.999ZM62.3496 16.999V17.999C64.0929 17.999 65.452 18.7776 66.4165 20.2316C67.4084 21.7269 68 23.9756 68 26.8584H69H70C70 23.7415 69.3664 21.0605 68.0831 19.126C66.7725 17.1503 64.8063 15.999 62.3496 15.999V16.999ZM69 26.8584H68V27.2139H69H70V26.8584H69ZM69 27.2139H68C68 30.1432 68.3767 32.8549 69.4257 34.8682C69.9578 35.8895 70.6757 36.7555 71.6249 37.3631C72.5785 37.9735 73.7081 38.2861 75 38.2861V37.2861V36.2861C74.0419 36.2861 73.2965 36.0584 72.7032 35.6787C72.1055 35.2961 71.6047 34.7221 71.1993 33.9441C70.3733 32.3587 70 30.0342 70 27.2139H69ZM75 37.2861V38.2861H75.3496V37.2861V36.2861H75V37.2861ZM75.3496 37.2861V38.2861C77.2124 38.2861 78.2496 38.8478 78.9038 39.8855C79.6304 41.0382 80 42.9474 80 45.918L81 45.918L82 45.918C82 42.8891 81.6443 40.4824 80.5957 38.819C79.4747 37.0407 77.6867 36.2861 75.3496 36.2861V37.2861ZM81 45.918H80V89.082H81H82V45.918H81ZM81 89.082L80 89.082C80 92.0352 79.6373 94.3628 78.8561 95.9188C78.4732 96.6813 78.0052 97.2277 77.4567 97.5866C76.9132 97.9423 76.2308 98.1533 75.3496 98.1533V99.1533V100.153C76.5684 100.153 77.6422 99.8554 78.5519 99.2601C79.4566 98.6681 80.1386 97.8216 80.6434 96.8162C81.6374 94.8364 82 92.1283 82 89.082L81 89.082ZM75.3496 99.1533V98.1533H75V99.1533V100.153H75.3496V99.1533ZM75 99.1533V98.1533C72.5586 98.1533 70.5302 99.58 69.1561 101.662C67.7835 103.741 67 106.548 67 109.584L68 109.584L69 109.584C69 106.87 69.7041 104.462 70.8252 102.763C71.9449 101.067 73.4165 100.153 75 100.153V99.1533ZM68 109.584H67V109.94H68H69V109.584H68ZM68 109.94L67 109.94C67 112.825 66.4077 114.93 65.4367 116.286C64.4979 117.597 63.1465 118.296 61.3496 118.296V119.296V120.296C63.7527 120.296 65.7264 119.317 67.0629 117.45C68.367 115.629 69 113.056 69 109.94L68 109.94ZM61.3496 119.296V118.296H61V119.296V120.296H61.3496V119.296ZM61 119.296V118.296C58.7281 118.296 56.688 119.139 55.2307 120.842C53.7868 122.53 53 124.962 53 128.001H54H55C55 125.291 55.7007 123.37 56.7505 122.142C57.787 120.931 59.2469 120.296 61 120.296V119.296ZM54 128.001H53V128.5H54H55V128.001H54ZM54 128.5H53C53 131.384 52.408 133.53 51.4306 134.926C50.4844 136.278 49.1309 137 47.3496 137V138V139C49.7684 139 51.74 137.972 53.069 136.073C54.3668 134.22 55 131.616 55 128.5H54ZM47.3496 138V137H32.6504V138V139H47.3496V138ZM32.6504 138V137C30.8691 137 29.5156 136.278 28.5694 134.926C27.592 133.53 27 131.384 27 128.5H26H25C25 131.616 25.6332 134.22 26.931 136.073C28.26 137.972 30.2316 139 32.6504 139V138ZM26 128.5H27V128.001H26H25V128.5H26ZM26 128.001H27C27 124.962 26.2132 122.53 24.7693 120.842C23.312 119.139 21.2719 118.296 19 118.296V119.296V120.296C20.7531 120.296 22.213 120.931 23.2495 122.142C24.2993 123.37 25 125.291 25 128.001H26ZM19 119.296V118.296H18.6504V119.296V120.296H19V119.296ZM18.6504 119.296V118.296C16.8535 118.296 15.5021 117.597 14.5633 116.286C13.5923 114.93 13 112.825 13 109.94L12 109.94L11 109.94C11 113.056 11.633 115.629 12.9371 117.45C14.2736 119.317 16.2473 120.296 18.6504 120.296V119.296ZM12 109.94H13V109.584H12H11V109.94H12ZM12 109.584L13 109.584C13 106.547 12.2156 103.836 10.8285 101.855C9.43401 99.8629 7.40203 98.585 5 98.585L5 99.585L5 100.585C6.62292 100.585 8.09091 101.432 9.19013 103.002C10.2968 104.583 11 106.871 11 109.584L12 109.584ZM5 99.585V98.585H4.65039V99.585V100.585H5V99.585ZM4.65039 99.585V98.585C3.71588 98.585 3.09648 98.4138 2.66775 98.1557C2.25242 97.9056 1.92652 97.5201 1.67201 96.9149C1.12663 95.6181 1 93.5648 1 90.5205L0 90.5205L-1 90.5205C-0.999998 93.4759 -0.901417 95.9548 -0.1716 97.6902C0.211495 98.6012 0.785692 99.357 1.63605 99.869C2.47302 100.373 3.48492 100.585 4.65039 100.585V99.585ZM0 90.5205H1V45.918H0H-1V90.5205H0ZM0 45.918L1 45.918C1.00002 42.9023 1.21228 40.8536 1.82718 39.5679C2.11742 38.961 2.483 38.5586 2.94369 38.2949C3.4155 38.0248 4.06765 37.8545 5 37.8545V36.8545V35.8545C3.83239 35.8545 2.80957 36.0672 1.95015 36.5591C1.07961 37.0574 0.457681 37.7959 0.0229122 38.705C-0.812198 40.4512 -0.999982 42.9342 -1 45.918L0 45.918ZM5 36.8545V37.8545H6V36.8545V35.8545H5V36.8545ZM6 36.8545V37.8545C8.44301 37.8545 10.2445 36.5316 11.382 34.499C12.4941 32.5118 13 29.8209 13 26.8545H12H11C11 29.6378 10.5184 31.9469 9.63673 33.5223C8.7805 35.0522 7.58199 35.8545 6 35.8545V36.8545ZM12 26.8545H13V26.498H12H11V26.8545H12ZM12 26.498L13 26.4981C13.0001 23.6142 13.5921 21.4683 14.5695 20.0723C15.5156 18.7209 16.8691 17.999 18.6504 17.999V16.999V15.999C16.2318 15.999 14.2602 17.0269 12.9311 18.9252C11.6333 20.7789 11.0001 23.3824 11 26.498L12 26.498ZM18.6504 16.999V17.999H19V16.999V15.999H18.6504V16.999ZM19 16.999V17.999C21.1936 17.999 23.2369 17.3829 24.726 15.8526C26.2124 14.3252 27 12.0377 27 8.99902H26H25C25 11.71 24.3001 13.4225 23.2927 14.4577C22.2881 15.49 20.8314 15.999 19 15.999V16.999ZM26 8.99902H27V8.5H26H25V8.99902H26ZM26 8.5H27C27 6.15007 27.5773 4.25805 28.547 2.97938C29.4945 1.72999 30.8616 1 32.6504 1V0V-1C30.2392 -1 28.2811 0.0201661 26.9534 1.77085C25.6479 3.49226 25 5.85025 25 8.5H26ZM32.6504 0V1H47.3496V0V-1H32.6504V0ZM33 17.1426V16.1426C30.6115 16.1426 28.5785 17.3714 27.1771 19.3329C25.7848 21.2816 25.0001 23.9607 25 26.998L26 26.998L27 26.9981C27.0001 24.2859 27.7029 22.0373 28.8044 20.4956C29.8967 18.9667 31.3636 18.1426 33 18.1426V17.1426ZM26 26.998H25V27.3545H26H27V26.998H26ZM26 27.3545H25C25 30.2385 24.408 32.3847 23.4306 33.7809C22.4844 35.1325 21.1309 35.8545 19.3496 35.8545V36.8545V37.8545C21.7684 37.8545 23.74 36.8263 25.069 34.9279C26.3668 33.074 27 30.4702 27 27.3545H26ZM19.3496 36.8545V35.8545H19V36.8545V37.8545H19.3496V36.8545ZM19 36.8545V35.8545C16.598 35.8545 14.566 37.1324 13.1714 39.1244C11.7844 41.1056 11 43.8165 11 46.8535L12 46.8535L13 46.8535C13 44.1408 13.7031 41.8522 14.8098 40.2714C15.9091 38.7013 17.3771 37.8545 19 37.8545V36.8545ZM12 46.8535H11V89.585H12H13V46.8535H12ZM12 89.585H11C11 92.622 11.7844 95.3331 13.1714 97.3146C14.5659 99.3067 16.5979 100.585 19 100.585V99.585V98.585C17.3771 98.585 15.9091 97.738 14.8099 96.1676C13.7031 94.5865 13 92.2977 13 89.585H12ZM19 99.585V100.585H19.3496V99.585V98.585H19V99.585ZM19.3496 99.585V100.585C21.3159 100.585 22.6476 101.034 23.516 101.972C24.4033 102.93 25 104.604 25 107.5H26H27C27 104.396 26.3715 102.112 24.9836 100.613C23.5768 99.0936 21.5833 98.585 19.3496 98.585V99.585ZM26 107.5H25V109.44H26H27V107.5H26ZM26 109.44L25 109.44C25 112.477 25.7844 115.188 27.1715 117.17C28.566 119.162 30.598 120.439 33 120.439V119.439V118.439C31.3771 118.439 29.9091 117.593 28.8099 116.023C27.7031 114.442 27 112.153 27 109.44L26 109.44ZM33 119.439V120.439H47V119.439V118.439H33V119.439ZM47 119.439V120.439C49.402 120.439 51.434 119.162 52.8286 117.17C54.2156 115.188 55 112.477 55 109.44L54 109.44L53 109.44C53 112.153 52.2969 114.442 51.1901 116.023C50.0909 117.593 48.6229 118.439 47 118.439V119.439ZM54 109.44H55V109.084H54H53V109.44H54ZM54 109.084L55 109.084C55 106.201 55.5915 103.933 56.5862 102.418C57.5543 100.943 58.9144 100.153 60.6504 100.153V99.1533V98.1533C58.1864 98.1533 56.2213 99.3292 54.9143 101.32C53.6337 103.27 53 105.967 53 109.084L54 109.084ZM60.6504 99.1533V100.153H61V99.1533V98.1533H60.6504V99.1533ZM61 99.1533V100.153C63.3607 100.153 65.3959 99.0223 66.8112 97.1228C68.2147 95.2393 69 92.6231 69 89.585H68H67C67 92.2965 66.2978 94.4646 65.2075 95.9278C64.1292 97.375 62.6643 98.1533 61 98.1533V99.1533ZM68 89.585H69V45.918H68H67V89.585H68ZM68 45.918L69 45.9179C68.9999 42.8789 68.2134 40.4026 66.7805 38.6664C65.3335 36.9131 63.2945 36 61 36V37V38C62.7304 38 64.1913 38.6712 65.238 39.9395C66.2989 41.2249 66.9999 43.2076 67 45.918L68 45.918ZM61 37L61 36C59.2382 36 57.7829 35.2217 56.7357 33.7714C55.6685 32.2933 55 30.0718 55 27.2139L54 27.2139L53 27.2139C53 30.3557 53.7315 33.0272 55.1143 34.9422C56.5171 36.885 58.5618 38 61 38L61 37ZM54 27.2139L55 27.2138C54.9999 24.1772 54.2156 21.4503 52.8312 19.4526C51.4401 17.4455 49.4087 16.1427 47 16.1426L47 17.1426L47 18.1426C48.6161 18.1426 50.0846 19.0008 51.1873 20.5919C52.2966 22.1924 52.9999 24.5011 53 27.2139L54 27.2139ZM47 17.1426V16.1426H33V17.1426V18.1426H47V17.1426Z" fill="white" mask="url(#path-7-inside-2_558_474)"/>
<path d="M130.837 148C132.376 166.029 123.012 180.717 103.525 187.469L92.9036 191.149C80.247 195.534 66.5426 191.508 60.4123 185.533C51.2912 182.619 45.1781 176.694 41.0699 164.865L39.6261 160.708C38.0295 156.11 37.1899 151.899 37 148C37 148 77.897 148 85.5094 148C97.1095 148 130.837 148 130.837 148Z" fill="#FF80DF"/>
</svg>
