<svg width="169" height="163" viewBox="0 0 169 163" fill="none" xmlns="http://www.w3.org/2000/svg">
<g filter="url(#filter0_d_558_476)">
<path d="M120.048 47.3297H120.127C120.603 47.3297 120.862 47.371 120.862 47.4348L120.862 47.7955C120.862 47.8594 120.585 47.8967 120.108 47.8967H120.029C119.553 47.8967 119.275 47.8594 119.275 47.7955L119.294 47.4308C119.294 47.3669 119.571 47.3297 120.048 47.3297Z" fill="white"/>
<path d="M126.466 41.9998C126.938 41.9998 127.213 42.2836 127.213 42.7701V42.8512C127.213 43.3377 126.938 43.6215 126.466 43.6215H126.388C125.858 43.6215 125.641 43.8444 125.641 44.3917V46.0945C125.641 46.581 125.366 46.8648 124.895 46.8648H124.856C124.404 46.8648 124.07 47.2094 124.07 47.6756V49.3378C124.07 49.8243 123.795 50.1081 123.324 50.1081H123.284C122.833 50.1081 122.499 50.4527 122.499 50.9189V52.3543C122.499 52.8408 122.224 53.1246 121.752 53.1246H121.713C121.261 53.1246 120.927 53.4692 120.927 53.9354V55.5976C120.927 56.0841 120.652 56.3679 120.181 56.3679H120.141C119.69 56.3679 119.356 56.7125 119.356 57.1787V57.2192C119.356 57.7057 119.081 57.9895 118.609 57.9895H116.959C116.488 57.9895 116.213 57.7057 116.213 57.2192V57.1381C116.213 56.6516 116.488 56.3679 116.959 56.3679H118.57C119.022 56.3679 119.356 56.0233 119.356 55.557V53.8948C119.356 53.4083 119.631 53.1246 120.102 53.1246H120.141C120.593 53.1246 120.927 52.78 120.927 52.3137V50.9189C120.927 50.4527 120.593 50.1081 120.141 50.1081H120.102C119.631 50.1081 119.275 49.744 119.275 49.2575V47.6699C119.275 47.2037 119.249 46.8648 118.797 46.8648H118.758C118.286 46.8648 117.914 46.5121 117.914 46.0256V44.3917C117.914 43.8444 117.568 43.6215 117.038 43.6215H116.959C116.488 43.6215 116.228 43.3405 116.228 42.854V42.7729C116.228 42.2864 116.488 42.0375 116.959 42.0375H120.181C120.652 42.0375 120.927 42.2836 120.927 42.7701V42.8512C120.927 43.3377 120.653 43.5874 120.182 43.5874H120.103C119.573 43.5874 119.356 43.8444 119.356 44.3917L119.388 45.9689C119.388 46.4351 119.673 46.8648 120.125 46.8648H120.181C120.652 46.8648 120.862 47.07 120.862 47.5565V49.2575C120.862 49.7238 121.261 50.1081 121.713 50.1081C122.165 50.1081 122.499 49.7635 122.499 49.2972V47.635C122.499 47.1486 122.774 46.8648 123.245 46.8648H123.284C123.736 46.8648 124.07 46.5202 124.07 46.0539V44.3917C124.07 43.8444 123.854 43.6215 123.324 43.6215H123.245C122.774 43.6215 122.499 43.3377 122.499 42.8512V42.7701C122.499 42.2836 122.774 41.9998 123.245 41.9998H126.466Z" fill="#FF80DF" fill-opacity="0.54"/>
</g>
<path d="M46.1377 42.5H47.2881C50.4979 42.5 53.0955 43.4404 54.8867 45.1348C56.6742 46.8255 57.7128 49.318 57.7129 52.5322V55.4678C57.7128 58.6916 56.74 61.182 54.9912 62.8682C53.2397 64.5568 50.6463 65.5 47.2881 65.5H46.1377C42.7795 65.5 40.1861 64.5568 38.4346 62.8682C36.6858 61.182 35.713 58.6916 35.7129 55.4678V52.5322C35.713 49.3918 37.306 46.8904 39.4307 45.1592C41.433 43.5278 43.8634 42.6182 45.7646 42.5107L46.1377 42.5Z" fill="#FF80DF" stroke="white"/>
<path d="M46.8877 50.5H46.5381C45.6412 50.5 44.9491 50.786 44.4805 51.2715C44.0104 51.7586 43.7129 52.5006 43.7129 53.5107V54.4893C43.7129 55.5085 43.9937 56.2494 44.4512 56.7324C44.9051 57.2116 45.5928 57.5 46.5381 57.5H46.8877C47.833 57.5 48.5207 57.2116 48.9746 56.7324C49.432 56.2494 49.7129 55.5085 49.7129 54.4893V53.5107C49.7129 52.5696 49.2792 51.8205 48.6924 51.2969C48.1675 50.8285 47.553 50.5702 47.0811 50.5127L46.8877 50.5Z" fill="#FF80DF" stroke="white"/>
<mask id="path-5-inside-1_558_476" fill="white">
<path d="M133.729 13C137.929 13 140.38 15.4325 140.38 19.6025V19.9502C140.38 23.9463 143.355 26.9004 147.38 26.9004H148.729C152.929 26.9004 155.38 29.5829 155.38 33.7529V34C155.38 37.9963 156.88 41 161.38 41H161.729C165.929 41 168.38 42.83 168.38 47V67C168.38 71.17 165.929 74 161.729 74H161.38C157.355 74 154.38 77.2537 154.38 81.25V81.4971C154.38 85.6671 151.929 88 147.729 88H147.38C143.355 88 140.38 90.0537 140.38 94.0498V94.3975C140.38 98.5675 137.929 101 133.729 101H119.03C114.83 101 112.38 98.5675 112.38 94.3975V94.0498C112.38 90.0537 109.405 88 105.38 88H105.03C100.83 88 98.3799 85.6671 98.3799 81.4971V81.25C98.3799 77.2537 95.4049 74.2998 91.3799 74.2998H91.0303C86.8303 74.2998 86.3799 72.17 86.3799 68V47C86.3799 42.83 87.1799 40.7002 91.3799 40.7002H92.3799C96.4049 40.7002 98.3799 37.7463 98.3799 33.75V33.5029C98.3799 29.3329 100.83 26.9004 105.03 26.9004H105.38C109.405 26.9004 112.38 23.9463 112.38 19.9502V19.6025C112.38 15.4325 114.83 13 119.03 13H133.729ZM119.38 27C115.355 27 112.38 29.8536 112.38 33.8496V34.0977C112.38 38.2676 109.929 40.7002 105.729 40.7002H105.38C101.355 40.7002 98.3799 43.6541 98.3799 47.6504V67.3496C98.3799 71.3459 101.355 74.2998 105.38 74.2998H105.729C109.929 74.2998 112.38 76.7324 112.38 80.9023V81.1504C112.38 85.1464 115.355 88.0996 119.38 88.0996H133.38C137.405 88.0996 140.38 85.1464 140.38 81.1504V80.9023C140.38 76.7324 142.83 74 147.03 74H147.38C151.405 74 154.38 71.3459 154.38 67.3496V47C154.38 43.0038 151.405 40.7002 147.38 40.7002C143.18 40.7002 140.38 38.17 140.38 34C140.38 30.0038 137.405 27.0001 133.38 27H119.38Z"/>
</mask>
<path d="M133.729 13C137.929 13 140.38 15.4325 140.38 19.6025V19.9502C140.38 23.9463 143.355 26.9004 147.38 26.9004H148.729C152.929 26.9004 155.38 29.5829 155.38 33.7529V34C155.38 37.9963 156.88 41 161.38 41H161.729C165.929 41 168.38 42.83 168.38 47V67C168.38 71.17 165.929 74 161.729 74H161.38C157.355 74 154.38 77.2537 154.38 81.25V81.4971C154.38 85.6671 151.929 88 147.729 88H147.38C143.355 88 140.38 90.0537 140.38 94.0498V94.3975C140.38 98.5675 137.929 101 133.729 101H119.03C114.83 101 112.38 98.5675 112.38 94.3975V94.0498C112.38 90.0537 109.405 88 105.38 88H105.03C100.83 88 98.3799 85.6671 98.3799 81.4971V81.25C98.3799 77.2537 95.4049 74.2998 91.3799 74.2998H91.0303C86.8303 74.2998 86.3799 72.17 86.3799 68V47C86.3799 42.83 87.1799 40.7002 91.3799 40.7002H92.3799C96.4049 40.7002 98.3799 37.7463 98.3799 33.75V33.5029C98.3799 29.3329 100.83 26.9004 105.03 26.9004H105.38C109.405 26.9004 112.38 23.9463 112.38 19.9502V19.6025C112.38 15.4325 114.83 13 119.03 13H133.729ZM119.38 27C115.355 27 112.38 29.8536 112.38 33.8496V34.0977C112.38 38.2676 109.929 40.7002 105.729 40.7002H105.38C101.355 40.7002 98.3799 43.6541 98.3799 47.6504V67.3496C98.3799 71.3459 101.355 74.2998 105.38 74.2998H105.729C109.929 74.2998 112.38 76.7324 112.38 80.9023V81.1504C112.38 85.1464 115.355 88.0996 119.38 88.0996H133.38C137.405 88.0996 140.38 85.1464 140.38 81.1504V80.9023C140.38 76.7324 142.83 74 147.03 74H147.38C151.405 74 154.38 71.3459 154.38 67.3496V47C154.38 43.0038 151.405 40.7002 147.38 40.7002C143.18 40.7002 140.38 38.17 140.38 34C140.38 30.0038 137.405 27.0001 133.38 27H119.38Z" fill="black"/>
<path d="M140.38 19.9502L139.38 19.9502L139.38 19.9502L140.38 19.9502ZM140.38 94.0498L139.38 94.0498V94.0498H140.38ZM112.38 94.0498L113.38 94.0498L113.38 94.0498L112.38 94.0498ZM91.3799 74.2998L91.3799 73.2998H91.3799V74.2998ZM98.3799 33.75L99.3799 33.75V33.75H98.3799ZM112.38 19.9502L113.38 19.9502V19.9502H112.38ZM112.38 33.8496L111.38 33.8496V33.8496H112.38ZM112.38 34.0977L113.38 34.0977V34.0977H112.38ZM112.38 80.9023L113.38 80.9023L113.38 80.9023L112.38 80.9023ZM112.38 81.1504L111.38 81.1504L111.38 81.1504L112.38 81.1504ZM140.38 81.1504L141.38 81.1504V81.1504H140.38ZM140.38 80.9023L139.38 80.9023V80.9023H140.38ZM147.38 40.7002L147.38 39.7002H147.38L147.38 40.7002ZM140.38 34L139.38 34V34L140.38 34ZM133.38 27L133.38 26H133.38V27ZM133.729 13V14C135.638 14 137.021 14.5493 137.925 15.4472C138.829 16.3441 139.38 17.7129 139.38 19.6025H140.38H141.38C141.38 17.3222 140.706 15.3898 139.334 14.0279C137.963 12.6669 136.021 12 133.729 12V13ZM140.38 19.6025H139.38V19.9502H140.38H141.38V19.6025H140.38ZM140.38 19.9502L139.38 19.9502C139.38 24.5053 142.809 27.9004 147.38 27.9004V26.9004V25.9004C143.901 25.9004 141.38 23.3874 141.38 19.9502L140.38 19.9502ZM147.38 26.9004V27.9004H148.729V26.9004V25.9004H147.38V26.9004ZM148.729 26.9004V27.9004C150.611 27.9004 151.992 28.4953 152.906 29.4533C153.827 30.4177 154.38 31.8614 154.38 33.7529H155.38H156.38C156.38 31.4745 155.708 29.4919 154.353 28.0725C152.992 26.6467 151.048 25.9004 148.729 25.9004V26.9004ZM155.38 33.7529H154.38V34H155.38H156.38V33.7529H155.38ZM155.38 34H154.38C154.38 36.0945 154.768 38.0987 155.892 39.5985C157.057 41.1523 158.885 42 161.38 42V41V40C159.374 40 158.203 39.3459 157.492 38.3987C156.742 37.3975 156.38 35.9018 156.38 34H155.38ZM161.38 41V42H161.729V41V40H161.38V41ZM161.729 41V42C163.706 42 165.093 42.4336 165.977 43.1943C166.833 43.9306 167.38 45.1149 167.38 47H168.38H169.38C169.38 44.7151 168.701 42.8994 167.282 41.6782C165.891 40.4814 163.953 40 161.729 40V41ZM168.38 47H167.38V67H168.38H169.38V47H168.38ZM168.38 67H167.38C167.38 68.8927 166.826 70.38 165.896 71.3844C164.975 72.3788 163.594 73 161.729 73V74V75C164.064 75 166.009 74.2062 167.363 72.7431C168.709 71.29 169.38 69.2773 169.38 67H168.38ZM161.729 74V73H161.38V74V75H161.729V74ZM161.38 74V73C156.755 73 153.38 76.7508 153.38 81.25H154.38H155.38C155.38 77.7567 157.955 75 161.38 75V74ZM154.38 81.25H153.38V81.4971H154.38H155.38V81.25H154.38ZM154.38 81.4971H153.38C153.38 83.3859 152.829 84.7247 151.933 85.5948C151.032 86.4692 149.649 87 147.729 87V88V89C150.01 89 151.952 88.3643 153.326 87.0298C154.705 85.6909 155.38 83.7782 155.38 81.4971H154.38ZM147.729 88V87H147.38V88V89H147.729V88ZM147.38 88V87C145.21 87 143.214 87.5525 141.74 88.7502C140.238 89.9703 139.38 91.7791 139.38 94.0498L140.38 94.0498L141.38 94.0498C141.38 92.3244 142.009 91.1083 143.001 90.3025C144.021 89.4743 145.525 89 147.38 89V88ZM140.38 94.0498H139.38V94.3975H140.38H141.38V94.0498H140.38ZM140.38 94.3975H139.38C139.38 96.2871 138.829 97.6559 137.925 98.5528C137.021 99.4507 135.638 100 133.729 100V101V102C136.021 102 137.963 101.333 139.334 99.9721C140.706 98.6102 141.38 96.6778 141.38 94.3975H140.38ZM133.729 101V100H119.03V101V102H133.729V101ZM119.03 101V100C117.122 100 115.739 99.4507 114.835 98.5528C113.931 97.6559 113.38 96.2871 113.38 94.3975H112.38H111.38C111.38 96.6778 112.054 98.6102 113.426 99.9721C114.796 101.333 116.739 102 119.03 102V101ZM112.38 94.3975H113.38V94.0498H112.38H111.38V94.3975H112.38ZM112.38 94.0498L113.38 94.0498C113.38 91.7791 112.522 89.9703 111.02 88.7502C109.545 87.5525 107.549 87 105.38 87V88V89C107.235 89 108.739 89.4743 109.759 90.3025C110.751 91.1083 111.38 92.3244 111.38 94.0498L112.38 94.0498ZM105.38 88V87H105.03V88V89H105.38V88ZM105.03 88V87C103.111 87 101.727 86.4692 100.827 85.5948C99.9305 84.7247 99.3799 83.3859 99.3799 81.4971H98.3799H97.3799C97.3799 83.7782 98.0545 85.6909 99.4335 87.0298C100.808 88.3643 102.75 89 105.03 89V88ZM98.3799 81.4971H99.3799V81.25H98.3799H97.3799V81.4971H98.3799ZM98.3799 81.25H99.3799C99.3799 76.6948 95.9504 73.2998 91.3799 73.2998L91.3799 74.2998L91.3799 75.2998C94.8593 75.2998 97.3799 77.8127 97.3799 81.25H98.3799ZM91.3799 74.2998V73.2998H91.0303V74.2998V75.2998H91.3799V74.2998ZM91.0303 74.2998V73.2998C89.083 73.2998 88.3592 72.8133 87.9856 72.196C87.7652 71.8317 87.6049 71.3243 87.5066 70.6076C87.4084 69.8922 87.3799 69.0335 87.3799 68H86.3799H85.3799C85.3799 69.0515 85.4076 70.0228 85.5252 70.8795C85.6425 71.735 85.8574 72.5419 86.2745 73.2314C87.1762 74.7214 88.7776 75.2998 91.0303 75.2998V74.2998ZM86.3799 68H87.3799V47H86.3799H85.3799V68H86.3799ZM86.3799 47H87.3799C87.3799 44.9096 87.5969 43.6261 88.1287 42.8532C88.5863 42.1881 89.4347 41.7002 91.3799 41.7002V40.7002V39.7002C89.1251 39.7002 87.4735 40.2772 86.4811 41.7195C85.5628 43.054 85.3799 44.9204 85.3799 47H86.3799ZM91.3799 40.7002V41.7002H92.3799V40.7002V39.7002H91.3799V40.7002ZM92.3799 40.7002V41.7002C94.6616 41.7002 96.4614 40.8495 97.6681 39.3509C98.8504 37.8826 99.3799 35.8982 99.3799 33.75L98.3799 33.75L97.3799 33.75C97.3799 35.598 96.9219 37.0887 96.1104 38.0965C95.3233 39.0739 94.1231 39.7002 92.3799 39.7002V40.7002ZM98.3799 33.75H99.3799V33.5029H98.3799H97.3799V33.75H98.3799ZM98.3799 33.5029H99.3799C99.3799 31.6133 99.9312 30.2444 100.835 29.3476C101.739 28.4497 103.122 27.9004 105.03 27.9004V26.9004V25.9004C102.739 25.9004 100.796 26.5673 99.4255 27.9282C98.0537 29.2901 97.3799 31.2225 97.3799 33.5029H98.3799ZM105.03 26.9004V27.9004H105.38V26.9004V25.9004H105.03V26.9004ZM105.38 26.9004V27.9004C109.95 27.9004 113.38 24.5053 113.38 19.9502L112.38 19.9502L111.38 19.9502C111.38 23.3874 108.859 25.9004 105.38 25.9004V26.9004ZM112.38 19.9502H113.38V19.6025H112.38H111.38V19.9502H112.38ZM112.38 19.6025H113.38C113.38 17.7129 113.931 16.3441 114.835 15.4472C115.739 14.5493 117.122 14 119.03 14V13V12C116.739 12 114.796 12.6669 113.426 14.0279C112.054 15.3898 111.38 17.3222 111.38 19.6025H112.38ZM119.03 13V14H133.729V13V12H119.03V13ZM119.38 27V26C114.829 26 111.38 29.2754 111.38 33.8496L112.38 33.8496L113.38 33.8497C113.38 30.4317 115.881 28 119.38 28V27ZM112.38 33.8496H111.38V34.0977H112.38H113.38V33.8496H112.38ZM112.38 34.0977L111.38 34.0976C111.38 35.9872 110.829 37.3561 109.925 38.253C109.021 39.1508 107.638 39.7002 105.729 39.7002V40.7002V41.7002C108.021 41.7002 109.963 41.0332 111.334 39.6723C112.706 38.3104 113.38 36.378 113.38 34.0977L112.38 34.0977ZM105.729 40.7002V39.7002H105.38V40.7002V41.7002H105.729V40.7002ZM105.38 40.7002V39.7002C100.809 39.7002 97.3799 43.0951 97.3799 47.6504H98.3799H99.3799C99.3799 44.2131 101.9 41.7002 105.38 41.7002V40.7002ZM98.3799 47.6504H97.3799V67.3496H98.3799H99.3799V47.6504H98.3799ZM98.3799 67.3496H97.3799C97.3799 71.9049 100.809 75.2998 105.38 75.2998V74.2998V73.2998C101.9 73.2998 99.3799 70.7869 99.3799 67.3496H98.3799ZM105.38 74.2998V75.2998H105.729V74.2998V73.2998H105.38V74.2998ZM105.729 74.2998V75.2998C107.638 75.2998 109.021 75.8492 109.925 76.747C110.829 77.6439 111.38 79.0128 111.38 80.9024L112.38 80.9023L113.38 80.9023C113.38 78.622 112.706 76.6896 111.334 75.3277C109.963 73.9668 108.021 73.2998 105.729 73.2998V74.2998ZM112.38 80.9023H111.38V81.1504H112.38H113.38V80.9023H112.38ZM112.38 81.1504L111.38 81.1504C111.38 85.7056 114.81 89.0996 119.38 89.0996V88.0996V87.0996C115.9 87.0996 113.38 84.5873 113.38 81.1503L112.38 81.1504ZM119.38 88.0996V89.0996H133.38V88.0996V87.0996H119.38V88.0996ZM133.38 88.0996V89.0996C137.95 89.0996 141.38 85.7056 141.38 81.1504L140.38 81.1504L139.38 81.1503C139.38 84.5873 136.859 87.0996 133.38 87.0996V88.0996ZM140.38 81.1504H141.38V80.9023H140.38H139.38V81.1504H140.38ZM140.38 80.9023L141.38 80.9024C141.38 79.0104 141.933 77.552 142.857 76.5741C143.774 75.6039 145.155 75 147.03 75V74V73C144.706 73 142.762 73.7623 141.403 75.2008C140.052 76.6316 139.38 78.6243 139.38 80.9023L140.38 80.9023ZM147.03 74V75H147.38V74V73H147.03V74ZM147.38 74V75C149.613 75 151.617 74.2616 153.071 72.9047C154.533 71.5416 155.38 69.6086 155.38 67.3496H154.38H153.38C153.38 69.0868 152.74 70.4791 151.707 71.4421C150.668 72.4113 149.172 73 147.38 73V74ZM154.38 67.3496H155.38V47H154.38H153.38V67.3496H154.38ZM154.38 47H155.38C155.38 44.7342 154.527 42.8743 153.042 41.5943C151.576 40.3291 149.576 39.7002 147.38 39.7002V40.7002V41.7002C149.209 41.7002 150.709 42.2231 151.736 43.1088C152.746 43.9796 153.38 45.2695 153.38 47H154.38ZM147.38 40.7002L147.38 39.7002C145.479 39.7002 143.993 39.1302 142.991 38.1859C141.995 37.2485 141.38 35.8522 141.38 34L140.38 34L139.38 34C139.38 36.3178 140.164 38.2716 141.619 39.6418C143.067 41.0051 145.081 41.7002 147.38 41.7002L147.38 40.7002ZM140.38 34H141.38C141.38 29.4542 137.96 26.0001 133.38 26L133.38 27L133.38 28C136.85 28.0001 139.38 30.5534 139.38 34H140.38ZM133.38 27V26H119.38V27V28H133.38V27Z" fill="white" mask="url(#path-5-inside-1_558_476)"/>
<path d="M119.138 40.5H120.288C123.498 40.5 126.095 41.4404 127.887 43.1348C129.674 44.8255 130.713 47.318 130.713 50.5322V53.4678C130.713 56.6916 129.74 59.182 127.991 60.8682C126.24 62.5568 123.646 63.5 120.288 63.5H119.138C115.779 63.5 113.186 62.5568 111.435 60.8682C109.686 59.182 108.713 56.6916 108.713 53.4678V50.5322C108.713 47.3918 110.306 44.8904 112.431 43.1592C114.433 41.5278 116.863 40.6182 118.765 40.5107L119.138 40.5Z" fill="#FF80DF" stroke="white"/>
<path d="M124.213 52.2246L124.213 51.7754C124.213 50.587 123.844 49.6558 123.206 49.0225C122.568 48.3891 121.608 48 120.324 48L119.102 48C117.809 48 116.85 48.3661 116.217 48.9834C115.585 49.5989 115.213 50.5258 115.213 51.7754L115.213 52.2246C115.213 53.4742 115.585 54.4011 116.217 55.0166C116.85 55.6339 117.809 56 119.102 56L120.324 56C121.537 56 122.505 55.4243 123.181 54.6455C123.824 53.9036 124.168 53.0168 124.209 52.3545L124.213 52.2246Z" fill="#FF80DF" stroke="white"/>
<mask id="path-9-inside-2_558_476" fill="white">
<path d="M47.3496 0C51.5496 0 54 3.50031 54 9.5V9.99902C54 15.7487 56.975 19.999 61 19.999H62.3496C66.5496 19.999 69 23.8587 69 29.8584V30.2139C69 35.9636 70.5 40.2861 75 40.2861H75.3496C79.5495 40.2861 80.9999 42.9186 81 48.918V52.082C80.9999 58.0815 79.5495 62.1533 75.3496 62.1533H75C70.975 62.1533 68.0001 66.8344 68 72.584V72.9404C68 78.94 65.5496 82.2959 61.3496 82.2959H61C56.975 82.2959 54 85.2513 54 91.001V91.5C54 97.4997 51.5496 101 47.3496 101H32.6504C28.4504 101 26 97.4997 26 91.5V91.001C26 85.2513 23.025 82.2959 19 82.2959H18.6504C14.4504 82.2959 12 78.94 12 72.9404V72.584C11.9999 66.8344 9.02495 62.585 5 62.585H4.65039C0.450413 62.585 4.95962e-06 59.5201 0 53.5205V48.918C3.56066e-05 42.9185 0.800093 39.8545 5 39.8545H6C10.025 39.8545 12 35.6042 12 29.8545V29.498C12.0001 23.4986 14.4505 19.999 18.6504 19.999H19C23.025 19.999 26 15.7487 26 9.99902V9.5C26 3.50031 28.4504 0 32.6504 0H47.3496ZM33 20.1426C28.9751 20.1426 26.0001 24.2486 26 29.998V30.3545C26 36.3542 23.5496 39.8545 19.3496 39.8545H19C14.975 39.8545 12 44.1038 12 49.8535V52.585C12 58.3347 14.975 62.585 19 62.585H19.3496C23.5496 62.585 26 64.5003 26 70.5V72.4404C26 78.1901 28.975 82.4395 33 82.4395H47C51.025 82.4395 54 78.1901 54 72.4404V72.084C54.0001 66.0844 56.4504 62.1533 60.6504 62.1533H61C65.025 62.1533 68 58.3347 68 52.585V48.918C67.9999 43.1685 65.0249 40 61 40C56.8 40 54 36.2136 54 30.2139C53.9999 24.4645 51.0248 20.1427 47 20.1426H33Z"/>
</mask>
<path d="M47.3496 0C51.5496 0 54 3.50031 54 9.5V9.99902C54 15.7487 56.975 19.999 61 19.999H62.3496C66.5496 19.999 69 23.8587 69 29.8584V30.2139C69 35.9636 70.5 40.2861 75 40.2861H75.3496C79.5495 40.2861 80.9999 42.9186 81 48.918V52.082C80.9999 58.0815 79.5495 62.1533 75.3496 62.1533H75C70.975 62.1533 68.0001 66.8344 68 72.584V72.9404C68 78.94 65.5496 82.2959 61.3496 82.2959H61C56.975 82.2959 54 85.2513 54 91.001V91.5C54 97.4997 51.5496 101 47.3496 101H32.6504C28.4504 101 26 97.4997 26 91.5V91.001C26 85.2513 23.025 82.2959 19 82.2959H18.6504C14.4504 82.2959 12 78.94 12 72.9404V72.584C11.9999 66.8344 9.02495 62.585 5 62.585H4.65039C0.450413 62.585 4.95962e-06 59.5201 0 53.5205V48.918C3.56066e-05 42.9185 0.800093 39.8545 5 39.8545H6C10.025 39.8545 12 35.6042 12 29.8545V29.498C12.0001 23.4986 14.4505 19.999 18.6504 19.999H19C23.025 19.999 26 15.7487 26 9.99902V9.5C26 3.50031 28.4504 0 32.6504 0H47.3496ZM33 20.1426C28.9751 20.1426 26.0001 24.2486 26 29.998V30.3545C26 36.3542 23.5496 39.8545 19.3496 39.8545H19C14.975 39.8545 12 44.1038 12 49.8535V52.585C12 58.3347 14.975 62.585 19 62.585H19.3496C23.5496 62.585 26 64.5003 26 70.5V72.4404C26 78.1901 28.975 82.4395 33 82.4395H47C51.025 82.4395 54 78.1901 54 72.4404V72.084C54.0001 66.0844 56.4504 62.1533 60.6504 62.1533H61C65.025 62.1533 68 58.3347 68 52.585V48.918C67.9999 43.1685 65.0249 40 61 40C56.8 40 54 36.2136 54 30.2139C53.9999 24.4645 51.0248 20.1427 47 20.1426H33Z" fill="black"/>
<path d="M81 48.918L82 48.918L82 48.918L81 48.918ZM81 52.082L82 52.082V52.082H81ZM68 72.584L67 72.584V72.584H68ZM68 72.9404L69 72.9404V72.9404H68ZM12 72.9404L11 72.9404L11 72.9404L12 72.9404ZM12 72.584L13 72.584L13 72.584L12 72.584ZM5 62.585L5 61.585H5V62.585ZM0 53.5205L-1 53.5205L-1 53.5205L0 53.5205ZM0 48.918L-1 48.918V48.918H0ZM12 29.498L11 29.498V29.498H12ZM26 29.998L25 29.998V29.998H26ZM12 49.8535L11 49.8535V49.8535H12ZM26 72.4404L25 72.4404L25 72.4404L26 72.4404ZM54 72.4404L55 72.4404V72.4404H54ZM54 72.084L53 72.084V72.084H54ZM68 48.918L69 48.918L69 48.9179L68 48.918ZM61 40L61 39L61 39L61 40ZM54 30.2139L55 30.2139L55 30.2138L54 30.2139ZM47 20.1426L47 19.1426H47V20.1426ZM47.3496 0V1C49.1309 1 50.4844 1.72201 51.4306 3.0736C52.408 4.46982 53 6.61604 53 9.5H54H55C55 6.38427 54.3668 3.78049 53.069 1.92663C51.74 0.0281455 49.7684 -1 47.3496 -1V0ZM54 9.5H53V9.99902H54H55V9.5H54ZM54 9.99902H53C53 13.036 53.7844 15.7471 55.1714 17.7286C56.5659 19.7208 58.5979 20.999 61 20.999V19.999V18.999C59.3771 18.999 57.9091 18.1521 56.8099 16.5817C55.7031 15.0006 55 12.7117 55 9.99902H54ZM61 19.999V20.999H62.3496V19.999V18.999H61V19.999ZM62.3496 19.999V20.999C64.0929 20.999 65.452 21.7776 66.4165 23.2316C67.4084 24.7269 68 26.9756 68 29.8584H69H70C70 26.7415 69.3664 24.0605 68.0831 22.126C66.7725 20.1503 64.8063 18.999 62.3496 18.999V19.999ZM69 29.8584H68V30.2139H69H70V29.8584H69ZM69 30.2139H68C68 33.1432 68.3767 35.8549 69.4257 37.8682C69.9578 38.8895 70.6757 39.7555 71.6249 40.3631C72.5785 40.9735 73.7081 41.2861 75 41.2861V40.2861V39.2861C74.0419 39.2861 73.2965 39.0584 72.7032 38.6787C72.1055 38.2961 71.6047 37.7221 71.1993 36.9441C70.3733 35.3587 70 33.0342 70 30.2139H69ZM75 40.2861V41.2861H75.3496V40.2861V39.2861H75V40.2861ZM75.3496 40.2861V41.2861C77.2124 41.2861 78.2496 41.8478 78.9038 42.8855C79.6304 44.0382 80 45.9474 80 48.918L81 48.918L82 48.918C82 45.8891 81.6443 43.4824 80.5957 41.819C79.4747 40.0407 77.6867 39.2861 75.3496 39.2861V40.2861ZM81 48.918H80V52.082H81H82V48.918H81ZM81 52.082L80 52.082C80 55.0352 79.6373 57.3628 78.8561 58.9188C78.4732 59.6813 78.0052 60.2277 77.4567 60.5866C76.9132 60.9423 76.2308 61.1533 75.3496 61.1533V62.1533V63.1533C76.5684 63.1533 77.6422 62.8554 78.5519 62.2601C79.4566 61.6681 80.1386 60.8216 80.6434 59.8162C81.6374 57.8364 82 55.1283 82 52.082L81 52.082ZM75.3496 62.1533V61.1533H75V62.1533V63.1533H75.3496V62.1533ZM75 62.1533V61.1533C72.5586 61.1533 70.5302 62.58 69.1561 64.6617C67.7835 66.7411 67 69.5485 67 72.584L68 72.584L69 72.584C69 69.8699 69.7041 67.4619 70.8252 65.7634C71.9449 64.0672 73.4165 63.1533 75 63.1533V62.1533ZM68 72.584H67V72.9404H68H69V72.584H68ZM68 72.9404L67 72.9404C67 75.8249 66.4077 77.9296 65.4367 79.2859C64.4979 80.5971 63.1465 81.2959 61.3496 81.2959V82.2959V83.2959C63.7527 83.2959 65.7264 82.3168 67.0629 80.4502C68.367 78.6286 69 76.0555 69 72.9404L68 72.9404ZM61.3496 82.2959V81.2959H61V82.2959V83.2959H61.3496V82.2959ZM61 82.2959V81.2959C58.7281 81.2959 56.688 82.1388 55.2307 83.8422C53.7868 85.5302 53 87.9617 53 91.001H54H55C55 88.2906 55.7007 86.3695 56.7505 85.1423C57.787 83.9307 59.2469 83.2959 61 83.2959V82.2959ZM54 91.001H53V91.5H54H55V91.001H54ZM54 91.5H53C53 94.384 52.408 96.5302 51.4306 97.9264C50.4844 99.278 49.1309 100 47.3496 100V101V102C49.7684 102 51.74 100.972 53.069 99.0734C54.3668 97.2195 55 94.6157 55 91.5H54ZM47.3496 101V100H32.6504V101V102H47.3496V101ZM32.6504 101V100C30.8691 100 29.5156 99.278 28.5694 97.9264C27.592 96.5302 27 94.384 27 91.5H26H25C25 94.6157 25.6332 97.2195 26.931 99.0734C28.26 100.972 30.2316 102 32.6504 102V101ZM26 91.5H27V91.001H26H25V91.5H26ZM26 91.001H27C27 87.9617 26.2132 85.5302 24.7693 83.8422C23.312 82.1388 21.2719 81.2959 19 81.2959V82.2959V83.2959C20.7531 83.2959 22.213 83.9307 23.2495 85.1423C24.2993 86.3695 25 88.2906 25 91.001H26ZM19 82.2959V81.2959H18.6504V82.2959V83.2959H19V82.2959ZM18.6504 82.2959V81.2959C16.8535 81.2959 15.5021 80.5971 14.5633 79.2859C13.5923 77.9296 13 75.8249 13 72.9404L12 72.9404L11 72.9404C11 76.0555 11.633 78.6286 12.9371 80.4502C14.2736 82.3168 16.2473 83.2959 18.6504 83.2959V82.2959ZM12 72.9404H13V72.584H12H11V72.9404H12ZM12 72.584L13 72.584C13 69.547 12.2156 66.8361 10.8285 64.8549C9.43401 62.8629 7.40203 61.585 5 61.585L5 62.585L5 63.585C6.62292 63.585 8.09091 64.4317 9.19013 66.0019C10.2968 67.5827 11 69.8713 11 72.584L12 72.584ZM5 62.585V61.585H4.65039V62.585V63.585H5V62.585ZM4.65039 62.585V61.585C3.71588 61.585 3.09648 61.4138 2.66775 61.1557C2.25242 60.9056 1.92652 60.5201 1.67201 59.9149C1.12663 58.6181 1 56.5648 1 53.5205L0 53.5205L-1 53.5205C-0.999998 56.4759 -0.901417 58.9548 -0.1716 60.6902C0.211495 61.6012 0.785692 62.357 1.63605 62.869C2.47302 63.373 3.48492 63.585 4.65039 63.585V62.585ZM0 53.5205H1V48.918H0H-1V53.5205H0ZM0 48.918L1 48.918C1.00002 45.9023 1.21228 43.8536 1.82718 42.5679C2.11742 41.961 2.483 41.5586 2.94369 41.2949C3.4155 41.0248 4.06765 40.8545 5 40.8545V39.8545V38.8545C3.83239 38.8545 2.80957 39.0672 1.95015 39.5591C1.07961 40.0574 0.457681 40.7959 0.0229122 41.705C-0.812198 43.4512 -0.999982 45.9342 -1 48.918L0 48.918ZM5 39.8545V40.8545H6V39.8545V38.8545H5V39.8545ZM6 39.8545V40.8545C8.44301 40.8545 10.2445 39.5316 11.382 37.499C12.4941 35.5118 13 32.8209 13 29.8545H12H11C11 32.6378 10.5184 34.9469 9.63673 36.5223C8.7805 38.0522 7.58199 38.8545 6 38.8545V39.8545ZM12 29.8545H13V29.498H12H11V29.8545H12ZM12 29.498L13 29.4981C13.0001 26.6142 13.5921 24.4683 14.5695 23.0723C15.5156 21.7209 16.8691 20.999 18.6504 20.999V19.999V18.999C16.2318 18.999 14.2602 20.0269 12.9311 21.9252C11.6333 23.7789 11.0001 26.3824 11 29.498L12 29.498ZM18.6504 19.999V20.999H19V19.999V18.999H18.6504V19.999ZM19 19.999V20.999C21.4021 20.999 23.4341 19.7208 24.8286 17.7286C26.2156 15.7471 27 13.036 27 9.99902H26H25C25 12.7117 24.2969 15.0006 23.1901 16.5817C22.0909 18.1521 20.6229 18.999 19 18.999V19.999ZM26 9.99902H27V9.5H26H25V9.99902H26ZM26 9.5H27C27 6.61604 27.592 4.46982 28.5694 3.0736C29.5156 1.72201 30.8691 1 32.6504 1V0V-1C30.2316 -1 28.26 0.0281455 26.931 1.92663C25.6332 3.78049 25 6.38427 25 9.5H26ZM32.6504 0V1H47.3496V0V-1H32.6504V0ZM33 20.1426V19.1426C30.6115 19.1426 28.5785 20.3714 27.1771 22.3329C25.7848 24.2816 25.0001 26.9607 25 29.998L26 29.998L27 29.9981C27.0001 27.2859 27.7029 25.0373 28.8044 23.4956C29.8967 21.9667 31.3636 21.1426 33 21.1426V20.1426ZM26 29.998H25V30.3545H26H27V29.998H26ZM26 30.3545H25C25 33.2385 24.408 35.3847 23.4306 36.7809C22.4844 38.1325 21.1309 38.8545 19.3496 38.8545V39.8545V40.8545C21.7684 40.8545 23.74 39.8263 25.069 37.9279C26.3668 36.074 27 33.4702 27 30.3545H26ZM19.3496 39.8545V38.8545H19V39.8545V40.8545H19.3496V39.8545ZM19 39.8545V38.8545C16.598 38.8545 14.566 40.1324 13.1714 42.1244C11.7844 44.1056 11 46.8165 11 49.8535L12 49.8535L13 49.8535C13 47.1408 13.7031 44.8522 14.8098 43.2714C15.9091 41.7013 17.3771 40.8545 19 40.8545V39.8545ZM12 49.8535H11V52.585H12H13V49.8535H12ZM12 52.585H11C11 55.622 11.7844 58.3331 13.1714 60.3146C14.5659 62.3067 16.5979 63.585 19 63.585V62.585V61.585C17.3771 61.585 15.9091 60.738 14.8099 59.1676C13.7031 57.5865 13 55.2977 13 52.585H12ZM19 62.585V63.585H19.3496V62.585V61.585H19V62.585ZM19.3496 62.585V63.585C21.3159 63.585 22.6476 64.034 23.516 64.9719C24.4033 65.9304 25 67.6043 25 70.5H26H27C27 67.3961 26.3715 65.1124 24.9836 63.6132C23.5768 62.0936 21.5833 61.585 19.3496 61.585V62.585ZM26 70.5H25V72.4404H26H27V70.5H26ZM26 72.4404L25 72.4404C25 75.4774 25.7844 78.1883 27.1715 80.1696C28.566 82.1615 30.598 83.4395 33 83.4395V82.4395V81.4395C31.3771 81.4395 29.9091 80.5927 28.8099 79.0226C27.7031 77.4417 27 75.1531 27 72.4404L26 72.4404ZM33 82.4395V83.4395H47V82.4395V81.4395H33V82.4395ZM47 82.4395V83.4395C49.402 83.4395 51.434 82.1615 52.8286 80.1696C54.2156 78.1883 55 75.4774 55 72.4404L54 72.4404L53 72.4404C53 75.1531 52.2969 77.4417 51.1901 79.0226C50.0909 80.5927 48.6229 81.4395 47 81.4395V82.4395ZM54 72.4404H55V72.084H54H53V72.4404H54ZM54 72.084L55 72.084C55 69.2014 55.5915 66.9326 56.5862 65.4176C57.5543 63.943 58.9144 63.1533 60.6504 63.1533V62.1533V61.1533C58.1864 61.1533 56.2213 62.3292 54.9143 64.32C53.6337 66.2705 53 68.967 53 72.084L54 72.084ZM60.6504 62.1533V63.1533H61V62.1533V61.1533H60.6504V62.1533ZM61 62.1533V63.1533C63.3607 63.1533 65.3959 62.0223 66.8112 60.1228C68.2147 58.2393 69 55.6231 69 52.585H68H67C67 55.2965 66.2978 57.4646 65.2075 58.9278C64.1292 60.375 62.6643 61.1533 61 61.1533V62.1533ZM68 52.585H69V48.918H68H67V52.585H68ZM68 48.918L69 48.9179C68.9999 45.8789 68.2134 43.4026 66.7805 41.6664C65.3335 39.9131 63.2945 39 61 39V40V41C62.7304 41 64.1913 41.6712 65.238 42.9395C66.2989 44.2249 66.9999 46.2076 67 48.918L68 48.918ZM61 40L61 39C59.2382 39 57.7829 38.2217 56.7357 36.7714C55.6685 35.2933 55 33.0718 55 30.2139L54 30.2139L53 30.2139C53 33.3557 53.7315 36.0272 55.1143 37.9422C56.5171 39.885 58.5618 41 61 41L61 40ZM54 30.2139L55 30.2138C54.9999 27.1772 54.2156 24.4503 52.8312 22.4526C51.4401 20.4455 49.4087 19.1427 47 19.1426L47 20.1426L47 21.1426C48.6161 21.1426 50.0846 22.0008 51.1873 23.5919C52.2966 25.1924 52.9999 27.5011 53 30.2139L54 30.2139ZM47 20.1426V19.1426H33V20.1426V21.1426H47V20.1426Z" fill="white" mask="url(#path-9-inside-2_558_476)"/>
<path d="M29.0317 117.231C26.752 171.5 148.253 168 148.254 112" stroke="#FF80DF" stroke-width="12" stroke-linecap="round"/>
<defs>
<filter id="filter0_d_558_476" x="112.213" y="41.9998" width="19" height="23.9897" filterUnits="userSpaceOnUse" color-interpolation-filters="sRGB">
<feFlood flood-opacity="0" result="BackgroundImageFix"/>
<feColorMatrix in="SourceAlpha" type="matrix" values="0 0 0 0 0 0 0 0 0 0 0 0 0 0 0 0 0 0 127 0" result="hardAlpha"/>
<feOffset dy="4"/>
<feGaussianBlur stdDeviation="2"/>
<feComposite in2="hardAlpha" operator="out"/>
<feColorMatrix type="matrix" values="0 0 0 0 0 0 0 0 0 0 0 0 0 0 0 0 0 0 0.25 0"/>
<feBlend mode="normal" in2="BackgroundImageFix" result="effect1_dropShadow_558_476"/>
<feBlend mode="normal" in="SourceGraphic" in2="effect1_dropShadow_558_476" result="shape"/>
</filter>
</defs>
</svg>
