<svg width="165" height="155" viewBox="0 0 165 155" fill="none" xmlns="http://www.w3.org/2000/svg">
<mask id="path-1-inside-1_558_473" fill="white">
<path d="M130.95 0C135.048 6.61192e-05 137.437 2.12865 137.437 5.77734V6.08105C137.437 9.57763 140.34 12.1619 144.266 12.1621H145.584C149.681 12.1621 152.072 14.5096 152.072 18.1582V18.375C152.072 21.8717 153.535 24.5 157.926 24.5H158.266C162.364 24.5 164.755 26.1013 164.755 29.75V82.25C164.755 85.8988 162.364 88.375 158.266 88.375H157.926C153.999 88.375 151.097 91.222 151.097 94.7188V94.9355C151.096 98.5841 148.706 100.625 144.608 100.625H144.266C140.34 100.625 137.437 102.422 137.437 105.919V106.223C137.437 109.871 135.048 112 130.95 112H116.608C112.511 112 110.121 109.871 110.121 106.223V105.919C110.121 102.422 107.218 100.625 103.291 100.625H102.95C98.8526 100.625 96.4619 98.5841 96.4618 94.9355V94.7188C96.4618 91.222 93.5595 88.6377 89.6327 88.6377H89.2909C85.1938 88.6376 84.7548 86.7736 84.7548 83.125V29.0234C84.7548 28.8986 84.7654 28.7775 84.786 28.6602C84.9577 25.7307 85.9654 24.2373 89.6327 24.2373H90.6083C94.5351 24.2373 96.4618 21.653 96.4618 18.1562V17.9395C96.4619 14.2908 98.8526 12.1621 102.95 12.1621H103.291C107.218 12.1621 110.121 9.57777 110.121 6.08105V5.77734C110.121 2.12864 112.511 5.02686e-05 116.608 0H130.95ZM116.95 12.25C113.023 12.25 110.121 14.7474 110.121 18.2441V18.46C110.121 22.1087 107.73 24.2373 103.633 24.2373H103.291C99.3644 24.2375 96.462 26.822 96.4618 30.3184V82.5566C96.462 86.053 99.3644 88.6375 103.291 88.6377H103.633C107.73 88.6377 110.121 90.7663 110.121 94.415V94.6309C110.121 98.1276 113.023 100.713 116.95 100.713H130.608C134.535 100.713 137.437 98.1276 137.437 94.6309V94.415C137.437 90.7663 139.828 88.375 143.926 88.375H144.266C148.193 88.375 151.096 86.0531 151.097 82.5566V29.75C151.097 26.2533 148.193 24.2373 144.266 24.2373C140.169 24.2371 137.437 22.0236 137.437 18.375C137.437 14.8783 134.535 12.25 130.608 12.25H116.95Z"/>
</mask>
<path d="M130.95 0C135.048 6.61192e-05 137.437 2.12865 137.437 5.77734V6.08105C137.437 9.57763 140.34 12.1619 144.266 12.1621H145.584C149.681 12.1621 152.072 14.5096 152.072 18.1582V18.375C152.072 21.8717 153.535 24.5 157.926 24.5H158.266C162.364 24.5 164.755 26.1013 164.755 29.75V82.25C164.755 85.8988 162.364 88.375 158.266 88.375H157.926C153.999 88.375 151.097 91.222 151.097 94.7188V94.9355C151.096 98.5841 148.706 100.625 144.608 100.625H144.266C140.34 100.625 137.437 102.422 137.437 105.919V106.223C137.437 109.871 135.048 112 130.95 112H116.608C112.511 112 110.121 109.871 110.121 106.223V105.919C110.121 102.422 107.218 100.625 103.291 100.625H102.95C98.8526 100.625 96.4619 98.5841 96.4618 94.9355V94.7188C96.4618 91.222 93.5595 88.6377 89.6327 88.6377H89.2909C85.1938 88.6376 84.7548 86.7736 84.7548 83.125V29.0234C84.7548 28.8986 84.7654 28.7775 84.786 28.6602C84.9577 25.7307 85.9654 24.2373 89.6327 24.2373H90.6083C94.5351 24.2373 96.4618 21.653 96.4618 18.1562V17.9395C96.4619 14.2908 98.8526 12.1621 102.95 12.1621H103.291C107.218 12.1621 110.121 9.57777 110.121 6.08105V5.77734C110.121 2.12864 112.511 5.02686e-05 116.608 0H130.95ZM116.95 12.25C113.023 12.25 110.121 14.7474 110.121 18.2441V18.46C110.121 22.1087 107.73 24.2373 103.633 24.2373H103.291C99.3644 24.2375 96.462 26.822 96.4618 30.3184V82.5566C96.462 86.053 99.3644 88.6375 103.291 88.6377H103.633C107.73 88.6377 110.121 90.7663 110.121 94.415V94.6309C110.121 98.1276 113.023 100.713 116.95 100.713H130.608C134.535 100.713 137.437 98.1276 137.437 94.6309V94.415C137.437 90.7663 139.828 88.375 143.926 88.375H144.266C148.193 88.375 151.096 86.0531 151.097 82.5566V29.75C151.097 26.2533 148.193 24.2373 144.266 24.2373C140.169 24.2371 137.437 22.0236 137.437 18.375C137.437 14.8783 134.535 12.25 130.608 12.25H116.95Z" fill="black"/>
<path d="M130.95 0L130.95 -1H130.95V0ZM144.266 12.1621L144.266 13.1621H144.266V12.1621ZM152.072 18.1582L153.072 18.1582L153.072 18.1582L152.072 18.1582ZM151.097 94.9355L152.097 94.9356V94.9355H151.097ZM144.266 100.625L144.266 99.625L144.266 99.625L144.266 100.625ZM130.95 112L130.95 113L130.95 113L130.95 112ZM116.608 112L116.608 113H116.608V112ZM96.4618 94.9355L95.4618 94.9355L95.4618 94.9356L96.4618 94.9355ZM89.2909 88.6377L89.2909 89.6377H89.2909V88.6377ZM84.786 28.6602L85.7709 28.8331L85.7809 28.7763L85.7843 28.7187L84.786 28.6602ZM89.6327 24.2373L89.6327 23.2373L89.6327 23.2373L89.6327 24.2373ZM96.4618 18.1562L97.4618 18.1563V18.1562H96.4618ZM96.4618 17.9395L95.4618 17.9394V17.9395H96.4618ZM116.608 0L116.608 -1L116.608 -1L116.608 0ZM103.291 24.2373L103.291 23.2373L103.291 23.2373L103.291 24.2373ZM96.4618 30.3184L95.4618 30.3183V30.3184H96.4618ZM96.4618 82.5566L95.4618 82.5566L95.4618 82.5567L96.4618 82.5566ZM103.291 88.6377L103.291 89.6377H103.291V88.6377ZM151.097 82.5566L152.097 82.5567V82.5566H151.097ZM144.266 24.2373L144.266 25.2373H144.266V24.2373ZM137.437 18.375L136.437 18.375V18.375L137.437 18.375ZM130.608 12.25L130.608 11.25H130.608V12.25ZM130.95 0L130.95 1C132.835 1.00003 134.192 1.48928 135.065 2.26722C135.923 3.03083 136.437 4.18129 136.437 5.77734H137.437H138.437C138.437 3.7247 137.757 1.98653 136.395 0.77366C135.05 -0.424889 133.162 -0.999964 130.95 -1L130.95 0ZM137.437 5.77734H136.437V6.08105H137.437H138.437V5.77734H137.437ZM137.437 6.08105H136.437C136.437 10.2359 139.9 13.1619 144.266 13.1621L144.266 12.1621L144.267 11.1621C140.78 11.1619 138.437 8.91937 138.437 6.08105H137.437ZM144.266 12.1621V13.1621H145.584V12.1621V11.1621H144.266V12.1621ZM145.584 12.1621V13.1621C147.445 13.1621 148.799 13.6927 149.68 14.5207C150.554 15.3423 151.072 16.559 151.072 18.1582L152.072 18.1582L153.072 18.1582C153.072 16.1088 152.395 14.3274 151.049 13.0632C149.711 11.8053 147.821 11.1621 145.584 11.1621V12.1621ZM152.072 18.1582H151.072V18.375H152.072H153.072V18.1582H152.072ZM152.072 18.375H151.072C151.072 20.2384 151.458 22.0419 152.585 23.3901C153.741 24.7726 155.524 25.5 157.926 25.5V24.5V23.5C155.937 23.5 154.793 22.9132 154.12 22.1074C153.418 21.2673 153.072 20.0083 153.072 18.375H152.072ZM157.926 24.5V25.5H158.266V24.5V23.5H157.926V24.5ZM158.266 24.5V25.5C160.212 25.5 161.576 25.8847 162.436 26.5484C163.248 27.1749 163.755 28.1625 163.755 29.75H164.755H165.755C165.755 27.6887 165.066 26.0513 163.658 24.965C162.299 23.9159 160.419 23.5 158.266 23.5V24.5ZM164.755 29.75H163.755V82.25H164.755H165.755V29.75H164.755ZM164.755 82.25H163.755C163.755 83.8513 163.235 85.1065 162.351 85.9625C161.466 86.8207 160.113 87.375 158.266 87.375V88.375V89.375C160.518 89.375 162.409 88.6912 163.743 87.399C165.079 86.1048 165.755 84.2975 165.755 82.25H164.755ZM158.266 88.375V87.375H157.926V88.375V89.375H158.266V88.375ZM157.926 88.375V87.375C153.501 87.375 150.097 90.6167 150.097 94.7188H151.097H152.097C152.097 91.8274 154.496 89.375 157.926 89.375V88.375ZM151.097 94.7188H150.097V94.9355H151.097H152.097V94.7188H151.097ZM151.097 94.9355L150.097 94.9355C150.097 96.53 149.583 97.6537 148.732 98.3943C147.861 99.1526 146.503 99.625 144.608 99.625V100.625V101.625C146.811 101.625 148.697 101.077 150.046 99.9027C151.415 98.7107 152.096 96.9896 152.097 94.9356L151.097 94.9355ZM144.608 100.625V99.625H144.266V100.625V101.625H144.608V100.625ZM144.266 100.625L144.266 99.625C142.168 99.6251 140.231 100.103 138.791 101.153C137.312 102.23 136.437 103.855 136.437 105.919H137.437H138.437C138.437 104.486 139.014 103.465 139.968 102.769C140.961 102.046 142.439 101.625 144.267 101.625L144.266 100.625ZM137.437 105.919H136.437V106.223H137.437H138.437V105.919H137.437ZM137.437 106.223H136.437C136.437 107.819 135.923 108.969 135.065 109.733C134.192 110.511 132.835 111 130.95 111L130.95 112L130.95 113C133.162 113 135.05 112.425 136.395 111.226C137.757 110.013 138.437 108.275 138.437 106.223H137.437ZM130.95 112V111H116.608V112V113H130.95V112ZM116.608 112L116.608 111C114.723 111 113.367 110.511 112.493 109.733C111.636 108.969 111.121 107.819 111.121 106.223H110.121H109.121C109.121 108.275 109.801 110.013 111.163 111.226C112.509 112.425 114.396 113 116.608 113L116.608 112ZM110.121 106.223H111.121V105.919H110.121H109.121V106.223H110.121ZM110.121 105.919H111.121C111.121 103.855 110.246 102.23 108.767 101.152C107.327 100.103 105.39 99.625 103.291 99.625V100.625V101.625C105.119 101.625 106.597 102.046 107.59 102.769C108.545 103.465 109.121 104.486 109.121 105.919H110.121ZM103.291 100.625V99.625H102.95V100.625V101.625H103.291V100.625ZM102.95 100.625V99.625C101.055 99.625 99.6971 99.1526 98.8261 98.3943C97.9755 97.6537 97.4618 96.53 97.4618 94.9355L96.4618 94.9355L95.4618 94.9356C95.4619 96.9896 96.1436 98.7107 97.5128 99.9027C98.8615 101.077 100.748 101.625 102.95 101.625V100.625ZM96.4618 94.9355H97.4618V94.7188H96.4618H95.4618V94.9355H96.4618ZM96.4618 94.7188H97.4618C97.4618 90.5638 93.9996 87.6377 89.6327 87.6377V88.6377V89.6377C93.1195 89.6377 95.4618 91.8802 95.4618 94.7188H96.4618ZM89.6327 88.6377V87.6377H89.2909V88.6377V89.6377H89.6327V88.6377ZM89.2909 88.6377L89.2909 87.6377C87.3559 87.6376 86.6557 87.1948 86.3155 86.6904C86.1179 86.3975 85.9689 85.9825 85.8759 85.3745C85.7827 84.765 85.7548 84.0271 85.7548 83.125H84.7548H83.7548C83.7548 84.0472 83.7817 84.9105 83.8989 85.6767C84.0162 86.4443 84.233 87.1795 84.6573 87.8087C85.5609 89.1484 87.1288 89.6376 89.2909 89.6377L89.2909 88.6377ZM84.7548 83.125H85.7548V29.0234H84.7548H83.7548V83.125H84.7548ZM84.7548 29.0234H85.7548C85.7548 28.9558 85.7605 28.8925 85.7709 28.8331L84.786 28.6602L83.8011 28.4872C83.7703 28.6624 83.7548 28.8415 83.7548 29.0234H84.7548ZM84.786 28.6602L85.7843 28.7187C85.8665 27.3162 86.1431 26.5247 86.6093 26.0536C87.0632 25.5949 87.9027 25.2373 89.6327 25.2373L89.6327 24.2373L89.6327 23.2373C87.6953 23.2373 86.1974 23.6265 85.1877 24.6468C84.1903 25.6547 83.8772 27.0746 83.7877 28.6017L84.786 28.6602ZM89.6327 24.2373V25.2373H90.6083V24.2373V23.2373H89.6327V24.2373ZM90.6083 24.2373V25.2373C92.8031 25.2373 94.557 24.5067 95.7517 23.1761C96.9313 21.8623 97.4618 20.0795 97.4618 18.1563L96.4618 18.1562L95.4618 18.1562C95.4618 19.7298 95.0289 20.9875 94.2635 21.84C93.5131 22.6757 92.3403 23.2373 90.6083 23.2373V24.2373ZM96.4618 18.1562H97.4618V17.9395H96.4618H95.4618V18.1562H96.4618ZM96.4618 17.9395L97.4618 17.9395C97.4618 16.3436 97.9768 15.1931 98.8344 14.4294C99.7082 13.6514 101.065 13.1621 102.95 13.1621V12.1621V11.1621C100.738 11.1621 98.8504 11.7372 97.5044 12.9357C96.1423 14.1485 95.4619 15.8867 95.4618 17.9394L96.4618 17.9395ZM102.95 12.1621V13.1621H103.291V12.1621V11.1621H102.95V12.1621ZM103.291 12.1621V13.1621C107.658 13.1621 111.121 10.2362 111.121 6.08105H110.121H109.121C109.121 8.91939 106.778 11.1621 103.291 11.1621V12.1621ZM110.121 6.08105H111.121V5.77734H110.121H109.121V6.08105H110.121ZM110.121 5.77734H111.121C111.121 4.18128 111.636 3.03082 112.493 2.2672C113.367 1.48927 114.723 1.00002 116.608 1L116.608 0L116.608 -1C114.396 -0.999973 112.509 -0.424902 111.163 0.773651C109.801 1.98652 109.121 3.7247 109.121 5.77734H110.121ZM116.608 0V1H130.95V0V-1H116.608V0ZM116.95 12.25V11.25C112.603 11.25 109.121 14.0715 109.121 18.2441H110.121H111.121C111.121 15.4234 113.443 13.25 116.95 13.25V12.25ZM110.121 18.2441H109.121V18.46H110.121H111.121V18.2441H110.121ZM110.121 18.46H109.121C109.121 20.0559 108.606 21.2064 107.748 21.9701C106.875 22.7481 105.518 23.2373 103.633 23.2373V24.2373V25.2373C105.845 25.2373 107.732 24.6623 109.078 23.4638C110.441 22.2509 111.121 20.5127 111.121 18.46H110.121ZM103.633 24.2373V23.2373H103.291V24.2373V25.2373H103.633V24.2373ZM103.291 24.2373L103.291 23.2373C98.9244 23.2375 95.462 26.1638 95.4618 30.3183L96.4618 30.3184L97.4618 30.3184C97.462 27.4802 99.8045 25.2375 103.291 25.2373L103.291 24.2373ZM96.4618 30.3184H95.4618V82.5566H96.4618H97.4618V30.3184H96.4618ZM96.4618 82.5566L95.4618 82.5567C95.462 86.7112 98.9244 89.6375 103.291 89.6377L103.291 88.6377L103.291 87.6377C99.8045 87.6375 97.462 85.3948 97.4618 82.5566L96.4618 82.5566ZM103.291 88.6377V89.6377H103.633V88.6377V87.6377H103.291V88.6377ZM103.633 88.6377V89.6377C105.518 89.6377 106.875 90.1269 107.748 90.9049C108.606 91.6686 109.121 92.8191 109.121 94.415H110.121H111.121C111.121 92.3623 110.441 90.6241 109.078 89.4112C107.732 88.2127 105.845 87.6377 103.633 87.6377V88.6377ZM110.121 94.415H109.121V94.6309H110.121H111.121V94.415H110.121ZM110.121 94.6309H109.121C109.121 98.7856 112.583 101.713 116.95 101.713V100.713V99.7129C113.464 99.7129 111.121 97.4696 111.121 94.6309H110.121ZM116.95 100.713V101.713H130.608V100.713V99.7129H116.95V100.713ZM130.608 100.713V101.713C134.975 101.713 138.437 98.7856 138.437 94.6309H137.437H136.437C136.437 97.4696 134.095 99.7129 130.608 99.7129V100.713ZM137.437 94.6309H138.437V94.415H137.437H136.437V94.6309H137.437ZM137.437 94.415H138.437C138.437 92.8151 138.956 91.5853 139.834 90.7519C140.716 89.9137 142.07 89.375 143.926 89.375V88.375V87.375C141.684 87.375 139.793 88.032 138.456 89.3016C137.114 90.5761 136.437 92.3663 136.437 94.415H137.437ZM143.926 88.375V89.375H144.266V88.375V87.375H143.926V88.375ZM144.266 88.375V89.375C146.421 89.375 148.368 88.7376 149.795 87.5441C151.237 86.3388 152.096 84.6046 152.097 82.5567L151.097 82.5566L150.097 82.5566C150.096 84.0052 149.505 85.1801 148.512 86.0099C147.506 86.8515 146.038 87.375 144.266 87.375V88.375ZM151.097 82.5566H152.097V29.75H151.097H150.097V82.5566H151.097ZM151.097 29.75H152.097C152.097 27.693 151.228 26.0224 149.766 24.8914C148.33 23.781 146.389 23.2373 144.266 23.2373V24.2373V25.2373C146.071 25.2373 147.545 25.7016 148.542 26.4734C149.513 27.2245 150.097 28.3102 150.097 29.75H151.097ZM144.266 24.2373L144.267 23.2373C142.39 23.2372 140.932 22.7304 139.961 21.9104C139.009 21.1064 138.437 19.9298 138.437 18.375L137.437 18.375L136.437 18.375C136.437 20.4689 137.232 22.2233 138.67 23.4383C140.09 24.6372 142.046 25.2372 144.266 25.2373L144.266 24.2373ZM137.437 18.375H138.437C138.437 14.229 134.985 11.25 130.608 11.25L130.608 12.25L130.608 13.25C134.085 13.25 136.437 15.5276 136.437 18.375H137.437ZM130.608 12.25V11.25H116.95V12.25V13.25H130.608V12.25Z" fill="white" mask="url(#path-1-inside-1_558_473)"/>
<path d="M69.7548 52.5H73.9969C77.2067 52.5 79.8043 53.4404 81.5956 55.1348C83.3831 56.8255 84.4217 59.318 84.4218 62.5322V65.4678C84.4217 67.1139 83.9107 68.659 83.1591 69.9131C82.4036 71.1734 81.4264 72.1051 80.5311 72.5527L80.4257 72.6055L80.3544 72.7002C79.6466 73.6438 78.8377 74.3348 77.8319 74.7949C76.8216 75.257 75.583 75.5 73.9969 75.5H72.8466C69.5248 75.5 67.3956 74.4254 65.8612 72.667C64.3101 70.8894 63.3316 68.3744 62.4218 65.3906V62.5322C62.4219 56.2485 65.7513 52.7251 69.4003 52.5107L69.7548 52.5Z" fill="#FF80DF" stroke="white"/>
<path d="M64.6085 59.2579L67.1634 56.8005C69.0851 54.9521 71.1753 54.026 73.2099 54.009C75.2392 53.9921 77.2876 54.8789 79.1367 56.8012L80.8366 58.5686C81.7785 59.5478 82.3601 60.7605 82.631 61.9387C82.9035 63.1239 82.8538 64.2349 82.5804 65.0049L82.5409 65.1161L82.5552 65.2337C82.6742 66.2005 82.5878 67.0709 82.2544 67.916C81.9192 68.7657 81.322 69.6204 80.3726 70.5336L79.68 71.1997C77.6947 73.1093 75.8126 73.6856 73.8962 73.5177C71.9543 73.3476 69.9247 72.41 67.6532 71.1434L66.0061 69.4309C62.3844 65.6654 62.3711 61.666 64.4055 59.4653L64.6085 59.2579Z" fill="#FF80DF" stroke="white"/>
<path d="M145.524 19.5643L146.914 23.5721C147.966 26.6047 147.929 29.367 146.915 31.6146C145.904 33.8575 143.889 35.6556 140.853 36.7091L138.079 37.6712C136.524 38.2106 134.897 38.2342 133.466 37.9351C132.027 37.6345 130.827 37.0166 130.111 36.3174L130.026 36.2351L129.913 36.1987C128.79 35.8393 127.872 35.3016 127.108 34.5021C126.34 33.6991 125.704 32.6085 125.185 31.11L124.808 30.0232C123.719 26.8848 124.036 24.5211 125.195 22.4952C126.366 20.4472 128.421 18.6984 130.942 16.861L133.643 15.9242C139.579 13.8649 143.999 15.8557 145.398 19.2329L145.524 19.5643Z" fill="#FF80DF" stroke="white"/>
<path d="M137.549 18.8397L140.07 20.2953C141.952 21.3816 143.141 22.8032 143.61 24.378C144.078 25.9479 143.852 27.7412 142.766 29.6213L141.759 31.3661C141.21 32.3167 140.399 33.0413 139.543 33.5169C138.681 33.996 137.81 34.2035 137.161 34.1645L137.043 34.1575L136.934 34.2038C136.21 34.5131 135.518 34.6398 134.792 34.571C134.062 34.5017 133.263 34.2306 132.334 33.6941L131.651 33.2996C129.711 32.1797 128.845 30.8464 128.546 29.3239C128.242 27.7762 128.514 25.9817 128.993 23.9067L129.962 22.2288C132.093 18.5374 135.2 17.6539 137.344 18.7294L137.549 18.8397Z" fill="#FF80DF" stroke="white"/>
<mask id="path-7-inside-2_558_473" fill="white">
<path d="M67.1044 27C71.3044 27 73.7548 30.5003 73.7548 35.5V35.999C73.7548 41.7487 76.7298 41.999 80.7548 41.999H82.1044C86.3044 41.999 88.7548 42.8587 88.7548 48.8584V49.2139C88.7548 54.9636 90.2548 54.2861 94.7548 54.2861H95.1044C99.3043 54.2861 100.755 52.9187 100.755 58.918V87.082C100.755 93.0812 99.3043 91.1533 95.1044 91.1533H94.7548C90.7298 91.1533 87.7548 88.8345 87.7548 94.584V94.9404C87.7547 100.94 85.3043 101.296 81.1044 101.296H80.7548C76.7298 101.296 73.7548 99.2513 73.7548 107.001V107.5C73.7548 113.5 71.3044 113 67.1044 113H52.4052C48.2052 113 45.7548 113.5 45.7548 107.5V107.001C45.7548 99.2513 42.7798 101.296 38.7548 101.296H38.4052C34.2052 101.296 31.7548 103.94 31.7548 97.9404V97.584C31.7548 97.0567 31.7281 96.601 31.6796 96.208C31.2813 97.3207 29.2659 97.959 26.0546 97.959H25.455C21.855 97.959 19.7548 97.1578 19.7548 95.7842V55.5322C19.7548 55.0671 19.9957 54.6678 20.454 54.3428C20.7098 54.0499 21.0505 53.9073 21.5018 53.8447C22.4644 53.5287 23.8011 53.3574 25.455 53.3574H26.0546C27.5122 53.3574 28.7233 53.4917 29.6493 53.7393C31.0581 53.391 31.7548 52.2691 31.7548 48.8545V48.498C31.7549 42.4988 34.2053 41.999 38.4052 41.999H38.7548C42.7798 41.999 45.7548 41.7487 45.7548 35.999V35.5C45.7548 30.5003 48.2052 27 52.4052 27H67.1044ZM52.7548 42.1426C48.7299 42.1426 45.7549 43.2487 45.7548 48.998V49.3545C45.7548 55.3542 43.3044 53.8545 39.1044 53.8545H38.7548C34.7298 53.8545 31.7548 54.1039 31.7548 59.8535V87.585C31.7548 93.3347 34.7298 91.585 38.7548 91.585H39.1044C43.3044 91.585 45.7548 86.5003 45.7548 92.5V94.4404C45.7548 100.19 48.7298 101.439 52.7548 101.439H66.7548C70.7797 101.439 73.7547 100.19 73.7548 94.4404V94.084C73.7548 88.0846 76.2052 91.1533 80.4052 91.1533H80.7548C84.7798 91.1533 87.7548 93.3347 87.7548 87.585V58.918C87.7546 53.1687 84.7797 54 80.7548 54C76.5548 54 73.7548 55.2136 73.7548 49.2139C73.7546 43.4646 70.7796 42.1426 66.7548 42.1426H52.7548Z"/>
</mask>
<path d="M67.1044 27C71.3044 27 73.7548 30.5003 73.7548 35.5V35.999C73.7548 41.7487 76.7298 41.999 80.7548 41.999H82.1044C86.3044 41.999 88.7548 42.8587 88.7548 48.8584V49.2139C88.7548 54.9636 90.2548 54.2861 94.7548 54.2861H95.1044C99.3043 54.2861 100.755 52.9187 100.755 58.918V87.082C100.755 93.0812 99.3043 91.1533 95.1044 91.1533H94.7548C90.7298 91.1533 87.7548 88.8345 87.7548 94.584V94.9404C87.7547 100.94 85.3043 101.296 81.1044 101.296H80.7548C76.7298 101.296 73.7548 99.2513 73.7548 107.001V107.5C73.7548 113.5 71.3044 113 67.1044 113H52.4052C48.2052 113 45.7548 113.5 45.7548 107.5V107.001C45.7548 99.2513 42.7798 101.296 38.7548 101.296H38.4052C34.2052 101.296 31.7548 103.94 31.7548 97.9404V97.584C31.7548 97.0567 31.7281 96.601 31.6796 96.208C31.2813 97.3207 29.2659 97.959 26.0546 97.959H25.455C21.855 97.959 19.7548 97.1578 19.7548 95.7842V55.5322C19.7548 55.0671 19.9957 54.6678 20.454 54.3428C20.7098 54.0499 21.0505 53.9073 21.5018 53.8447C22.4644 53.5287 23.8011 53.3574 25.455 53.3574H26.0546C27.5122 53.3574 28.7233 53.4917 29.6493 53.7393C31.0581 53.391 31.7548 52.2691 31.7548 48.8545V48.498C31.7549 42.4988 34.2053 41.999 38.4052 41.999H38.7548C42.7798 41.999 45.7548 41.7487 45.7548 35.999V35.5C45.7548 30.5003 48.2052 27 52.4052 27H67.1044ZM52.7548 42.1426C48.7299 42.1426 45.7549 43.2487 45.7548 48.998V49.3545C45.7548 55.3542 43.3044 53.8545 39.1044 53.8545H38.7548C34.7298 53.8545 31.7548 54.1039 31.7548 59.8535V87.585C31.7548 93.3347 34.7298 91.585 38.7548 91.585H39.1044C43.3044 91.585 45.7548 86.5003 45.7548 92.5V94.4404C45.7548 100.19 48.7298 101.439 52.7548 101.439H66.7548C70.7797 101.439 73.7547 100.19 73.7548 94.4404V94.084C73.7548 88.0846 76.2052 91.1533 80.4052 91.1533H80.7548C84.7798 91.1533 87.7548 93.3347 87.7548 87.585V58.918C87.7546 53.1687 84.7797 54 80.7548 54C76.5548 54 73.7548 55.2136 73.7548 49.2139C73.7546 43.4646 70.7796 42.1426 66.7548 42.1426H52.7548Z" fill="black"/>
<path d="M100.755 58.918L101.755 58.918L101.755 58.918L100.755 58.918ZM100.755 87.082L101.755 87.082V87.082H100.755ZM87.7548 94.584L86.7548 94.584V94.584H87.7548ZM87.7548 94.9404L88.7548 94.9404V94.9404H87.7548ZM31.7548 97.9404L30.7548 97.9404L30.7548 97.9404L31.7548 97.9404ZM31.7548 97.584L32.7548 97.584L32.7548 97.584L31.7548 97.584ZM31.6796 96.208L32.672 96.0853L30.7381 95.871L31.6796 96.208ZM20.454 54.3428L21.0325 55.1585L21.1292 55.0899L21.2071 55.0006L20.454 54.3428ZM21.5018 53.8447L21.6392 54.8352L21.7283 54.8229L21.8138 54.7948L21.5018 53.8447ZM29.6493 53.7393L29.391 54.7053L29.6396 54.7718L29.8893 54.71L29.6493 53.7393ZM31.7548 48.498L30.7548 48.498V48.498H31.7548ZM45.7548 48.998L44.7548 48.998V48.998H45.7548ZM31.7548 59.8535L30.7548 59.8535V59.8535H31.7548ZM45.7548 94.4404L44.7548 94.4404L44.7548 94.4404L45.7548 94.4404ZM73.7548 94.4404L74.7548 94.4404V94.4404H73.7548ZM73.7548 94.084L72.7548 94.084V94.084H73.7548ZM87.7548 58.918L88.7548 58.918L88.7548 58.9179L87.7548 58.918ZM80.7548 54L80.7548 53H80.7548L80.7548 54ZM73.7548 49.2139L74.7548 49.2139L74.7548 49.2138L73.7548 49.2139ZM66.7548 42.1426L66.7548 41.1426H66.7548V42.1426ZM67.1044 27V28C68.8932 28 70.2603 28.73 71.2078 29.9794C72.1775 31.258 72.7548 33.1501 72.7548 35.5H73.7548H74.7548C74.7548 32.8502 74.1068 30.4923 72.8013 28.7709C71.4737 27.0202 69.5155 26 67.1044 26V27ZM73.7548 35.5H72.7548V35.999H73.7548H74.7548V35.5H73.7548ZM73.7548 35.999H72.7548C72.7548 39.0239 73.5422 40.9547 75.2144 42.0026C76.0045 42.4976 76.9093 42.7377 77.8301 42.8612C78.7483 42.9843 79.7492 42.999 80.7548 42.999V41.999V40.999C79.7478 40.999 78.8675 40.9824 78.0959 40.8789C77.3268 40.7758 76.7332 40.594 76.2764 40.3078C75.4548 39.793 74.7548 38.7239 74.7548 35.999H73.7548ZM80.7548 41.999V42.999H82.1044V41.999V40.999H80.7548V41.999ZM82.1044 41.999V42.999C84.208 42.999 85.5246 43.2348 86.3577 43.9414C87.151 44.6143 87.7548 45.9455 87.7548 48.8584H88.7548H89.7548C89.7548 45.7716 89.1334 43.6731 87.6514 42.4162C86.2093 41.1931 84.2007 40.999 82.1044 40.999V41.999ZM88.7548 48.8584H87.7548V49.2139H88.7548H89.7548V48.8584H88.7548ZM88.7548 49.2139H87.7548C87.7548 50.6738 87.8475 51.8224 88.0973 52.7045C88.3566 53.6206 88.8095 54.3281 89.5617 54.7689C90.2577 55.1768 91.0818 55.2742 91.8848 55.3016C92.6715 55.3283 93.703 55.2861 94.7548 55.2861V54.2861V53.2861C93.5565 53.2861 92.713 53.3286 91.9528 53.3027C91.209 53.2774 90.8143 53.1848 90.5728 53.0434C90.3876 52.9348 90.1841 52.7336 90.0216 52.1597C89.8495 51.5517 89.7548 50.6288 89.7548 49.2139H88.7548ZM94.7548 54.2861V55.2861H95.1044V54.2861V53.2861H94.7548V54.2861ZM95.1044 54.2861V55.2861C96.1827 55.2861 97.1431 55.1966 97.8064 55.1651C98.547 55.13 98.8908 55.1708 99.0868 55.2609C99.1825 55.3049 99.3496 55.4009 99.5 55.9346C99.6621 56.51 99.7547 57.4334 99.7548 58.918L100.755 58.918L101.755 58.918C101.755 57.403 101.666 56.2475 101.425 55.3921C101.172 54.4948 100.714 53.8078 99.9222 53.4438C99.2306 53.1258 98.4244 53.1335 97.7117 53.1673C96.9219 53.2048 96.126 53.2861 95.1044 53.2861V54.2861ZM100.755 58.918H99.7548V87.082H100.755H101.755V58.918H100.755ZM100.755 87.082L99.7548 87.082C99.7547 88.573 99.6608 89.4482 99.5057 89.9581C99.4322 90.2 99.3606 90.3041 99.3245 90.3449C99.2992 90.3736 99.2749 90.3921 99.2155 90.41C99.011 90.4718 98.6611 90.4617 97.878 90.3679C97.1678 90.2829 96.226 90.1533 95.1044 90.1533V91.1533V92.1533C96.0827 92.1533 96.8972 92.2648 97.6402 92.3537C98.3102 92.434 99.1104 92.5309 99.7935 92.3247C100.178 92.2087 100.532 91.9995 100.824 91.6683C101.106 91.3492 101.291 90.9611 101.419 90.5401C101.667 89.7242 101.755 88.5906 101.755 87.082L100.755 87.082ZM95.1044 91.1533V90.1533H94.7548V91.1533V92.1533H95.1044V91.1533ZM94.7548 91.1533V90.1533C93.8354 90.1533 92.9677 90.0212 92.1123 89.892C91.3076 89.7706 90.4156 89.6317 89.6346 89.7188C88.7651 89.8157 87.9497 90.2002 87.4168 91.1218C86.9396 91.9471 86.7548 93.0992 86.7548 94.584L87.7548 94.584L88.7548 94.584C88.7548 93.194 88.9418 92.4799 89.1482 92.123C89.299 91.8623 89.4789 91.7485 89.8562 91.7065C90.3221 91.6545 90.9285 91.736 91.8137 91.8696C92.6482 91.9956 93.6617 92.1533 94.7548 92.1533V91.1533ZM87.7548 94.584H86.7548V94.9404H87.7548H88.7548V94.584H87.7548ZM87.7548 94.9404L86.7548 94.9404C86.7547 97.8654 86.1461 99.0211 85.411 99.5632C85.019 99.8523 84.493 100.045 83.7622 100.158C83.0254 100.273 82.1532 100.296 81.1044 100.296V101.296V102.296C82.1555 102.296 83.1646 102.275 84.0685 102.135C84.9784 101.994 85.8525 101.723 86.5981 101.173C88.1382 100.037 88.7547 98.015 88.7548 94.9404L87.7548 94.9404ZM81.1044 101.296V100.296H80.7548V101.296V102.296H81.1044V101.296ZM80.7548 101.296V100.296C79.8039 100.296 78.9569 100.177 78.0462 100.101C77.2033 100.031 76.2527 99.9909 75.4009 100.304C74.4621 100.648 73.775 101.362 73.3479 102.484C72.9412 103.553 72.7548 105.023 72.7548 107.001H73.7548H74.7548C74.7548 105.104 74.9402 103.923 75.2171 103.196C75.4736 102.522 75.7818 102.294 76.0899 102.181C76.485 102.036 77.0328 102.023 77.8797 102.094C78.6589 102.159 79.6931 102.296 80.7548 102.296V101.296ZM73.7548 107.001H72.7548V107.5H73.7548H74.7548V107.001H73.7548ZM73.7548 107.5H72.7548C72.7548 110.453 72.1356 111.287 71.523 111.623C71.1512 111.828 70.6306 111.942 69.8583 111.986C69.0756 112.031 68.2039 112 67.1044 112V113V114C68.1048 114 69.1145 114.032 69.9724 113.983C70.8409 113.933 71.7203 113.797 72.4861 113.376C74.1488 112.463 74.7548 110.547 74.7548 107.5H73.7548ZM67.1044 113V112H52.4052V113V114H67.1044V113ZM52.4052 113V112C51.3056 112 50.434 112.031 49.6512 111.986C48.879 111.942 48.3583 111.828 47.9865 111.623C47.374 111.287 46.7548 110.453 46.7548 107.5H45.7548H44.7548C44.7548 110.547 45.3608 112.463 47.0234 113.376C47.7892 113.797 48.6687 113.933 49.5371 113.983C50.395 114.032 51.4047 114 52.4052 114V113ZM45.7548 107.5H46.7548V107.001H45.7548H44.7548V107.5H45.7548ZM45.7548 107.001H46.7548C46.7548 105.023 46.5683 103.553 46.1616 102.484C45.7346 101.362 45.0475 100.648 44.1086 100.304C43.2568 99.9909 42.3062 100.031 41.4633 100.101C40.5526 100.177 39.7056 100.296 38.7548 100.296V101.296V102.296C39.8164 102.296 40.8507 102.159 41.6298 102.094C42.4767 102.023 43.0246 102.036 43.4196 102.181C43.7277 102.294 44.0359 102.522 44.2924 103.196C44.5693 103.923 44.7548 105.104 44.7548 107.001H45.7548ZM38.7548 101.296V100.296H38.4052V101.296V102.296H38.7548V101.296ZM38.4052 101.296V100.296C37.2547 100.296 36.2349 100.477 35.4095 100.632C34.523 100.799 33.9856 100.902 33.5829 100.871C33.413 100.858 33.3312 100.822 33.2876 100.794C33.2491 100.77 33.1797 100.714 33.0992 100.552C32.9132 100.176 32.7548 99.4168 32.7548 97.9404L31.7548 97.9404L30.7548 97.9404C30.7548 99.4638 30.9027 100.624 31.3073 101.44C31.5222 101.873 31.8193 102.231 32.2156 102.483C32.6068 102.731 33.0282 102.834 33.427 102.865C34.1619 102.922 35.0247 102.74 35.7788 102.598C36.5941 102.445 37.4557 102.296 38.4052 102.296V101.296ZM31.7548 97.9404H32.7548V97.584H31.7548H30.7548V97.9404H31.7548ZM31.7548 97.584L32.7548 97.584C32.7548 97.024 32.7265 96.5266 32.672 96.0853L31.6796 96.208L30.6871 96.3307C30.7297 96.6755 30.7548 97.0893 30.7548 97.584L31.7548 97.584ZM31.6796 96.208L30.7381 95.871C30.7021 95.9714 30.4922 96.2747 29.6235 96.5463C28.8026 96.803 27.6078 96.959 26.0546 96.959V97.959V98.959C27.7126 98.959 29.1312 98.7958 30.2204 98.4552C31.2618 98.1295 32.2587 97.5573 32.6211 96.545L31.6796 96.208ZM26.0546 97.959V96.959H25.455V97.959V98.959H26.0546V97.959ZM25.455 97.959V96.959C23.7071 96.959 22.4218 96.7616 21.6113 96.4524C20.7672 96.1303 20.7548 95.8367 20.7548 95.7842H19.7548H18.7548C18.7548 97.1053 19.7924 97.8991 20.8984 98.321C22.038 98.7558 23.6028 98.959 25.455 98.959V97.959ZM19.7548 95.7842H20.7548V55.5322H19.7548H18.7548V95.7842H19.7548ZM19.7548 55.5322H20.7548C20.7548 55.4726 20.7645 55.3485 21.0325 55.1585L20.454 54.3428L19.8755 53.5271C19.227 53.987 18.7548 54.6617 18.7548 55.5322H19.7548ZM20.454 54.3428L21.2071 55.0006C21.2504 54.951 21.3301 54.8781 21.6392 54.8352L21.5018 53.8447L21.3645 52.8542C20.7708 52.9365 20.1692 53.1488 19.7008 53.6849L20.454 54.3428ZM21.5018 53.8447L21.8138 54.7948C22.6359 54.5249 23.855 54.3574 25.455 54.3574V53.3574V52.3574C23.7471 52.3574 22.2928 52.5325 21.1899 52.8946L21.5018 53.8447ZM25.455 53.3574V54.3574H26.0546V53.3574V52.3574H25.455V53.3574ZM26.0546 53.3574V54.3574C27.4597 54.3574 28.5772 54.4878 29.391 54.7053L29.6493 53.7393L29.9075 52.7732C28.8694 52.4957 27.5648 52.3574 26.0546 52.3574V53.3574ZM29.6493 53.7393L29.8893 54.71C30.8562 54.471 31.6456 53.922 32.1366 52.8695C32.5832 51.9121 32.7548 50.5946 32.7548 48.8545H31.7548H30.7548C30.7548 50.529 30.578 51.4797 30.3241 52.024C30.1146 52.4732 29.8512 52.6592 29.4093 52.7685L29.6493 53.7393ZM31.7548 48.8545H32.7548V48.498H31.7548H30.7548V48.8545H31.7548ZM31.7548 48.498L32.7548 48.4981C32.7548 45.577 33.362 44.3703 34.1147 43.7915C34.9427 43.1547 36.2524 42.999 38.4052 42.999V41.999V40.999C36.358 40.999 34.3426 41.0932 32.8954 42.2061C31.3729 43.377 30.7548 45.4198 30.7548 48.498L31.7548 48.498ZM38.4052 41.999V42.999H38.7548V41.999V40.999H38.4052V41.999ZM38.7548 41.999V42.999C39.7603 42.999 40.7612 42.9843 41.6795 42.8612C42.6003 42.7377 43.5051 42.4976 44.2951 42.0026C45.9673 40.9547 46.7548 39.0239 46.7548 35.999H45.7548H44.7548C44.7548 38.7239 44.0547 39.793 43.2332 40.3078C42.7763 40.594 42.1827 40.7758 41.4136 40.8789C40.642 40.9824 39.7617 40.999 38.7548 40.999V41.999ZM45.7548 35.999H46.7548V35.5H45.7548H44.7548V35.999H45.7548ZM45.7548 35.5H46.7548C46.7548 33.1501 47.332 31.258 48.3017 29.9794C49.2493 28.73 50.6163 28 52.4052 28V27V26C49.994 26 48.0359 27.0202 46.7082 28.7709C45.4027 30.4923 44.7548 32.8502 44.7548 35.5H45.7548ZM52.4052 27V28H67.1044V27V26H52.4052V27ZM52.7548 42.1426V41.1426C50.6981 41.1426 48.6491 41.4136 47.1217 42.6327C45.5428 43.893 44.7548 45.9648 44.7548 48.998L45.7548 48.998L46.7548 48.9981C46.7548 46.282 47.4545 44.9261 48.3693 44.1959C49.3356 43.4246 50.7865 43.1426 52.7548 43.1426V42.1426ZM45.7548 48.998H44.7548V49.3545H45.7548H46.7548V48.998H45.7548ZM45.7548 49.3545H44.7548C44.7548 50.8129 44.6017 51.6838 44.3843 52.2015C44.195 52.6521 43.9711 52.8125 43.6915 52.9047C43.3234 53.026 42.7991 53.0439 41.9724 52.9967C41.2049 52.9529 40.1917 52.8545 39.1044 52.8545V53.8545V54.8545C40.117 54.8545 40.9852 54.9436 41.8584 54.9934C42.6724 55.0399 43.5481 55.0578 44.3177 54.8041C45.1756 54.5213 45.8268 53.9316 46.2282 52.976C46.6015 52.0874 46.7548 50.896 46.7548 49.3545H45.7548ZM39.1044 53.8545V52.8545H38.7548V53.8545V54.8545H39.1044V53.8545ZM38.7548 53.8545V52.8545C37.7492 52.8545 36.7484 52.8691 35.8302 52.9922C34.9094 53.1155 34.0046 53.3555 33.2145 53.8504C31.5422 54.898 30.7548 56.8287 30.7548 59.8535L31.7548 59.8535L32.7548 59.8535C32.7548 57.1287 33.4548 56.0599 34.2763 55.5453C34.7331 55.2592 35.3267 55.0775 36.0958 54.9744C36.8674 54.871 37.7478 54.8545 38.7548 54.8545V53.8545ZM31.7548 59.8535H30.7548V87.585H31.7548H32.7548V59.8535H31.7548ZM31.7548 87.585H30.7548C30.7548 89.0795 30.9429 90.244 31.399 91.1041C31.8934 92.0363 32.6523 92.5196 33.5253 92.7166C34.3218 92.8963 35.2198 92.8376 36.0504 92.7647C36.9302 92.6874 37.8056 92.585 38.7548 92.585V91.585V90.585C37.6914 90.585 36.6855 90.7012 35.8755 90.7723C35.0163 90.8478 34.4159 90.8672 33.9654 90.7656C33.5916 90.6813 33.3552 90.524 33.166 90.1671C32.9385 89.7382 32.7548 88.9653 32.7548 87.585H31.7548ZM38.7548 91.585V92.585H39.1044V91.585V90.585H38.7548V91.585ZM39.1044 91.585V92.585C40.3576 92.585 41.4495 92.2053 42.3384 91.7904C42.7823 91.5831 43.1887 91.3606 43.5376 91.168C43.9007 90.9675 44.179 90.8127 44.4211 90.7017C44.5379 90.6482 44.627 90.6141 44.6943 90.5939C44.7627 90.5733 44.7878 90.5735 44.7808 90.5736C44.7125 90.5752 44.5895 90.5303 44.5272 90.4528C44.5167 90.4398 44.5912 90.534 44.6559 90.9084C44.7172 91.2633 44.7548 91.776 44.7548 92.5H45.7548H46.7548C46.7548 91.7241 46.7157 91.0833 46.6267 90.5678C46.541 90.0719 46.3912 89.579 46.0853 89.199C45.7277 88.7545 45.2383 88.5626 44.7351 88.5742C44.3065 88.584 43.9018 88.7397 43.588 88.8835C43.2614 89.0331 42.9052 89.2326 42.571 89.4171C42.2226 89.6094 41.8688 89.8024 41.4924 89.9781C40.7406 90.329 39.9511 90.585 39.1044 90.585V91.585ZM45.7548 92.5H44.7548V94.4404H45.7548H46.7548V92.5H45.7548ZM45.7548 94.4404L44.7548 94.4404C44.7548 97.4748 45.5427 99.5722 47.1082 100.867C48.6322 102.127 50.6803 102.439 52.7548 102.439V101.439V100.439C50.8043 100.439 49.3523 100.127 48.3827 99.3254C47.4544 98.5578 46.7548 97.1556 46.7548 94.4404L45.7548 94.4404ZM52.7548 101.439V102.439H66.7548V101.439V100.439H52.7548V101.439ZM66.7548 101.439V102.439C68.8292 102.439 70.8773 102.127 72.4014 100.867C73.9668 99.5722 74.7547 97.4748 74.7548 94.4404L73.7548 94.4404L72.7548 94.4404C72.7547 97.1556 72.0552 98.5578 71.1269 99.3254C70.1572 100.127 68.7053 100.439 66.7548 100.439V101.439ZM73.7548 94.4404H74.7548V94.084H73.7548H72.7548V94.4404H73.7548ZM73.7548 94.084L74.7548 94.084C74.7548 92.5983 74.9161 91.8849 75.0864 91.5642C75.1543 91.4364 75.2021 91.4131 75.2132 91.4073C75.2368 91.395 75.3092 91.366 75.4898 91.3688C75.9164 91.3752 76.4568 91.5262 77.3641 91.7407C78.2044 91.9394 79.2362 92.1533 80.4052 92.1533V91.1533V90.1533C79.4741 90.1533 78.6246 89.9836 77.8243 89.7944C77.0909 89.621 76.2312 89.3798 75.5202 89.369C75.132 89.3631 74.7012 89.4192 74.29 89.6332C73.8663 89.8536 73.5476 90.1978 73.3202 90.6259C72.8998 91.4172 72.7548 92.57 72.7548 94.084L73.7548 94.084ZM80.4052 91.1533V92.1533H80.7548V91.1533V90.1533H80.4052V91.1533ZM80.7548 91.1533V92.1533C81.6808 92.1533 82.5514 92.2784 83.4121 92.3952C84.2229 92.5053 85.1164 92.625 85.9019 92.5158C86.7739 92.3945 87.5747 91.9843 88.0974 91.0606C88.569 90.2271 88.7548 89.0723 88.7548 87.585H87.7548H86.7548C86.7548 88.9724 86.5686 89.7012 86.3567 90.0757C86.1957 90.3601 86.0013 90.4827 85.6264 90.5348C85.165 90.599 84.56 90.5327 83.681 90.4134C82.8518 90.3009 81.8412 90.1533 80.7548 90.1533V91.1533ZM87.7548 87.585H88.7548V58.918H87.7548H86.7548V87.585H87.7548ZM87.7548 58.918L88.7548 58.9179C88.7547 57.4122 88.5628 56.2196 88.1327 55.3003C87.6827 54.3385 86.9949 53.7266 86.1432 53.3777C85.3394 53.0484 84.4343 52.9723 83.5606 52.96C83.116 52.9538 82.651 52.9644 82.1865 52.9758C81.7162 52.9874 81.243 53 80.7548 53V54V55C81.2728 55 81.7729 54.9866 82.2358 54.9752C82.7043 54.9637 83.1321 54.9542 83.5324 54.9598C84.3485 54.9713 84.9419 55.0468 85.3849 55.2284C85.78 55.3902 86.0875 55.6485 86.3212 56.1479C86.5747 56.6897 86.7547 57.5491 86.7548 58.918L87.7548 58.918ZM80.7548 54L80.7548 53C79.715 53 78.6203 53.0784 77.8657 53.0961C77.0243 53.1159 76.4448 53.0713 76.0223 52.9173C75.6654 52.7872 75.3884 52.5687 75.17 52.0828C74.9269 51.5421 74.7548 50.6584 74.7548 49.2139L73.7548 49.2139L72.7548 49.2139C72.7548 50.7692 72.9326 51.9836 73.3458 52.9028C73.7836 53.8768 74.4691 54.4799 75.3373 54.7963C76.1398 55.0889 77.0477 55.1159 77.9126 55.0956C78.8642 55.0733 79.6945 55 80.7548 55L80.7548 54ZM73.7548 49.2139L74.7548 49.2138C74.7547 46.1791 73.9667 44.0687 72.4078 42.7571C70.8857 41.4763 68.8381 41.1426 66.7548 41.1426L66.7548 42.1426L66.7548 43.1426C68.6962 43.1426 70.1486 43.4699 71.1202 44.2874C72.0551 45.0741 72.7547 46.4993 72.7548 49.2139L73.7548 49.2139ZM66.7548 42.1426V41.1426H52.7548V42.1426V43.1426H66.7548V42.1426Z" fill="white" mask="url(#path-7-inside-2_558_473)"/>
<path d="M42.8549 137.515C21.2546 127 27.2546 147 21.9756 144.753L17.0285 143.233C11.1336 141.42 7.13676 136.198 6.48384 132.311C5.05612 123.812 11.7546 124 11.7546 115.765C11.7546 115.765 23.1857 123.12 26.014 125.19C30.3239 128.345 42.8549 137.515 42.8549 137.515Z" fill="#FF80DF"/>
</svg>
